<?xml version="1.0" encoding="utf-8"?>
<!-- Generator: Adobe Illustrator 21.0.2, SVG Export Plug-In . SVG Version: 6.00 Build 0)  -->
<svg version="1.1" id="flag-icon-css-vi" xmlns="http://www.w3.org/2000/svg" xmlns:xlink="http://www.w3.org/1999/xlink" x="0px"
	 y="0px" viewBox="0 0 640 480" style="enable-background:new 0 0 640 480;" xml:space="preserve">
<style type="text/css">
	.st0{fill:#FFFFFF;}
	.st1{fill:#369443;stroke:#010002;stroke-width:1.506;stroke-miterlimit:10;}
	.st2{fill:#F4C53D;stroke:#010002;stroke-width:1.505;stroke-miterlimit:10;}
	.st3{fill:none;stroke:#010002;stroke-width:1.505;stroke-miterlimit:10;}
	.st4{fill:#0081C6;stroke:#010002;stroke-width:1.505;stroke-miterlimit:10;}
	.st5{fill:#0081C6;stroke:#010002;stroke-width:1.506;stroke-miterlimit:10;}
	.st6{fill:#FFFFFF;stroke:#010002;stroke-width:1.506;}
	.st7{fill:#A60032;stroke:#010002;stroke-width:1.505;}
	.st8{fill:#162667;stroke:#010002;stroke-width:1.506;stroke-miterlimit:10;}
</style>
<path class="st0" d="M0,0h640v480H0V0z"/>
<path class="st1" d="M204.3,314.9c0,0-0.5-3.5,6.1-6.1c6.7-2.6,7.2-12.2,5.8-18.6c0,0-3.5,6.1-7.7,8.1c0,0-6.9,3.6-7.2,10.4
	c0,0-0.1,2.5-0.6,4.5c-0.3,1.1-3.3-8.6,2.4-15.7c6-7.4,7.6-13.4,2.9-25.1c0,0-0.4,7.1-5.1,11.1c-4.7,4.1-5.3,4.4-5.2,14
	c0,0,0.1,3.4-1.7,4.4c0,0-3.6-5.3-4.6-8.8c-1-3.5-1.4-5,2.7-9c0,0,13.3-8.6,3.7-27.4c0,0-0.3,6.5-4.9,10.3c-4.6,3.8-4.2,6.4-4.4,13
	c-0.2,6.6-0.7,6.2-1.2,7.1c0,0-8.4-15.5-1.9-23.8c6.5-8.3,10.1-10,3-25.3c0,0,0.3,7.9-5.4,11.8c-5.7,3.9-4.4,13-4.4,13
	s0.4,3.4-0.8,5.9c0,0-8.1-15.9-0.4-24.4c6.6-7.2,7-12.3,3.5-22.6c0,0-0.4,4.8-4.1,7.3c-3.6,2.6-6.5,5.1-5.8,15c0,0,0.3,6.9-0.6,8.9
	c0,0-3.4-6.3-4.4-10.4c-1-4.1-1.3-6.6,1.2-10.7c2.5-4.1,12.5-16,0.6-33.1c0,0-0.4,5.5-3.4,10.5c-3,5-1.6,10.9-1,15.4
	c0.7,4.5-1.6,8.9-1.6,8.9s-5.2-9.5-4.1-20.4c1.1-10.9-3.3-19.9-13.4-26.3c0,0-7.3,17,2.7,25.6c0,0,8.5,8.4,10.7,18.6
	c0,0-6.4-0.6-12.3-12c-5.8-11.4-18-9.6-18.8-9.7c0,0,2,17.6,20.7,22.6c0,0,11.9,2,14.1,10.8c0,0,2,6,2.8,9.2c0,0-3.8-1.5-7.3-6.6
	c-3.5-5.1-3-5.8-14.8-6.9c0,0-4.7-0.5-7.3-3.9c0,0,5,18.6,17.7,18.5c0,0,11.6-1.2,18.1,14c0,0-1.3-0.8-3-2c-1.7-1.2-6-3.4-14.5-2.3
	c-8.5,1-10.9-0.4-13-1.1c0,0,8.6,15.7,20.7,11.1c12.1-4.7,18,12.4,18.1,12.7c0,0-1.6-1.2-3.8-3.4c-2.1-2.1-6.6-4.7-15-2
	c0,0-6.1,2.3-12.2,0.5c0,0,5.9,11.5,19.8,9.5c13.8-2,17.3,10.2,17.3,10.2s-1.9-1.1-3.1-2.1c-1.3-1-5.9-3.7-15.9-0.7
	c-10,3-13.6-0.5-13.6-0.5s5.6,10.1,16.2,11.3c0,0,5.9-0.1,8.4-1c2.5-0.9,9.2-2.4,13.8,4.2c0,0-1.3,0.2-3.2-0.6c0,0-7.1-2.6-12.5,1.9
	c0,0-4.8,4.9-11.6,4c0,0,8.8,8.6,22.8,1.3c0,0,4.7-3.4,8.2-0.8C196.3,320.2,204.3,314.9,204.3,314.9L204.3,314.9z"/>
<g>
	<path class="st2" d="M282.2,103.7c0,0-1.6-14.5,10-15.9c12.1-1.5,18.1,1.1,18.1,1.1l5.4,10.7l-1.9,7.2l-7.5,3.4
		c0,0,1.3-11-8.8-11.2c-2.6-0.1-4.1,1-8.1,0.3C285.3,98.5,283.1,103,282.2,103.7L282.2,103.7z"/>
	<path class="st2" d="M363.8,139.6c-1.7,2.2-8.6,3-8.6,3s7.1,5.5,10.2,13.3c3.1,7.8-82.4,0.1-82.4,0.1s3.7-2.6,6.2-7.6
		c0,0-3.8,1.4-7.5-2.3c0,0,2.8,0.9,6.5-4.7c0,0,5.5-7,9.3-8.9c0,0-1.8,1.1-6.1-1.2c0,0,7.4-0.9,10.1-13.6c0,0,0.4-2.8,3.3-6.9
		c2.8-4.1,2.2,0.8,7.4-5.5c0,0,2.4-4.4,0.3-7.1c-2.1-2.7-4.3-1.7-8.6-4.3c-4.3-2.6-6.3-4.1-4.8-8.1c1.5-4,5.3-3.4,5.9-3.4
		c0.5,0,0.8-3.5,5.6-5.9s17.3-1.3,19.2-0.3c1.9,1,9.5,3.3,13.9,14.5c4.4,11.2-1.2,15.4,10.9,32.4c0,0-4.8,1-7.9,0.1
		C346.5,123.2,352.8,134.3,363.8,139.6L363.8,139.6z"/>
	<path class="st3" d="M310.9,92.2c-9.8-0.5-6.1-9.8-6.1-9.8"/>
	<path class="st2" d="M328,93.5c0,0-1.7-0.8-3.2-2.8c-2.1-2.7-6.7-4.1-9.1-1.5c0,0-2.5,2.8-4.7,3c0,0,2.5,0.8,4.3,2.4
		c1.7,1.6,3.6,2.8,6.1,2.4c2.6-0.3,3-1.7,4.2-2.5C326.8,93.7,328,93.5,328,93.5L328,93.5z"/>
</g>
<path class="st1" d="M202.8,336.5c0,0-0.2-6.3,7.8-6.8l23.5,32.7c0,0-0.9,2.1-11.5,1.9c0,0-1.1,0-1.7,1.2
	C219.9,367.4,202.8,336.5,202.8,336.5L202.8,336.5z"/>
<path class="st4" d="M466,255.9l-14.3,61.8l-5.9-4.2l13.9-59.2l-9.7,0.2l23.1-42.2l1.5,48.7L466,255.9z M503,269l-43,50.8l-4.7-5.2
	l42.8-50.1l-8.7-4.6l39.2-25.9l-20.4,43.8L503,269z"/>
<path class="st4" d="M492.6,242l-38.5,74l-5.9-3.5l38.7-73.8l-9.4-2.5l32.7-34.5l-10.5,47.5L492.6,242z"/>
<path class="st5" d="M444.6,338.6l-2.9,11.8l7.9,7.9l-11.1,47.1l-9.9-13.3l-14.7,6.9l11.1-47.1l10.3-2.9l2.7-11.8
	C438,337.1,441.2,335.9,444.6,338.6L444.6,338.6z"/>
<path class="st5" d="M447.3,330.8l-5.7,10.6l5.7,9.7l-22.3,42.5l-6.3-15.6l-15.9,2.6l22.3-42.5l10.7,0l5.5-10.6
	C441.3,327.6,445.3,327.6,447.3,330.8L447.3,330.8z"/>
<path class="st5" d="M448.2,333.9l-15.1,19.2l3.5,10.8L405.7,400l-2.8-16.7l-16-1.2l30.8-36.1l10.4,2.6l16-20.4
	C444.2,328.2,448.5,330.4,448.2,333.9L448.2,333.9z M65.5,288.9c3.6-1.5,6.2-2.9,6.2-6.7c0-0.9-0.5-2.9-1.5-6.1L46,202.2
	c-1.4-4.4-2.5-7-3-8c-1.1-2.1-3.2-2.9-6.1-4.1h30.7c-3.3,1.6-6.4,2.8-6.4,6.4c0,1.4,0.4,3.3,1.2,5.7l18.5,58l18.5-58
	c0.8-2.5,1.2-4.4,1.2-5.7c0-3.6-3.2-4.9-6.3-6.4h29.8c-2.7,1.1-4.9,1.9-6.1,4.1c-0.5,1-1.6,3.6-3,8l-24.2,73.9
	c-1,3.1-1.4,5.2-1.5,6.2c0,0-1.1,4.7,6.2,6.7L65.5,288.9L65.5,288.9z M580.8,281.3v-83.7c0-1.4-0.2-2.6-0.7-3.3
	c-0.5-0.8-2.6-3-5.5-4.2h27.7c-3,1-5,3.4-5.5,4.2c-0.5,0.8-0.7,1.9-0.7,3.4v83.7c0,1.5,0.2,2.6,0.7,3.4c0.5,0.8,2.5,2.7,5.5,4.2
	h-27.7c3-1.3,5-3.4,5.5-4.2C580.5,283.9,580.8,282.8,580.8,281.3L580.8,281.3z"/>
<path class="st6" d="M324.8,309.8c0,0,74.1-32.8,74.3-108.8H250.5C250.7,276.9,324.8,309.8,324.8,309.8z"/>
<g>
	<path class="st7" d="M262,201v48.5c0,0,5.7,11.3,11.4,18.3V201H262z M284.8,201v80c0,0,7.1,7,11.4,10.4V201H284.8z M307.7,201v98.9
		c0,0,8.2,5.3,11.4,7V201H307.7z M387.7,201v48.5c0,0-5.7,11.3-11.4,18.3V201H387.7z M364.8,201v80c0,0-7.1,7-11.4,10.4V201H364.8z
		 M342,201v98.9c0,0-8.2,5.3-11.4,7V201H342z"/>
</g>
<path class="st8" d="M399.1,145.8c0,0-36.4,19-74.3-1.6c-37.9,20.6-74.3,1.6-74.3,1.6V201h148.6V145.8z"/>
</svg>
