<?xml version="1.0" encoding="utf-8"?>
<!-- Generator: Adobe Illustrator 21.0.2, SVG Export Plug-In . SVG Version: 6.00 Build 0)  -->
<svg version="1.1" id="flag-icon-css-za" xmlns="http://www.w3.org/2000/svg" xmlns:xlink="http://www.w3.org/1999/xlink" x="0px"
	 y="0px" viewBox="0 0 640 480" style="enable-background:new 0 0 640 480;" xml:space="preserve">
<style type="text/css">
	.st0{fill:none;}
	.st1{fill:#0000CC;}
	.st2{fill:#FF0000;}
	.st3{fill:#FFCC00;}
	.st4{fill:#009933;}
	.st5{fill:#FFFFFF;}
</style>
<rect x="0" y="0" class="st0" width="640" height="480"/>
<path d="M0,382.4V97.9l211.7,142.1L0,382.4L0,382.4z"/>
<path class="st1" d="M144.5,480.1l237.7-160H720v160H144.5z"/>
<path class="st2" d="M129.2,0.1l590.8,0v160H382.1C382.1,160.1,132.3-1.5,129.2,0.1z"/>
<path class="st3" d="M0,60.1v37.8L211.7,240L0,382.3v37.8L266.7,240C266.7,240,0,60.1,0,60.1z"/>
<path class="st4" d="M0,60.1v-60h89l282.5,191.1H720v97.7H371.4L89,480.1H0v-59.9L266.7,240C266.7,240,0,60.1,0,60.1z"/>
<polygon class="st5" points="89,0.1 144.4,0.1 382.1,160.1 720,160.1 720,191.2 371.4,191.2 89,0.1 "/>
<polygon class="st5" points="89,480.1 144.4,480.1 382.1,320.1 720,320.1 720,289 371.4,289 89,480.1 "/>
</svg>
