<?xml version="1.0" encoding="utf-8"?>
<!-- Generator: Adobe Illustrator 21.0.2, SVG Export Plug-In . SVG Version: 6.00 Build 0)  -->
<svg version="1.1" id="flag-icon-css-ai" xmlns="http://www.w3.org/2000/svg" xmlns:xlink="http://www.w3.org/1999/xlink" x="0px"
	 y="0px" viewBox="0 0 640 480" style="enable-background:new 0 0 640 480;" xml:space="preserve">
<style type="text/css">
	.st0{fill:#00247D;}
	.st1{fill:#CCCC33;}
	.st2{fill:#FFFFFF;}
	.st3{fill:#99CCFF;}
	.st4{fill:#FF9900;}
	.st5{fill:#CF142B;}
</style>
<rect x="1.5" y="1" class="st0" width="649.5" height="479"/>
<g transform="translate(-225,0)">
	<path class="st1" d="M627.4,125c0,118.8,8.6,161,38,193.6c29.4,32.6,40.5,37.7,48.7,42.7c9.5-5.8,20.3-12.1,47-41.6
		c26.4-29.2,39.1-71.2,39.1-196.8c-19.2,9.1-28.7,12.1-45.5,12c-12.4,1.3-31.6-7.5-43-13.2c-7.5,5.3-18.3,11.6-37.9,12.3
		C651.3,135.1,644.2,131,627.4,125L627.4,125z"/>
	<path class="st2" d="M632.6,132.5c0,36.8-2,86.9,5.1,115.8c7.1,29.1,8.7,33.4,14,43.5l123.6-1c7.6-14.6,8-23.7,13.7-47
		c5.6-23.3,7.1-75.2,7.2-113.8c-12.4,7-28.7,11.9-44.5,9.7c-12.7-1-24.4-4.1-38-12.2c-11.8,7.5-15.9,10.9-35.4,11.7
		C663,140,650.7,141.3,632.6,132.5L632.6,132.5z"/>
	<path class="st3" d="M651.9,291c8.8,19.5,50.3,56.9,62.4,64.7c13.8-8.8,50.4-45.8,60.6-64.7H651.9L651.9,291z"/>
	<path class="st4" d="M716.7,186.9c3.9,9.7,16.4,20.4,19.9,25.6c-4.4,5.2-5.3,4.7-4.7,14.4c7.6-8.4,7.8-9.3,12.7-8
		c10.7,11.3,1.9,35.6-7,40.8c-8.9,5.6-7.3-0.2-20.6,6.9c6.1,5.5,13.2-0.8,18.9,0.9c3.1,3.9-1.5,11.1,0.9,17.8
		c5.1-0.5,4.5-11.4,5.7-15.3c3.7-14.4,26.1-24.5,27.3-37.7c4.7-2.3,9.4-0.7,15.2,2.7c-2.9-12.4-12.3-12.3-14.9-16.1
		c-6-9.7-11.4-20.8-24.3-23.7c-9.8-2.2-9.1,0.7-15.3-3.9C726.6,188,714.8,182,716.7,186.9L716.7,186.9z"/>
	<path class="st4" d="M685.4,228c6.3-8.2,9.4-24.8,12.2-30.5c6.4,1.6,6.4,2.7,14.3-2.4c-10.6-3.2-11.4-2.9-12.6-8.1
		c4.5-15.3,28.9-18.4,37.5-12.6c8.9,5.6,3.2,6.9,15.4,16c1.8-8.3-6.8-11.9-8.1-18.1c1.8-4.8,10-3.8,14.5-9.2
		c-2.8-4.5-11.6,1.1-15.5,1.9c-13.8,3.3-32.7-12.9-44.4-7.8c-4.2-3.3-5-8.5-4.9-15.4c-9.1,8.5-4.5,17.2-6.6,21.4
		c-5.3,10.2-12.1,20.4-8.5,33.7c2.7,10.2,4.8,8.1,3.9,16.1C681.7,218.2,682.1,232.1,685.4,228L685.4,228z"/>
	<path class="st4" d="M736.5,233.8c-9.9-1.5-25,4.4-31.1,4.8c-2-6.7-1.1-7.2-9.3-11.7c2.9,11.2,3.6,11.8,0,15.6
		c-14.7,3.9-29.9-16.6-29.6-27.3c0-10.9,3.9-6.5,5-22.1c-7.6,2.7-6.1,12.3-10.5,16.7c-4.8,0.8-8.2-7.1-15-8.3
		c-2.2,4.9,6.9,9.9,9.5,13c9.8,10.8,6.4,36.2,16.6,44.1c-0.5,5.5-4.3,8.9-10,12.4c11.6,3.8,16.3-4.8,20.8-5.1
		c11-0.4,22.8,0.4,31.8-9.7c6.8-7.7,4.1-8.5,11-11.9C730.5,242.2,741.5,234.6,736.5,233.8L736.5,233.8z"/>
	<ellipse class="st2" cx="742.8" cy="197.9" rx="2" ry="2.2"/>
	<path class="st2" d="M680.6,199.5c-0.5-1.1-0.1-2.4,0.9-2.9s2.2-0.2,2.8,0.9c0.5,1.1,0.1,2.4-0.9,2.9S681.1,200.6,680.6,199.5z"/>
	<path class="st2" d="M715.9,252.8c-0.6,1-1.8,1.3-2.8,0.7c-1-0.6-1.3-1.9-0.7-3c0.6-1,1.8-1.3,2.8-0.7S716.5,251.8,715.9,252.8z"/>
</g>
<g transform="matrix(2,0,0,2,0,-2.4e-5)">
	<path class="st2" d="M0.8,120.8h18.2L163.1,14.4V1H145L0.8,107.4V120.8L0.8,120.8z"/>
	<path class="st2" d="M163.1,120.8H145L0.8,14.4V1h18.2l144.2,106.4V120.8L163.1,120.8z"/>
	<rect x="68.4" y="1" class="st2" width="27.1" height="119.7"/>
	<rect x="0.8" y="40.9" class="st2" width="162.4" height="39.9"/>
	<path class="st5" d="M73.8,1v47.9H0.8v24h73.1v47.9h16.2V72.9h73.1V48.9H90.1V1L73.8,1L73.8,1z"/>
	<path id="b" class="st5" d="M96.9,40.9H109L163.1,1H151L96.9,40.9z"/>
	<path id="a" class="st5" d="M0.8,1v8.9l42,31h12.1C54.9,40.9,0.8,1,0.8,1z"/>
	<g transform="matrix(-1,0,0,-1,225,150)">
		<path id="a_1_" class="st5" d="M163.1,120.8v-8.9l-42-31H109C109,80.8,163.1,120.8,163.1,120.8z"/>
	</g>
	<g transform="translate(-133.23,100)">
		<path id="b_1_" class="st5" d="M0.8,120.8h12.1L67,80.8H54.9L0.8,120.8z"/>
	</g>
</g>
</svg>
