<?xml version="1.0" encoding="utf-8"?>
<!-- Generator: Adobe Illustrator 21.0.2, SVG Export Plug-In . SVG Version: 6.00 Build 0)  -->
<svg version="1.1" id="flag-icon-css-al" xmlns="http://www.w3.org/2000/svg" xmlns:xlink="http://www.w3.org/1999/xlink" x="0px"
	 y="0px" viewBox="0 0 640 480" style="enable-background:new 0 0 640 480;" xml:space="preserve">
<style type="text/css">
	.st0{fill:#E41E20;}
</style>
<path class="st0" d="M0,0h640v480H0V0z"/>
<path d="M450.4,292.1c-4.2-5-8.9-5.3-14.8,1c-6.2,0.2-10.5,0.3-16.7,0.5c3.3-2.8,5.1-4.9,8.4-7.7c5.1,1.6,10.1,1.1,12.2-4.6
	c1.7-1.9,3.5-3.1,7.7-3.2c-2.9-2.4-5.4-3.3-10.6-0.9c-7.8-3.5-8.4,1.5-9.8,4.7c-5.3,3.5-9.5,6.4-14.8,9.8c-10.7-3.1-19.5-4.9-30.2-8
	c2.3-2.4,4.7-4.6,7-7c0.6-2-0.5-3.1-2.2-3.4c-17.3-3.5-27.3-10.4-33.3-27.8c-2.5-7.3,2.9-9.4,4.8-5c2.6,6.2,5.4,13,13.2,18.2
	c2.7,1.8,10.7,0.3,6-4.1c-4.9-3.9-7-5.6-9.5-15.2c0-4.9,5.1-7.1,7.9-2.4c3,9.6,3.3,13.7,8.8,19.8c4.1,4.7,9.6,7.8,12.2,7.7
	c4.9-0.1,9.7-5.2,3.2-8.9c-9.5-3.7-13-8.8-14.3-13.6c-1.5-8.4,0.1-12.5,5.3-8.4c7.4,8.2,21.5,23.5,28.8,30.6
	c8.3,6.2,17.7,6.4,25.3,0.1c4.3-4.9,2.8-10.1-4-9c-15.3,1.3-26.8-6.2-39.5-26.2c-2.5-4.6-3.2-11,2.3-6.2
	c6.3,8.4,15.5,15.5,24.1,18.5c8.6,3,16.5,2,18.5-1.3c3.2-5.4,2.5-11.4-3.3-9.4c-4.7,1.6-11.4,2-18.3-0.6c-6.9-2.6-14.1-8.3-21.8-18
	c-2.6-5.5-1.7-10.1,3.5-7.3c12.6,10.4,28.7,18.9,37,13.8c6.1-3.7,6.2-13.2-1.5-12.6c-15.6,2.1-21.4-1.3-36.4-14.2
	c-3.4-2.5-3.2-8.7,2.2-4.7c12.6,7.9,29.7,11,36.5,6.9c6.1-3.7,5.2-15-5-11c-8.1,4.8-17.2,4.7-35.2-7.9c-4.6-3.7-1.2-8.5,2.6-6.5
	c14.5,8.1,35.7,11.6,41.2-4.9c2.1-6.3-1.7-10-7.4-5.6c-12.5,11.3-26.6,5.7-34.5,0.1c-2.1-0.1-6.5-7.9,0.9-6.7
	c18.9,4.2,37.6,0.6,41-12.5c2-4.3-1.9-11.8-8.8-5.5c-9.1,8.8-18.7,9.1-30.8,9c-6.2-1.2-6.2-7.9-1.1-8.9c9.6,0.2,19-3.9,26.5-8
	c7.4-4.1,13.5-9.9,15.4-18c1.2-7.2-5.9-14.9-10.2-7.2c-6.3,11.2-20.3,21.7-35.9,23.6c-0.8-1.3-2.9-4.7-5.4-3.8
	c-9.2,3.5-21.8,9.3-32.2,15.1c-2.3,1.2,0.4,7.3,0.9,9.6c0.5,5.9-1.3,9.7-3.2,11.9c-1.9,2.2-7,3.6-9.9,2.9c-5.8-1.5-8.9-6.5-7.9-15.4
	c0.3-0.9,0.5-5.2,5.2-10.8c2.4-2.8,5.7-6.4,10.9-9.2s13.2-4.4,22.7-6.5c5.8-1.1,8.8-3.3,9.1-5.7c-2.8,0.6-7.3,3-10.3,2.4
	c-3-0.6-4.4-2-5.8-2.8c2.2-0.5,6.2,0.1,9.8,0.1c3.6,0,6.8-0.8,8.9-1.1c4.4-0.7,7.9-2.5,10-6.6c0.9-4.4-2-5.1-4.7-2.3
	c-2.3,2.4-2.8,3.3-4.3,4.4c-1.5,1-4,2-5.7,2.3c-3.6,0.6-7.1,1.3-11.7,0.2c0.9-1.1,2.9-3,4.8-4.1c1.9-1.1,3.7-1.7,5.4-1.4
	c1.2,0.2,2.7,1.2,3.9,3.1c0.8-4.8-0.6-10.1-13.6-7.9c0.2-3.6-7.6-5.1-12.2-5.1l0,0c-2.6,0-8.1,1.6-12,3.4
	c-6.2,1.9-12.3,3.2-19.5,3.8c4.1,3.5,5,3.7,9.1,6.7c-6.3,2.3-11.2,7.1-13.4,10.2c5.5,0.3,7.4-0.2,9.2,0.6
	c-7.7,2.2-11.2,3.5-15.3,7.6c1.4,0.3,3.6,0.6,4.5,1c0.9,0.4,0.6,0.8-0.1,1.5c-1.8,1.1-8.5,9.1-10.5,10.9c-2-1.9-8.8-9.8-10.5-10.9
	c-0.6-0.7-1-1.2-0.1-1.5c0.9-0.3,3.1-0.7,4.5-1c-4.1-4.1-7.6-5.4-15.3-7.6c1.9-0.8,3.7-0.3,9.2-0.6c-2.2-3.1-7.1-7.9-13.4-10.2
	c4.2-3,5-3.2,9.2-6.7c-7.2-0.5-13.3-1.9-19.5-3.8c-3.9-1.8-9.3-3.4-12-3.4l0,0c-4.7-0.1-12.4,1.5-12.2,5.1
	c-13-2.2-14.4,3.1-13.6,7.9c1.2-1.9,2.7-2.9,3.9-3.1c1.7-0.3,3.5,0.3,5.4,1.4c1.9,1.1,3.9,3,4.8,4.1c-4.6,1.1-8.1,0.4-11.7-0.2
	c-1.8-0.3-4.3-1.3-5.7-2.3c-1.5-1-1.9-2-4.3-4.4c-2.7-2.8-5.6-2-4.7,2.3c2.1,4,5.6,5.8,10,6.6c2.1,0.3,5.3,1.1,8.9,1.1
	c3.6,0,7.6-0.5,9.8-0.1c-1.3,0.8-2.8,2.3-5.8,2.8c-3,0.6-7.6-1.8-10.4-2.4c0.4,2.3,3.3,4.5,9.1,5.7c9.6,2.1,17.5,3.7,22.7,6.5
	s8.6,6.4,10.9,9.2c4.7,5.6,5,9.8,5.2,10.8c1,8.9-2.1,13.9-7.9,15.4c-2.9,0.8-8-0.7-9.9-2.9c-1.9-2.2-3.7-6-3.2-11.9
	c0.5-2.3,3.2-8.4,0.9-9.6c-10.4-5.8-23.1-11.6-32.2-15.1c-2.5-0.9-4.6,2.5-5.4,3.8c-15.6-1.9-29.6-12.4-35.9-23.6
	c-4.3-7.6-11.4,0-10.2,7.2c1.9,8.1,8.1,13.9,15.4,18c7.6,4.2,17,8.3,26.5,8c5.1,1,5.1,7.6-1.1,8.9c-12.1,0.1-21.7-0.2-30.8-9
	c-6.9-6.3-10.8,1.2-8.8,5.5c3.4,13.1,22.1,16.8,41,12.5c7.3-1.2,2.9,6.6,0.9,6.7c-7.9,5.7-22.1,11.2-34.5-0.1
	c-5.7-4.4-9.6-0.7-7.4,5.6c5.5,16.4,26.7,13,41.2,4.9c3.7-2.1,7.1,2.8,2.6,6.5c-18.1,12.6-27.1,12.8-35.2,7.9c-10.2-4-11.1,7.3-5,11
	c6.7,4.1,23.9,1,36.4-6.9c5.4-4,5.6,2.3,2.2,4.7c-14.9,12.9-20.8,16.3-36.4,14.2c-7.7-0.6-7.6,8.9-1.5,12.6
	c8.3,5.1,24.5-3.4,37-13.8c5.3-2.8,6.2,1.8,3.5,7.3c-7.7,9.7-14.9,15.4-21.8,18c-6.9,2.6-13.6,2.2-18.3,0.6c-5.8-2-6.5,4-3.3,9.4
	c1.9,3.3,9.9,4.3,18.5,1.3c8.6-3,17.8-10.2,24.1-18.5c5.5-4.8,4.8,1.7,2.3,6.2c-12.7,20-24.2,27.5-39.5,26.2c-6.8-1.1-8.3,4.1-4,9
	c7.6,6.3,17,6.1,25.3-0.1c7.4-7.1,21.4-22.4,28.8-30.6c5.2-4.1,6.9-0.1,5.3,8.4c-1.4,4.8-4.9,9.9-14.3,13.6
	c-6.5,3.7-1.6,8.8,3.2,8.9c2.7,0,8.1-3.1,12.2-7.7c5.5-6.1,5.8-10.3,8.8-19.8c2.8-4.7,7.9-2.5,7.9,2.4c-2.4,9.6-4.5,11.3-9.5,15.2
	c-4.7,4.4,3.3,5.9,6,4.1c7.8-5.2,10.6-12,13.2-18.2c1.9-4.5,7.3-2.3,4.8,5c-6,17.4-16,24.2-33.3,27.8c-1.8,0.3-2.8,1.3-2.2,3.4
	c2.3,2.4,4.7,4.6,7,7c-10.7,3.1-19.4,4.9-30.2,8c-5.3-3.5-9.5-6.4-14.8-9.8c-1.4-3.2-2-8.2-9.8-4.7c-5.3-2.4-7.7-1.5-10.6,0.9
	c4.2,0.2,6.1,1.3,7.7,3.2c2.2,5.7,7.1,6.2,12.2,4.6c3.3,2.8,5.1,4.9,8.4,7.7c-6.2-0.2-10.5-0.3-16.7-0.5c-5.9-6.3-10.6-6-14.8-1
	c-3.2,0.5-4.6,0.6-6.8,4.5c3.5-1.4,5.6-1.8,7.1-0.3c6.3,3.6,10.4,2.8,13.5,0c6,0.4,11.5,0.7,17.5,1.1c-2.2,1.9-5.3,2.9-7.5,4.8
	c-9.1-2.6-13.8,0.9-15.4,8.3c-1.2,3-1.8,6.1-1.3,9.3c0.9-2.9,2.3-5.4,4.9-7c8.1,2.1,11.1-1.2,11.6-6.1c3.9-3.2,9.8-3.9,13.7-7.1
	c4.6,1.5,6.8,2.4,11.3,3.8c1.6,5,5.3,6.9,11.3,5.6c7.1,0.2,5.9,3.2,6.5,5.5c1.9-3.4,1.8-6.6-2.5-9.6c-1.6-4.3-5.1-6.3-9.8-3.8
	c-4.4-1.2-5.5-3-9.9-4.3c11-3.5,18.8-4.3,29.8-7.8c2.8,2.6,4.9,4.5,7.7,6.8c1.5,0.9,2.9,1.1,3.7,0c6.9-10,10-18.8,16.4-25.3
	c2.4-2.7,5.5-6.4,9-7.3c1.7-0.4,3.8-0.2,5.2,1.3c1.3,1.5,2.4,4.2,2,8.2c-0.6,5.8-2,7.6-3.7,11.1c-1.6,3.5-3.6,5.6-5.6,8.2
	c-4.1,5.3-9.4,8.4-12.6,10.5c-6.4,4.2-9.1,2.3-14,2.1c-6.4,0.7-8.1,3.8-2.8,8.1c4.9,2.5,9.2,2.8,12.8,2.2c3.1-0.6,6.6-4.5,9.2-6.6
	c2.9-3.3,7.6,0.6,4.4,4.5c-5.9,7-11.8,11.6-19,11.5c-7.6,1-6.2,5.3-1.1,7.4c9.1,3.8,17.4-3.3,21.5-7.9c3.2-3.5,5.5-3.7,5,1.8
	c-3.2,9.9-7.6,13.7-14.7,14.2c-5.8-0.5-5.9,3.9-1.6,7c9.7,6.7,16.7-4.7,19.9-11.6c2.3-6.2,5.9-3.3,6.3,1.9c0,6.8-3,12.4-11.3,19.4
	c6.3,10.1,13.7,20.3,20,30.5c6.3-10.1,13.7-20.4,20-30.5c-8.3-7-11.4-12.6-11.3-19.4c0.4-5.1,3.9-8.1,6.3-1.9
	c3.3,6.9,10.3,18.3,19.9,11.6c4.2-3,4.2-7.5-1.6-7c-7.1-0.5-11.5-4.3-14.7-14.2c-0.6-5.5,1.7-5.3,5-1.8c4.2,4.6,12.4,11.7,21.5,7.9
	c5.1-2.1,6.5-6.4-1.1-7.4c-7.3,0.1-13.2-4.5-19-11.5c-3.2-3.9,1.5-7.8,4.4-4.5c2.5,2.1,6.1,6.1,9.2,6.6c3.6,0.7,7.9,0.3,12.8-2.2
	c5.2-4.3,3.5-7.4-2.9-8.1c-4.9,0.3-7.6,2.1-14-2.1c-3.2-2.1-8.6-5.2-12.6-10.5c-2-2.7-4-4.8-5.6-8.2c-1.6-3.5-3-5.3-3.7-11.1
	c-0.4-4,0.6-6.7,2-8.2c1.3-1.5,3.4-1.7,5.2-1.3c3.4,0.9,6.5,4.6,9,7.3c6.4,6.6,9.5,15.4,16.4,25.3c0.9,1.1,2.3,0.9,3.7,0
	c2.8-2.3,5-4.2,7.7-6.8c11,3.5,18.8,4.3,29.8,7.8c-4.4,1.2-5.5,3-9.9,4.3c-4.6-2.5-8.2-0.5-9.8,3.8c-4.4,3-4.4,6.2-2.5,9.6
	c0.6-2.3-0.7-5.3,6.5-5.5c6,1.3,9.7-0.7,11.3-5.6c4.6-1.5,6.8-2.4,11.3-3.8c3.9,3.2,9.8,3.9,13.7,7.1c0.4,4.8,3.5,8.1,11.6,6.1
	c2.6,1.6,4,4.1,4.9,7c0.5-3.2,0-6.3-1.3-9.3c-1.6-7.4-6.3-10.9-15.4-8.3c-2.2-1.9-5.3-2.9-7.5-4.8c6.1-0.4,11.5-0.7,17.5-1.1
	c3.1,2.8,7.2,3.6,13.5,0c1.5-1.5,3.7-1.1,7.1,0.3C455,292.6,453.7,292.6,450.4,292.1z M367.2,101.7c3.8,0,6.2,1.2,6.2,2.8
	c0,1.6-2.4,3-6.2,3c-3.8,0-6.2-1.3-6.2-2.9C361.1,103,363.4,101.7,367.2,101.7z M272.8,107.5c-3.8,0-6.2-1.4-6.2-3
	c0-1.6,2.4-2.8,6.2-2.8c3.8,0,6.1,1.3,6.1,2.9C278.9,106.2,276.6,107.5,272.8,107.5z"/>
</svg>
