<?xml version="1.0" encoding="utf-8"?>
<!-- Generator: Adobe Illustrator 21.0.2, SVG Export Plug-In . SVG Version: 6.00 Build 0)  -->
<svg version="1.1" id="flag-icon-css-us" xmlns="http://www.w3.org/2000/svg" xmlns:xlink="http://www.w3.org/1999/xlink" x="0px"
	 y="0px" viewBox="0 0 640 480" style="enable-background:new 0 0 640 480;" xml:space="preserve">
<style type="text/css">
	.st0{fill:#BD3D44;}
	.st1{fill:#FFFFFF;}
	.st2{fill:#192F5D;}
</style>
<rect x="365" class="st0" width="277" height="36.9"/>
<rect x="365" y="73.8" class="st0" width="277" height="36.9"/>
<rect x="365" y="147.7" class="st0" width="277" height="36.9"/>
<rect x="365" y="221.5" class="st0" width="277" height="36.9"/>
<rect x="0.6" y="295.4" class="st0" width="641.4" height="36.9"/>
<rect x="0.6" y="369.2" class="st0" width="641.4" height="36.9"/>
<rect x="0.6" y="443.1" class="st0" width="641.4" height="36.9"/>
<rect x="365" y="36.9" class="st1" width="277" height="36.9"/>
<rect x="365" y="110.8" class="st1" width="277" height="36.9"/>
<rect x="365" y="184.6" class="st1" width="277" height="36.9"/>
<rect x="0.6" y="258.5" class="st1" width="641.4" height="36.9"/>
<rect x="0.6" y="332.3" class="st1" width="641.4" height="36.9"/>
<rect x="0.6" y="406.2" class="st1" width="641.4" height="36.9"/>
<path class="st2" d="M0,0h364.8v258.5H0V0z"/>
<polygon class="st1" points="30.4,11.1 33.7,21.3 44.5,21.3 35.8,27.6 39.1,37.8 30.4,31.5 21.7,37.8 25,27.6 16.3,21.3 27.1,21.3 
	"/>
<polygon class="st1" points="91.2,11.1 94.5,21.3 105.3,21.3 96.6,27.6 99.9,37.8 91.2,31.5 82.5,37.8 85.8,27.6 77.1,21.3 
	87.9,21.3 "/>
<polygon class="st1" points="152,11.1 155.3,21.3 166.1,21.3 157.4,27.6 160.7,37.8 152,31.5 143.3,37.8 146.6,27.6 137.9,21.3 
	148.7,21.3 "/>
<polygon class="st1" points="212.8,11.1 216.1,21.3 226.9,21.3 218.2,27.6 221.5,37.8 212.8,31.5 204.1,37.8 207.4,27.6 198.7,21.3 
	209.5,21.3 "/>
<polygon class="st1" points="273.6,11.1 276.9,21.3 287.7,21.3 279,27.6 282.3,37.8 273.6,31.5 264.9,37.8 268.2,27.6 259.5,21.3 
	270.3,21.3 "/>
<polygon class="st1" points="334.4,11.1 337.7,21.3 348.5,21.3 339.8,27.6 343.1,37.8 334.4,31.5 325.7,37.8 329,27.6 320.3,21.3 
	331.1,21.3 "/>
<polygon class="st1" points="60.8,36.9 64.1,47.1 74.9,47.1 66.2,53.4 69.5,63.7 60.8,57.3 52.1,63.7 55.4,53.4 46.7,47.1 
	57.5,47.1 "/>
<polygon class="st1" points="121.6,36.9 124.9,47.1 135.7,47.1 127,53.4 130.3,63.7 121.6,57.3 112.9,63.7 116.2,53.4 107.5,47.1 
	118.3,47.1 "/>
<polygon class="st1" points="182.4,36.9 185.7,47.1 196.5,47.1 187.8,53.4 191.1,63.7 182.4,57.3 173.7,63.7 177,53.4 168.3,47.1 
	179.1,47.1 "/>
<polygon class="st1" points="243.2,36.9 246.5,47.1 257.3,47.1 248.6,53.4 251.9,63.7 243.2,57.3 234.5,63.7 237.8,53.4 229.1,47.1 
	239.9,47.1 "/>
<polygon class="st1" points="304,36.9 307.3,47.1 318.1,47.1 309.4,53.4 312.7,63.7 304,57.3 295.3,63.7 298.6,53.4 289.9,47.1 
	300.7,47.1 "/>
<polygon class="st1" points="30.4,62.8 33.7,73 44.5,73 35.8,79.3 39.1,89.5 30.4,83.2 21.7,89.5 25,79.3 16.3,73 27.1,73 "/>
<polygon class="st1" points="91.2,62.8 94.5,73 105.3,73 96.6,79.3 99.9,89.5 91.2,83.2 82.5,89.5 85.8,79.3 77.1,73 87.9,73 "/>
<polygon class="st1" points="152,62.8 155.3,73 166.1,73 157.4,79.3 160.7,89.5 152,83.2 143.3,89.5 146.6,79.3 137.9,73 148.7,73 
	"/>
<polygon class="st1" points="212.8,62.8 216.1,73 226.9,73 218.2,79.3 221.5,89.5 212.8,83.2 204.1,89.5 207.4,79.3 198.7,73 
	209.5,73 "/>
<polygon class="st1" points="273.6,62.8 276.9,73 287.7,73 279,79.3 282.3,89.5 273.6,83.2 264.9,89.5 268.2,79.3 259.5,73 
	270.3,73 "/>
<polygon class="st1" points="334.4,62.8 337.7,73 348.5,73 339.8,79.3 343.1,89.5 334.4,83.2 325.7,89.5 329,79.3 320.3,73 
	331.1,73 "/>
<polygon class="st1" points="60.8,88.6 64.1,98.8 74.9,98.8 66.2,105.1 69.5,115.3 60.8,109 52.1,115.3 55.4,105.1 46.7,98.8 
	57.5,98.8 "/>
<polygon class="st1" points="121.6,88.6 124.9,98.8 135.7,98.8 127,105.1 130.3,115.3 121.6,109 112.9,115.3 116.2,105.1 
	107.5,98.8 118.3,98.8 "/>
<polygon class="st1" points="182.4,88.6 185.7,98.8 196.5,98.8 187.8,105.1 191.1,115.3 182.4,109 173.7,115.3 177,105.1 
	168.3,98.8 179.1,98.8 "/>
<polygon class="st1" points="243.2,88.6 246.5,98.8 257.3,98.8 248.6,105.1 251.9,115.3 243.2,109 234.5,115.3 237.8,105.1 
	229.1,98.8 239.9,98.8 "/>
<polygon class="st1" points="304,88.6 307.3,98.8 318.1,98.8 309.4,105.1 312.7,115.3 304,109 295.3,115.3 298.6,105.1 289.9,98.8 
	300.7,98.8 "/>
<polygon class="st1" points="30.4,114.4 33.7,124.7 44.5,124.7 35.8,131 39.1,141.2 30.4,134.9 21.7,141.2 25,131 16.3,124.7 
	27.1,124.7 "/>
<polygon class="st1" points="91.2,114.4 94.5,124.7 105.3,124.7 96.6,131 99.9,141.2 91.2,134.9 82.5,141.2 85.8,131 77.1,124.7 
	87.9,124.7 "/>
<polygon class="st1" points="152,114.4 155.3,124.7 166.1,124.7 157.4,131 160.7,141.2 152,134.9 143.3,141.2 146.6,131 
	137.9,124.7 148.7,124.7 "/>
<polygon class="st1" points="212.8,114.4 216.1,124.7 226.9,124.7 218.2,131 221.5,141.2 212.8,134.9 204.1,141.2 207.4,131 
	198.7,124.7 209.5,124.7 "/>
<polygon class="st1" points="273.6,114.4 276.9,124.7 287.7,124.7 279,131 282.3,141.2 273.6,134.9 264.9,141.2 268.2,131 
	259.5,124.7 270.3,124.7 "/>
<polygon class="st1" points="334.4,114.4 337.7,124.7 348.5,124.7 339.8,131 343.1,141.2 334.4,134.9 325.7,141.2 329,131 
	320.3,124.7 331.1,124.7 "/>
<polygon class="st1" points="60.8,140.3 64.1,150.5 74.9,150.5 66.2,156.8 69.5,167 60.8,160.7 52.1,167 55.4,156.8 46.7,150.5 
	57.5,150.5 "/>
<polygon class="st1" points="121.6,140.3 124.9,150.5 135.7,150.5 127,156.8 130.3,167 121.6,160.7 112.9,167 116.2,156.8 
	107.5,150.5 118.3,150.5 "/>
<polygon class="st1" points="182.4,140.3 185.7,150.5 196.5,150.5 187.8,156.8 191.1,167 182.4,160.7 173.7,167 177,156.8 
	168.3,150.5 179.1,150.5 "/>
<polygon class="st1" points="243.2,140.3 246.5,150.5 257.3,150.5 248.6,156.8 251.9,167 243.2,160.7 234.5,167 237.8,156.8 
	229.1,150.5 239.9,150.5 "/>
<polygon class="st1" points="304,140.3 307.3,150.5 318.1,150.5 309.4,156.8 312.7,167 304,160.7 295.3,167 298.6,156.8 
	289.9,150.5 300.7,150.5 "/>
<polygon class="st1" points="30.4,166.1 33.7,176.4 44.5,176.4 35.8,182.7 39.1,192.9 30.4,186.6 21.7,192.9 25,182.7 16.3,176.4 
	27.1,176.4 "/>
<polygon class="st1" points="91.2,166.1 94.5,176.4 105.3,176.4 96.6,182.7 99.9,192.9 91.2,186.6 82.5,192.9 85.8,182.7 
	77.1,176.4 87.9,176.4 "/>
<polygon class="st1" points="152,166.1 155.3,176.4 166.1,176.4 157.4,182.7 160.7,192.9 152,186.6 143.3,192.9 146.6,182.7 
	137.9,176.4 148.7,176.4 "/>
<polygon class="st1" points="212.8,166.1 216.1,176.4 226.9,176.4 218.2,182.7 221.5,192.9 212.8,186.6 204.1,192.9 207.4,182.7 
	198.7,176.4 209.5,176.4 "/>
<polygon class="st1" points="273.6,166.1 276.9,176.4 287.7,176.4 279,182.7 282.3,192.9 273.6,186.6 264.9,192.9 268.2,182.7 
	259.5,176.4 270.3,176.4 "/>
<polygon class="st1" points="334.4,166.1 337.7,176.4 348.5,176.4 339.8,182.7 343.1,192.9 334.4,186.6 325.7,192.9 329,182.7 
	320.3,176.4 331.1,176.4 "/>
<polygon class="st1" points="60.8,192 64.1,202.2 74.9,202.2 66.2,208.5 69.5,218.7 60.8,212.4 52.1,218.7 55.4,208.5 46.7,202.2 
	57.5,202.2 "/>
<polygon class="st1" points="121.6,192 124.9,202.2 135.7,202.2 127,208.5 130.3,218.7 121.6,212.4 112.9,218.7 116.2,208.5 
	107.5,202.2 118.3,202.2 "/>
<polygon class="st1" points="182.4,192 185.7,202.2 196.5,202.2 187.8,208.5 191.1,218.7 182.4,212.4 173.7,218.7 177,208.5 
	168.3,202.2 179.1,202.2 "/>
<polygon class="st1" points="243.2,192 246.5,202.2 257.3,202.2 248.6,208.5 251.9,218.7 243.2,212.4 234.5,218.7 237.8,208.5 
	229.1,202.2 239.9,202.2 "/>
<polygon class="st1" points="304,192 307.3,202.2 318.1,202.2 309.4,208.5 312.7,218.7 304,212.4 295.3,218.7 298.6,208.5 
	289.9,202.2 300.7,202.2 "/>
<polygon class="st1" points="30.4,217.8 33.7,228 44.5,228 35.8,234.4 39.1,244.6 30.4,238.3 21.7,244.6 25,234.4 16.3,228 
	27.1,228 "/>
<polygon class="st1" points="91.2,217.8 94.5,228 105.3,228 96.6,234.4 99.9,244.6 91.2,238.3 82.5,244.6 85.8,234.4 77.1,228 
	87.9,228 "/>
<polygon class="st1" points="152,217.8 155.3,228 166.1,228 157.4,234.4 160.7,244.6 152,238.3 143.3,244.6 146.6,234.4 137.9,228 
	148.7,228 "/>
<polygon class="st1" points="212.8,217.8 216.1,228 226.9,228 218.2,234.4 221.5,244.6 212.8,238.3 204.1,244.6 207.4,234.4 
	198.7,228 209.5,228 "/>
<polygon class="st1" points="273.6,217.8 276.9,228 287.7,228 279,234.4 282.3,244.6 273.6,238.3 264.9,244.6 268.2,234.4 
	259.5,228 270.3,228 "/>
<polygon class="st1" points="334.4,217.8 337.7,228 348.5,228 339.8,234.4 343.1,244.6 334.4,238.3 325.7,244.6 329,234.4 
	320.3,228 331.1,228 "/>
</svg>
