<?xml version="1.0" encoding="utf-8"?>
<!-- Generator: Adobe Illustrator 21.0.2, SVG Export Plug-In . SVG Version: 6.00 Build 0)  -->
<svg version="1.1" id="flag-icon-css-uy" xmlns="http://www.w3.org/2000/svg" xmlns:xlink="http://www.w3.org/1999/xlink" x="0px"
	 y="0px" viewBox="0 0 640 480" style="enable-background:new 0 0 640 480;" xml:space="preserve">
<style type="text/css">
	.st0{fill:#FFFFFF;}
	.st1{fill:#0038A8;}
	.st2{fill:#FCD116;}
	.st3{fill:#7B3F00;stroke:#7B3F00;stroke-linecap:square;stroke-miterlimit:20;}
	.st4{fill:none;stroke:#7B3F00;stroke-width:0.6;stroke-miterlimit:20;}
	.st5{fill:#7B3F00;}
</style>
<path class="st0" d="M0,0h640v480H0V0z"/>
<path class="st1" d="M266,53.3h374v53.3H266V53.3z M266,160h374v53.3H266V160z M0,266.7h640V320H0V266.7z M0,373.3h640v53.3H0V373.3
	z"/>
<path class="st2" d="M120.5,181.5l8.8,13.1c-36.2,26.2-14.1,41.6-39.7,50c15.9-15.6-2.5-16.9,10.9-49.3"/>
<path class="st3" d="M120.5,181.5l-5.8,4l0.3,0.2c-9.9,16.3-11.6,28.8-13,38.5c-0.7,4.9-1.4,9-3,12.6c-1.1,2.3-2.6,4.3-4.8,6.1
	c18.3-8.7,1.4-23.8,35.1-48.2L120.5,181.5z"/>
<path class="st4" d="M114.2,185.2c-20,32.9-6.9,51-24.6,59.4"/>
<path class="st2" d="M126.5,155.5H109l17.5,96.5l17.5-96.5H126.5V252"/>
<path class="st5" d="M126.5,155.5l17.5,0L126.5,155.5l0,96.5l17.5-96.5"/>
<path class="st2" d="M103.9,169.6l-3.1,15.5c-44.1-7.1-39.4,19.5-63.4,7.3c22.3,0.3,10.2-13.7,42.6-27.1"/>
<path class="st3" d="M103.9,169.6l-6.9-1.3l0.1,0.3c-18.5,4.5-28.6,12.2-36.5,18.1c-3.9,2.9-7.3,5.4-11,6.7
	c-2.4,0.9-4.9,1.2-7.7,0.9c19.1,6.8,17.9-15.8,58.9-9.2L103.9,169.6z"/>
<path class="st4" d="M96.8,167.8C59.4,177,55.9,199,37.3,192.4"/>
<path class="st2" d="M126.5,155.5l-12.4-12.4l-55.8,80.6l80.6-55.8L126.5,155.5l-68.2,68.2"/>
<path class="st5" d="M126.5,155.5l12.4,12.4L126.5,155.5l-68.2,68.2l80.6-55.8"/>
<path class="st2" d="M126.5,155.5V138L30,155.5l96.5,17.5V155.5H30"/>
<path class="st5" d="M126.5,155.5l0,17.5L126.5,155.5l-96.5,0l96.5,17.5"/>
<path class="st2" d="M152.5,161.5l13.1-8.8c26.2,36.2,41.6,14.1,50,39.7c-15.6-15.9-16.9,2.5-49.3-10.9"/>
<path class="st3" d="M152.5,161.5l4,5.8l0.2-0.3c16.3,9.9,28.8,11.6,38.5,13c4.9,0.7,9,1.4,12.6,3c2.3,1.1,4.3,2.6,6.1,4.8
	c-8.7-18.3-23.8-1.4-48.2-35.1L152.5,161.5z"/>
<path class="st4" d="M156.2,167.8c32.9,20,51,6.9,59.4,24.6"/>
<path class="st2" d="M126.5,155.5V173l96.5-17.5L126.5,138V155.5H223"/>
<path class="st5" d="M126.5,155.5l0-17.5L126.5,155.5l96.5,0L126.5,138"/>
<path class="st2" d="M140.6,178.1l15.5,3.1c-7.1,44.1,19.5,39.4,7.3,63.4c0.3-22.3-13.7-10.2-27.1-42.6"/>
<path class="st3" d="M140.6,178.1l-1.3,6.9l0.3-0.1c4.5,18.5,12.2,28.6,18.1,36.5c2.9,3.9,5.4,7.3,6.7,11c0.9,2.4,1.2,4.9,0.9,7.7
	c6.8-19.1-15.8-17.9-9.2-58.9L140.6,178.1z"/>
<path class="st2" d="M126.5,155.5l-12.4,12.4l80.6,55.8l-55.8-80.6L126.5,155.5l68.2,68.2"/>
<path class="st5" d="M126.5,155.5l12.4-12.4L126.5,155.5l68.2,68.2l-55.8-80.6"/>
<path class="st2" d="M127.2,130.5l-8.9-13c35.9-26.6,13.6-41.8,39.1-50.5c-15.8,15.7,2.7,16.8-10.4,49.4"/>
<path class="st3" d="M127.2,130.5l5.7-4.1l-0.3-0.2c9.7-16.4,11.2-29,12.6-38.7c0.7-4.9,1.3-9,2.9-12.6c1-2.3,2.5-4.4,4.7-6.1
	c-18.2,8.9-1.2,23.8-34.6,48.6L127.2,130.5z"/>
<path class="st4" d="M133.5,126.7c19.6-33.1,6.3-51,23.9-59.7"/>
<path class="st2" d="M121.5,156.5l17.5-0.2L120.4,60L104,156.7L121.5,156.5L120.4,60"/>
<path class="st5" d="M121.5,156.5l-17.5,0.2L121.5,156.5L120.4,60L104,156.7"/>
<path class="st2" d="M144,142.1l2.9-15.5c44.2,6.6,39.2-19.9,63.4-8c-22.3,0-10,13.8-42.3,27.6"/>
<path class="st3" d="M144,142.1l7,1.2l-0.1-0.3c18.5-4.7,28.4-12.5,36.3-18.5c3.9-3,7.3-5.5,11-6.9c2.4-0.9,4.9-1.3,7.6-1
	c-19.2-6.6-17.7,16-58.8,9.9L144,142.1z"/>
<path class="st4" d="M151.1,143.9c37.3-9.6,40.5-31.6,59.2-25.3"/>
<path class="st2" d="M121.5,156.5l12.5,12.3L189,87.5l-80,56.7L121.5,156.5l67.5-69"/>
<path class="st5" d="M121.5,156.5L109,144.3L121.5,156.5l67.5-69l-80,56.7"/>
<path class="st2" d="M121.5,156.5l0.2,17.5l96.3-18.6L121.3,139L121.5,156.5l96.5-1.1"/>
<path class="st5" d="M121.5,156.5l-0.2-17.5L121.5,156.5l96.5-1.1L121.3,139"/>
<path class="st2" d="M95.4,150.8l-13,8.9c-26.6-35.9-41.8-13.6-50.5-39.1c15.7,15.8,16.8-2.7,49.4,10.4"/>
<path class="st3" d="M95.4,150.8l-4.1-5.7l-0.2,0.3c-16.4-9.7-29-11.2-38.7-12.6c-4.9-0.7-9-1.3-12.6-2.9c-2.3-1-4.4-2.5-6.1-4.7
	c8.9,18.2,23.8,1.2,48.6,34.6L95.4,150.8z"/>
<path class="st4" d="M91.6,144.6c-33.1-19.6-51-6.3-59.7-23.9"/>
<path class="st2" d="M121.5,156.5l-0.2-17.5L25,157.6l96.7,16.4L121.5,156.5L25,157.6"/>
<path class="st5" d="M121.5,156.5l0.2,17.5L121.5,156.5L25,157.6l96.7,16.4"/>
<path class="st2" d="M107.1,134.1l-15.5-2.9c6.6-44.2-19.9-39.2-8-63.4c0,22.3,13.8,10,27.6,42.3"/>
<path class="st3" d="M107.1,134.1l1.2-7l-0.3,0.1c-4.7-18.5-12.5-28.4-18.5-36.3c-3-3.9-5.5-7.3-6.9-11c-0.9-2.4-1.3-4.9-1-7.6
	c-6.6,19.2,16,17.7,9.9,58.8L107.1,134.1z"/>
<path class="st2" d="M121.5,156.5l12.3-12.5L52.5,89.1l56.7,80L121.5,156.5l-69-67.5"/>
<path class="st5" d="M121.5,156.5l-12.3,12.5L121.5,156.5l-69-67.5l56.7,80"/>
<circle class="st2" cx="126.5" cy="155.5" r="32.2"/>
</svg>
