<?xml version="1.0" encoding="utf-8"?>
<!-- Generator: Adobe Illustrator 21.0.2, SVG Export Plug-In . SVG Version: 6.00 Build 0)  -->
<svg version="1.1" baseProfile="tiny" id="flag-icon-css-ve"
	 xmlns="http://www.w3.org/2000/svg" xmlns:xlink="http://www.w3.org/1999/xlink" x="0px" y="0px" viewBox="0 0 640 480"
	 xml:space="preserve">
<path fill="#CF142B" d="M0,0h640v480H0V0z"/>
<path fill="#00247D" d="M0,0h640v320H0V0z"/>
<path fill="#FFCC00" d="M0,0h640v160H0V0z"/>
<polygon fill="#FFFFFF" points="460.3,280 473.2,282.8 463.2,291.4 464.6,304.5 453.3,297.6 441.3,302.9 444.4,290.1 435.6,280.3 
	448.7,279.3 455.3,267.9 "/>
<polygon fill="#FFFFFF" points="433.8,232.1 446.7,229.3 441.1,241.3 447.7,252.7 434.6,251 425.8,260.8 423.4,247.9 411.3,242.6 
	422.9,236.2 424.2,223.1 "/>
<polygon fill="#FFFFFF" points="390,200.5 401.2,193.5 399.9,206.6 410,215.1 397.1,217.9 392.2,230.1 385.5,218.8 372.3,217.9 
	381.1,208 377.9,195.2 "/>
<polygon fill="#FFFFFF" points="352.2,186.8 364.7,190.7 354,198.3 354.1,211.5 343.5,203.5 331,207.7 335.3,195.3 327.5,184.7 
	340.7,184.9 348.3,174.2 "/>
<polygon fill="#FFFFFF" points="171.4,280 158.5,282.8 168.5,291.4 167.1,304.5 178.4,297.6 190.4,302.9 187.3,290.1 196.1,280.3 
	183,279.3 176.4,267.9 "/>
<polygon fill="#FFFFFF" points="197.9,232.1 185,229.3 190.7,241.3 184,252.7 197.1,251 205.9,260.8 208.3,247.9 220.4,242.6 
	208.8,236.2 207.5,223.1 "/>
<polygon fill="#FFFFFF" points="241.7,200.5 230.6,193.5 231.8,206.6 221.7,215.1 234.6,217.9 239.5,230.1 246.2,218.8 259.4,217.9 
	250.6,208 253.8,195.2 "/>
<polygon fill="#FFFFFF" points="279.5,186.8 267,190.7 277.7,198.3 277.6,211.5 288.2,203.5 300.7,207.7 296.4,195.3 304.2,184.7 
	291.1,184.9 283.4,174.2 "/>
</svg>
