<?xml version="1.0" encoding="utf-8"?>
<!-- Generator: Adobe Illustrator 21.0.2, SVG Export Plug-In . SVG Version: 6.00 Build 0)  -->
<svg version="1.1" id="flag-icon-css-vu" xmlns="http://www.w3.org/2000/svg" xmlns:xlink="http://www.w3.org/1999/xlink" x="0px"
	 y="0px" viewBox="0 0 640 480" style="enable-background:new 0 0 640 480;" xml:space="preserve">
<style type="text/css">
	.st0{fill:none;}
	.st1{fill:#FFFF00;}
	.st2{fill:#40AA40;}
	.st3{fill:#CE0000;}
</style>
<rect class="st0" width="640" height="480"/>
<g transform="scale(.9375)">
	<g>
		<path d="M0,0l347.4,219.4H768v73.1H347.4L0,512V0L0,0z"/>
		<path class="st1" d="M0,493.7L354.7,267H768V245H354.7L0,18.3v32.9L332.8,256L0,460.8V493.7L0,493.7z"/>
		<path class="st2" d="M0,512l354.7-226.7H768V512H0z"/>
		<path class="st3" d="M0,0l354.7,226.7H768V0H0z"/>
		<path class="st1" d="M95.8,266.6c1.2,0.3,1.6,0.6,2.8-1.2c0.3-0.9,1-2.2,1.7-3.3c0.9-1.5,1.3-2,2.1-0.9c0.5,0.6,2.7-0.5,3.6,0.1
			c1.4,0.9,0.6,0.8,1.7-0.2c0.9-1.8,0.1-1.6-1.1-2.5c-0.9-0.6-3.1,0.6-3.9,0c0.3-1.8,0.9-2,1.9-2.4c0.8,0.6,3.1-0.4,3.9-0.4
			c1,0.2,1.9,0.3,2.3-1.2c0.5-1.1,0.3-0.3-0.1-1.1c-0.9-0.6-3.1,0.6-3.9,0c-1.1-0.8-0.9-1.2-0.3-2.6c0.9-0.5,1.5-0.2,2.6,0.4
			c1.1,0.8,2.9-0.7,3.8-0.8c0.9-1,1.9-1.3,1.3-2.5c-0.4-0.9-0.6-1-1.8-1.3c-1.2-0.8-2.8,0.7-3.3-0.6c1-1.4,1.3-1.1,2.5-0.3
			c0.8,0.3,3.1-1.1,3.8-1.1c1.1-0.3,0.6,0.9,1.3-1.8c-0.3-1.2-2.2,0.7-3.4,0.4c-1.1,0.1-1.9-0.2-2-1.4c0-1.6,0.8-1.7,1.9-1.4
			c1,0.2,3.2-1,4-1c1.2,0.6,1.5,0.4,2.4-1c0.7-1.7-0.1-1-1.2-1.9c-0.9-0.6-3.1,0.6-3.9,0c0.2-0.6,0.4-1.4,1-1.7
			c0.8,0.2,1.6,0.1,2.6,0.8c1,0.5,2.8-1.6,3.7-2.2c-0.2-1-1.9,0.4-2.9-0.3c-0.7-0.5-1.5-0.9-1.7-1.5c0.6-1.7,0.3-1.6,1.9-1.1
			c0.9-0.2,2.3-0.2,1.3-1.8c-0.2-0.3-1-0.2-1.8-0.5c-0.9-0.6-1.8-1.2-2.7-1.5c-0.7-0.1-1.7-0.3-2.2-0.2c-0.1,1,0.2,1.6,0.1,2.8
			c0.4,0.7,1.3,0.8,1.5,1c-0.9,0.8-1.4,0.4-2.3,0.4c-1.1-0.8-0.5-3.2-1.8-2.6c0.3,0.7,0.2,3.4,0.8,3.9c0.6,0.4,1.4,0.8,1.5,1.4
			c-1,1.5-1.3,1.4-2.5,0.7c-1-0.7-0.7-2.8-1.5-2.7c-1,0.8-1,0.7-0.8,1.8c0.1,1.4-0.5,3.4,0.6,4.2c1.4,1,1.5,0.9,0.5,2.7
			c-0.7,0.9-1.2,0.7-2,0.3c-0.9-0.6-0.7-2.9-1.4-3.7c-1.3-0.8-0.6-0.8-1.7,0.2c-0.3,1.3-0.1,1.6,0.5,2.7c0.5,0.7,0.4,3.1,1.2,3.2
			c1.2,0.7,1.3,0.6-0.1,2c-1.1,0-1.6,0.4-2.5-0.7c-1-0.8-0.4-3.2-1.7-3.2c-1.2,0.1-1.5,0.1-1.3,1.8c0.2,1.5-0.3,3.8,0.8,4.7
			c1.1,0.5,1.8,0.5,2.2,1.1c-0.3,0.3-1,1.2-1.4,1.4c-0.8,0.1-1.6-0.5-2.5-0.7c-1-0.5-0.6-1.4-1.4-2c-1,0.3-1-1-1.5,0.3
			c0.2,1.1-0.2,2.6,0.9,3.3c0.9,0.6,1.6,1.8,2.5,2.4c1,1.2,0.6,1.4,0,3.1c-0.8,0-1.8-0.5-2.7-1.2c-0.9-0.6-0.7-2.9-1.6-3.5
			c-0.7-0.7-0.5-1.4-1.7,0.2c-0.1,1.1,0.1,1.2,0.4,2c0,1.1-0.3,3.2,0.8,3.9c1.1,0.2,2.2,0.8,3,1c0.8,0.9,0.1,0.7-0.8,2.2
			c-0.6,1.4-0.6,1.7-1.4,2.4C95.4,264.8,95.1,265.3,95.8,266.6L95.8,266.6z"/>
		<path class="st1" d="M120.9,267.8c0.7-1.2,1.2-1.4,0-3.4c-0.7-0.6-1.6-1.9-2.3-3.1c-1-1.5-1.4-2.2,0-2.6c0.8-0.3,0.6-3.1,1.5-3.8
			c1.4-1.1,0.9-0.3,0.5-1.9c-1.3-1.7-1.5-0.8-2.7,0.2c-0.9,0.7-0.6,3.5-1.5,4.2c-1.6-1.1-1.5-1.8-1.4-3c0.8-0.6,0.9-3.5,1.2-4.3
			c0.6-1,1.1-1.9-0.2-2.9c-0.8-1-0.2-0.4-1.1-0.3c-0.9,0.7-0.6,3.5-1.5,4.2c-1.2,0.8-1.4,0.5-2.5-0.7c-0.1-1.1,0.4-1.7,1.4-2.6
			c1.1-0.9,0.5-3.3,0.8-4.4c-0.6-1.3-0.5-2.6-1.8-2.3c-1,0-1.2,0.3-1.9,1.4c-1.3,1-0.5,3.3-1.8,3.3c-0.9-1.6-0.5-1.9,0.7-2.8
			c0.5-0.7,0.2-3.7,0.5-4.5c0.1-1.3,1.1-0.2-1.1-2.1c-1.2-0.2-0.2,2.7-1,3.7c-0.3,1.2-1,1.9-2.1,1.6c-1.4-0.6-1.2-1.5-0.6-2.6
			c0.5-1,0.3-3.8,0.7-4.6c1-1,1-1.5,0-3c-1.3-1.4-0.9-0.3-2.2,0.6c-0.9,0.7-0.6,3.5-1.5,4.2c-0.5-0.4-1.1-1-1.2-1.7
			c0.5-0.8,0.7-1.6,1.8-2.5c0.8-0.9-0.3-3.6-0.6-4.8c-1-0.2-0.4,2.2-1.4,3c-0.7,0.5-1.4,1.2-2.1,1.2c-1.3-1.3-1.4-1-0.2-2.5
			c0.1-1,0.7-2.6-1.1-2.1c-0.3,0.1-0.6,1-1.2,1.7c-0.9,0.7-1.8,1.4-2.5,2.3c-0.4,0.7-1,1.7-1,2.3c0.9,0.5,1.6,0.4,2.6,1
			c0.8-0.2,1.2-1.1,1.5-1.2c0.4,1.3-0.2,1.6-0.5,2.7c-1.2,0.9-3.1-0.8-3.1,0.9c0.8,0,3.2,1.1,3.9,0.8c0.6-0.5,1.3-1.1,1.9-1.1
			c1,1.6,0.8,2-0.4,2.9c-1,0.8-2.9-0.4-3.1,0.5c0.3,1.4,0.3,1.4,1.3,1.6c1.3,0.5,2.9,1.9,4.1,1c1.4-1.1,1.4-1.3,2.7,0.6
			c0.5,1.1,0.2,1.5-0.5,2.3c-0.9,0.7-3-0.4-4,0c-1.3,1.1-0.9,0.3-0.5,1.9c1,0.9,1.4,0.7,2.7,0.6c0.8-0.2,3,0.8,3.4,0
			c1.2-1,1-1.1,1.7,0.9c-0.4,1.2-0.3,1.8-1.6,2.3c-1.1,0.8-3.1-0.9-3.6,0.5c-0.4,1.3-0.5,1.6,1.1,2.1c1.4,0.4,3.3,1.9,4.6,1
			c0.9-1,1.1-1.7,1.9-1.8c0.1,0.5,0.7,1.6,0.8,2c-0.3,0.8-1.1,1.5-1.6,2.3c-0.9,0.9-1.5,0-2.4,0.7c-0.1,1.1-1.3,0.6-0.3,1.7
			c1.1,0.2,2.3,1.2,3.4,0.4c0.9-0.7,2.3-1,3.2-1.7c1.5-0.6,1.5-0.1,2.8,1.2c-0.3,0.9-1.2,1.7-2.1,2.4c-0.9,0.7-2.9-0.4-3.8,0.3
			c-1,0.5-1.5,0-0.5,1.9c1,0.6,1.1,0.4,2,0.4c1.1,0.4,2.8,1.6,3.9,0.8c0.6-1,1.6-2,2.2-2.8c1.2-0.5,0.7,0.2,1.7,1.7
			c1.1,1.2,1.3,1.3,1.6,2.5C119.1,267.5,119.4,268,120.9,267.8L120.9,267.8z"/>
		<path class="st1" d="M98,314.5c0-5.3-0.8-10.6,0-10.6c46.8,0,58.5-31.9,58.5-53.2c0-21.3-16.3-42.6-46.8-42.6
			c-35.1,0-46.8,20.8-46.8,42.6c0,21.3,17.6,37.2,35.1,37.2c23.4,0,29.3-5.3,46.8-26.6c-5.9,26.6-35.1,37.2-46.8,37.2
			c-23.4,0-46.8-16-46.8-47.9c0-26.6,17.6-53.2,58.5-53.2c35.1,0,58.5,26.6,58.5,53.2C168.2,287.9,139,314.5,98,314.5L98,314.5z"/>
	</g>
</g>
</svg>
