<?xml version="1.0" encoding="utf-8"?>
<!-- Generator: Adobe Illustrator 21.0.2, SVG Export Plug-In . SVG Version: 6.00 Build 0)  -->
<svg version="1.1" id="flag-icon-css-zw" xmlns="http://www.w3.org/2000/svg" xmlns:xlink="http://www.w3.org/1999/xlink" x="0px"
	 y="0px" viewBox="0 0 640 480" style="enable-background:new 0 0 640 480;" xml:space="preserve">
<style type="text/css">
	.st0{fill:none;}
	.st1{fill:#006400;}
	.st2{fill:#FFD200;}
	.st3{fill:#D40000;}
	.st4{fill:#FFFFFF;}
</style>
<rect x="0" y="0" class="st0" width="640" height="480"/>
<path class="st1" d="M-2.3-0.1h984.6v479.9H-2.3V-0.1z"/>
<path class="st2" d="M-2.3,68.4h984.6v342.8H-2.3V68.4z"/>
<path class="st3" d="M-2.3,137h984.6v205.7H-2.3V137z"/>
<path d="M-2.3,205.5h984.6v68.6H-2.3V205.5z"/>
<path d="M-2.3-0.1v479.9L326,239.8L-2.3-0.1z"/>
<path class="st4" d="M-2,11l2,458l311-229.2L-2,11z"/>
<polygon class="st3" points="131,206.9 179.4,215 143.6,248.5 150.9,297 107.9,273.3 64.1,295.2 73.4,247 39,212.1 87.6,206 
	110.2,162.5 "/>
</svg>
