<svg id="Layer_1" data-name="Layer 1" xmlns="http://www.w3.org/2000/svg" viewBox="0 0 500 500"><title>download</title><path d="M144,207.17A36.64,36.64,0,0,0,92.15,259L224,390.86a37.33,37.33,0,0,0,5.64,4.61c.84.56,1.74.93,2.61,1.42a38.23,38.23,0,0,0,3.7,1.94,34.45,34.45,0,0,0,3.58,1.11c1.09.33,2.12.74,3.25,1a36.81,36.81,0,0,0,14.34,0c1.12-.23,2.17-.65,3.25-1s2.41-.63,3.58-1.11a36.37,36.37,0,0,0,3.71-1.95c.86-.48,1.76-.86,2.59-1.41a36.84,36.84,0,0,0,5.64-4.61L407.78,259A36.64,36.64,0,1,0,356,207.17l-69.36,69.36V65.64a36.64,36.64,0,0,0-73.28,0V276.53Z"/><path d="M391.07,470.2H108.86a27.79,27.79,0,0,1,0-55.58H391.07a27.79,27.79,0,1,1,0,55.58Z"/></svg>