<?xml version="1.0" encoding="utf-8"?>
<!-- Generator: Adobe Illustrator 24.0.3, SVG Export Plug-In . SVG Version: 6.00 Build 0)  -->
<svg version="1.1" id="Layer_1" xmlns="http://www.w3.org/2000/svg" xmlns:xlink="http://www.w3.org/1999/xlink" x="0px" y="0px"
	 viewBox="0 0 400 400" style="enable-background:new 0 0 400 400;" xml:space="preserve">
<style type="text/css">
	.st0{fill:#FFFFFF;}
</style>
<path class="st0" d="M328.23,79.96c-52.94-47.71-133.76-65.57-205.88-50.79c-19.64,4.02-39.68,10.37-54.34,23.41
	c-0.19,0.17-0.35,0.35-0.53,0.52c-6.2,1.21-12.3,2.67-18.19,4.53c-15.17,4.8-29.34,13.12-33.98,27.83
	c-2.63,8.35,11.7,11.92,14.33,3.58c3.13-9.93,13.33-15.25,23.8-18.51c-4.48,7.56-7.8,15.72-10.2,23.98
	c-4.76,16.41-6.43,33.45-8.16,50.29c-1.98,19.28-3.54,38.7-2.14,58.05c1.39,19.24,5.72,38.21,14.99,55.65
	c9.07,17.08,22.87,31.76,37.09,45.48c27.96,26.96,58.93,53.63,98.5,65.48c39.61,11.86,84.57,8.19,121.05-10.17
	c32.62-16.42,58.06-43.94,70.22-75.89c5.76-15.14,8.38-31.01,8.47-46.94C393.99,180.55,372.55,119.9,328.23,79.96z M333.44,302.26
	c-24.57,24.94-59.79,36.39-96.14,37.36c-63.69,1.68-128.2-28.9-160.56-79.05C44.75,210.98,48.73,145.91,82.7,98
	c8.27-11.67,18.39-22.06,29.97-31.11c2.27-1.77,2.8-3.92,2.23-5.86c3.78-0.25,7.56-0.51,11.33-0.67
	c40.8-1.77,83.11,1.53,122.06,13.19c17.53,5.25,34.47,12.59,49.21,22.75c15.55,10.72,28,24.7,38.09,39.76
	c19.69,29.39,32.55,63.55,32.86,98.14c0,0.18-0.01,0.35-0.01,0.53C363.59,259.54,351.97,283.45,333.44,302.26z M95.89,62.68
	c-19.44,16.88-34.1,37.72-43.48,60.46c2.74-20.43,7.73-42,22.27-57.36C81.7,64.53,88.77,63.47,95.89,62.68z M136.42,40.32
	c16.61-2.65,33.62-3.32,50.44-2.37c33.88,1.92,67.36,11.12,96.39,27.13c32.14,17.73,56.85,44.07,71.77,74.46
	c-13.29-22.55-31.08-42.95-54.18-57.59c-34.44-21.82-77.38-30.25-118.54-33.84c-23.39-2.04-46.98-2.16-70.39-0.36
	c-3.19,0.24-6.42,0.51-9.67,0.79C113.2,44.5,125.08,42.12,136.42,40.32z M235.13,362.79c-36.38,0.87-68.82-11.68-96.76-31.53
	c16.93,8.3,35.15,14.51,54.06,18.08c36.58,6.92,76.03,4.68,110.23-9.56c11.09-4.62,21.17-10.74,30.17-17.99
	c-0.44,0.45-0.86,0.91-1.32,1.35C306.54,347.5,271.85,361.92,235.13,362.79z"/>
</svg>
