<?xml version="1.0" encoding="utf-8"?>
<!-- Generator: Adobe Illustrator 24.0.3, SVG Export Plug-In . SVG Version: 6.00 Build 0)  -->
<svg version="1.1" id="Layer_1" xmlns="http://www.w3.org/2000/svg" xmlns:xlink="http://www.w3.org/1999/xlink" x="0px" y="0px"
	 viewBox="0 0 25 25" style="enable-background:new 0 0 25 25;" xml:space="preserve">
<style type="text/css">
	.st0{fill:#FFFFFF;}
	.st1{fill:none;}
	.st2{stroke:#000000;stroke-width:0.5;stroke-miterlimit:10;}
	.st3{fill:none;stroke:#000000;stroke-width:4;stroke-linecap:round;stroke-linejoin:round;stroke-miterlimit:10;}
	.st4{fill:none;stroke:#000000;stroke-width:5;stroke-linecap:round;stroke-linejoin:round;stroke-miterlimit:10;}
	.st5{stroke:#000000;stroke-width:2;stroke-miterlimit:10;}
	.st6{fill:none;stroke:#000000;stroke-width:6;stroke-linecap:round;stroke-linejoin:round;stroke-miterlimit:10;}
	.st7{stroke:#000000;stroke-miterlimit:10;}
	.st8{fill:none;stroke:#000000;stroke-width:8;stroke-linecap:round;stroke-linejoin:round;stroke-miterlimit:10;}
	.st9{fill:#4D1591;}
</style>
<g>
	<path class="st9" d="M23.1,20.7l-4.4-5c-0.4-0.5-1-0.7-1.7-0.7l-1.2-1.3c0.8-1.1,1.4-2.4,1.5-3.8c0.5-4.4-2.6-8.4-7-8.9
		C8.3,0.7,6.2,1.2,4.5,2.6c-1.7,1.3-2.8,3.2-3,5.3c-0.3,2.1,0.3,4.2,1.6,5.9c1.3,1.7,3.2,2.8,5.3,3c1.9,0.2,3.9-0.2,5.5-1.3l1.2,1.3
		c-0.1,0.6,0.1,1.2,0.5,1.6l4.4,5c0.3,0.4,0.8,0.6,1.3,0.7c0.1,0,0.2,0,0.3,0c0.5,0,1-0.2,1.4-0.5c0.4-0.4,0.7-0.9,0.7-1.4
		C23.6,21.6,23.4,21.1,23.1,20.7z M14.7,9.5c-0.2,1.4-0.9,2.7-2,3.6c-1.1,0.9-2.5,1.3-4,1.1c-1.4-0.2-2.7-0.9-3.6-2
		c-0.9-1.1-1.3-2.5-1.1-4s0.9-2.7,2-3.6c1-0.7,2.1-1.1,3.3-1.1c0.2,0,0.4,0,0.7,0c1.4,0.2,2.7,0.9,3.6,2C14.5,6.7,14.9,8.1,14.7,9.5
		z"/>
</g>
</svg>
