<?xml version="1.0" encoding="utf-8"?>
<!-- Generator: Adobe Illustrator 21.0.2, SVG Export Plug-In . SVG Version: 6.00 Build 0)  -->
<svg version="1.1" id="flag-icon-css-uz" xmlns="http://www.w3.org/2000/svg" xmlns:xlink="http://www.w3.org/1999/xlink" x="0px"
	 y="0px" viewBox="0 0 640 480" style="enable-background:new 0 0 640 480;" xml:space="preserve">
<style type="text/css">
	.st0{fill:#1EB53A;}
	.st1{fill:#0099B5;}
	.st2{fill:#CE1126;}
	.st3{fill:#FFFFFF;}
</style>
<path class="st0" d="M0,320h640v160H0V320z"/>
<path class="st1" d="M0,0h640v160H0V0z"/>
<path class="st2" d="M0,316.6h640v9.8H0V316.6z"/>
<path class="st3" d="M0,163.2h640v153.6H0V163.2z"/>
<path class="st3" d="M96,76.8c0-28.5,20.8-52.2,48-56.8c-3.1-0.5-6.3-0.8-9.6-0.8c-31.8,0-57.6,25.8-57.6,57.6s25.8,57.6,57.6,57.6
	c3.3,0,6.5-0.3,9.6-0.8C116.8,129,96,105.3,96,76.8z"/>
<polygon class="st3" points="264.7,26.2 274,25.9 266.6,31.5 269.8,40.3 262.1,35 254.8,40.7 257.5,31.8 249.7,26.6 259.1,26.4 
	261.6,17.4 "/>
<polygon class="st3" points="264.7,72.3 274,72 266.6,77.6 269.8,86.4 262.1,81.1 254.8,86.8 257.5,77.9 249.7,72.6 259.1,72.5 
	261.6,63.5 "/>
<polygon class="st3" points="264.7,119.5 274,119.1 266.6,124.8 269.8,133.5 262.1,128.2 254.8,134 257.5,125 249.7,119.8 
	259.1,119.6 261.6,110.6 "/>
<polygon class="st3" points="310.7,72.3 320,72 312.6,77.6 315.8,86.4 308.1,81.1 300.8,86.8 303.5,77.9 295.7,72.6 305.1,72.5 
	307.6,63.5 "/>
<polygon class="st3" points="310.7,119.5 320,119.1 312.6,124.8 315.8,133.5 308.1,128.2 300.8,134 303.5,125 295.7,119.8 
	305.1,119.6 307.6,110.6 "/>
<path class="st2" d="M1,161.6h640v9.8H1V161.6z"/>
</svg>
