<?xml version="1.0" encoding="utf-8"?>
<!-- Generator: Adobe Illustrator 21.0.2, SVG Export Plug-In . SVG Version: 6.00 Build 0)  -->
<svg version="1.1" id="flag-icon-css-vg" xmlns="http://www.w3.org/2000/svg" xmlns:xlink="http://www.w3.org/1999/xlink" x="0px"
	 y="0px" viewBox="0 0 640 480" style="enable-background:new 0 0 640 480;" xml:space="preserve">
<style type="text/css">
	.st0{clip-path:url(#SVGID_2_);}
	.st1{fill:#000066;}
	.st2{fill:#FFFFFF;}
	.st3{fill:#CC0000;}
</style>
<g>
	<defs>
		<rect id="SVGID_1_" width="640" height="480"/>
	</defs>
	<clipPath id="SVGID_2_">
		<use xlink:href="#SVGID_1_"  style="overflow:visible;"/>
	</clipPath>
	<g class="st0">
		<path class="st1" d="M0,0h960v480H0V0z"/>
		<path class="st1" d="M0,0h350v175H0V0z"/>
		<g>
			<path class="st2" d="M0,0v19.6L310.9,175H350v-19.6L39.1,0L0,0L0,0z M350,0v19.6L39.1,175H0v-19.6L310.9,0H350L350,0z"/>
			<path class="st2" d="M145.8,0v175h58.3V0H145.8z M0,58.3v58.3h350V58.3H0z"/>
			<path class="st3" d="M0,70v35h350V70H0z M157.5,0v175h35V0H157.5z M0,175l116.7-58.3h26.1L26.1,175L0,175L0,175z M0,0l116.7,58.3
				H90.6L0,13V0z M207.2,58.3L323.9,0H350L233.3,58.3H207.2z M350,175l-116.7-58.3h26.1L350,162L350,175L350,175z"/>
		</g>
	</g>
</g>
</svg>
