<?xml version="1.0" encoding="utf-8"?>
<!-- Generator: Adobe Illustrator 21.0.2, SVG Export Plug-In . SVG Version: 6.00 Build 0)  -->
<svg version="1.1" id="flag-icon-css-ws" xmlns="http://www.w3.org/2000/svg" xmlns:xlink="http://www.w3.org/1999/xlink" x="0px"
	 y="0px" viewBox="0 0 640 480" style="enable-background:new 0 0 640 480;" xml:space="preserve">
<style type="text/css">
	.st0{fill:#FF0000;}
	.st1{fill:#00006B;}
	.st2{fill:#FFFFFF;}
</style>
<path class="st0" d="M0,0h640v480H0V0z"/>
<path class="st1" d="M0,0h314.4v157.2H0V0z"/>
<polygon class="st2" points="162.8,144.4 150.3,136 138.4,144.5 142.1,129.5 130.7,120.3 145.5,119.4 150.4,105.2 155.7,119.6 
	170.2,120.1 158.7,129.9 "/>
<polygon class="st2" points="160.6,44.6 150.7,38.2 140.9,44.5 143.6,32.6 134.8,24.8 146.5,23.8 150.8,12.6 155.3,23.9 166.8,24.8 
	157.9,32.8 "/>
<polygon class="st2" points="116.6,80.5 106.8,73.8 96.9,80.5 100,68.8 90.9,61.1 102.5,60.5 106.7,49 110.8,60.4 122.6,61.1 
	113.5,68.6 "/>
<polygon class="st2" points="204.9,72.5 195.6,66.5 186.6,72.5 189.2,61.5 180.8,54.4 191.7,53.5 195.6,43.1 199.8,53.6 210.5,54.2 
	202.2,61.6 "/>
<polygon class="st2" points="178.9,98.7 172.7,94.8 166.5,98.8 168.1,91.4 162.6,86.5 169.8,85.8 172.6,78.9 175.5,85.8 182.7,86.4 
	177.2,91.4 "/>
</svg>
