<svg id="Capa_1" data-name="Capa 1" xmlns="http://www.w3.org/2000/svg" viewBox="0 0 30 30"><defs><style>.cls-1,.cls-2{fill:#474747;}.cls-1{fill-rule:evenodd;}</style></defs><path class="cls-1" d="M19.14,13.34l2.53,2.52-5.28,5.25H14.33a.42.42,0,0,1-.42-.42V18.64Z"/><path class="cls-1" d="M22.11,15.4l-2.53-2.51.84-.84a.55.55,0,0,1,.77,0L23,13.79a.55.55,0,0,1,0,.78Z"/><path class="cls-1" d="M14.28,17.27H12.39a.61.61,0,0,0-.41.15L9.89,19.15l0-1.25a.65.65,0,0,0-.64-.63,1,1,0,0,1-1-1V11.2a1,1,0,0,1,1-1h8.49a1,1,0,0,1,1,1v1.25L20,11.07a2.3,2.3,0,0,0-2.29-2.18H9.22A2.32,2.32,0,0,0,6.91,11.2v5.05a2.3,2.3,0,0,0,1.68,2.22l0,2a.68.68,0,0,0,.38.58.76.76,0,0,0,.27.05A.68.68,0,0,0,9.69,21l2.93-2.43h.47Z"/><circle class="cls-2" cx="15.79" cy="13.71" r="0.86"/><circle class="cls-2" cx="13.43" cy="13.71" r="0.86"/><circle class="cls-2" cx="11.14" cy="13.71" r="0.86"/></svg>