<svg id="Capa_1" data-name="Capa 1" xmlns="http://www.w3.org/2000/svg" viewBox="0 0 30 30"><defs><style>.cls-1{fill:#474747;}</style></defs><path class="cls-1" d="M21.24,13.17a2.17,2.17,0,0,0-1.62-.72H17.34l.29-2.53a1.73,1.73,0,0,0-1-1.82,1.41,1.41,0,0,0-1.73.59l-.27.41A13.07,13.07,0,0,1,13.19,11a10.69,10.69,0,0,1-1.86,1.57l0,0H10a1.86,1.86,0,0,0-1.84,1.94l.69,5.61A1.85,1.85,0,0,0,10.66,22h8.26a2.38,2.38,0,0,0,2.38-2.15l.5-5A2.2,2.2,0,0,0,21.24,13.17ZM10.27,20l-.69-5.61a.38.38,0,0,1,.38-.38h1v6.46h-.31A.41.41,0,0,1,10.27,20Zm9.57-.36a.91.91,0,0,1-.92.83H12.43V13.57A13.78,13.78,0,0,0,14.24,12a13.66,13.66,0,0,0,1.59-2.1,1.37,1.37,0,0,0,.23-.45.32.32,0,0,1,.12.25l-.39,3.39a.78.78,0,0,0,.18.57.73.73,0,0,0,.55.25h3.1a.69.69,0,0,1,.53.23.7.7,0,0,1,.19.55Z"/></svg>