<svg id="Capa_1" data-name="Capa 1" xmlns="http://www.w3.org/2000/svg" viewBox="0 0 30 30"><defs><style>.cls-1{fill:#474747;}</style></defs><path class="cls-1" d="M11.63,13.3v7.89a.67.67,0,0,0,.67.68h7.32a1.82,1.82,0,0,0,1.82-1.65L22,14.71A1.6,1.6,0,0,0,20.4,13H17l.42-3.75c.13-.79-.89-1.73-1.57-.76a20.08,20.08,0,0,1-2,2.64,14.74,14.74,0,0,1-1.94,1.68A.65.65,0,0,0,11.63,13.3Z"/><path class="cls-1" d="M9.86,21.87h.54a.55.55,0,0,0,.55-.55V13.41a.55.55,0,0,0-.55-.55H9.16A1.12,1.12,0,0,0,8,14l.7,6.74A1.14,1.14,0,0,0,9.86,21.87Z"/></svg>