<svg id="Capa_1" data-name="Capa 1" xmlns="http://www.w3.org/2000/svg" viewBox="0 0 30 30"><defs><style>.cls-1{fill:#474747;}</style></defs><path class="cls-1" d="M21.52,11.38a.6.6,0,0,0,.6-.61V9.49a.6.6,0,0,0-.6-.6h-.21V8.48a.6.6,0,0,0-.6-.6H9.49a.6.6,0,0,0-.61.6v2.37H8.61a.75.75,0,0,0-.74.75.74.74,0,0,0,.74.75h.27v2H8.64a.75.75,0,0,0,0,1.5h.24v2H8.64a.75.75,0,0,0,0,1.5h.24v2.12a.6.6,0,0,0,.61.6H20.71a.6.6,0,0,0,.6-.6V14h.21a.6.6,0,0,0,.6-.6V12.07a.6.6,0,0,0-.6-.6h-.21v-.09Zm-1.76,9a.27.27,0,0,1-.27.26H10.7a.26.26,0,0,1-.26-.26V9.63a.27.27,0,0,1,.26-.27h8.79a.27.27,0,0,1,.27.27Z"/><path class="cls-1" d="M17.48,11.29H12.82a.65.65,0,0,0-.65.65v3.61A2.86,2.86,0,0,0,15,18.42h.24a2.87,2.87,0,0,0,2.87-2.87V11.94A.66.66,0,0,0,17.48,11.29ZM17,15.55a1.62,1.62,0,0,1-1.61,1.6V12.52h1.26a.35.35,0,0,1,.35.34Z"/></svg>