<svg id="Capa_1" data-name="Capa 1" xmlns="http://www.w3.org/2000/svg" viewBox="0 0 30 30"><defs><style>.cls-1{fill:#474747;}</style></defs><path class="cls-1" d="M23.2,15.5V10.15a1.3,1.3,0,0,0-1.3-1.3H18.65a4.37,4.37,0,0,0-3.65-2,4.3,4.3,0,0,0-3.66,2H8a1.3,1.3,0,0,0-1.3,1.3v9.67A1.3,1.3,0,0,0,8,21.12H21.9a1.3,1.3,0,0,0,1.3-1.3v-4.3h0ZM15,8.24a3,3,0,0,1,1.77.61H13.19A3,3,0,0,1,15,8.24Zm6.8,11.48H8.1V16.36a17.5,17.5,0,0,0,5.4.84v.06a.49.49,0,0,0,.49.49h2a.49.49,0,0,0,.49-.49v-.08a17.9,17.9,0,0,0,5.3-.84Zm0-4.9c-.58.3-2.05.82-5.31,1a.49.49,0,0,0-.48-.44H14a.48.48,0,0,0-.48.45c-3.31-.11-4.83-.66-5.41-1V10.25H21.8Z"/></svg>