<svg id="Capa_1" data-name="Capa 1" xmlns="http://www.w3.org/2000/svg" viewBox="0 0 30 30"><defs><style>.cls-1{fill:#474747;}</style></defs><path class="cls-1" d="M16.14,6.81h-6a.5.5,0,0,0-.5.5V22.12h1.42V8.29a.13.13,0,0,1,.13-.13h3.9a.13.13,0,0,1,.12.13V22.12h1.42V7.31A.5.5,0,0,0,16.14,6.81Z"/><path class="cls-1" d="M19.93,12.55h-4s.06,1.37,0,1.36h2.95A.13.13,0,0,1,19,14v8.1h1.42V13.05A.51.51,0,0,0,19.93,12.55Z"/><path class="cls-1" d="M12.31,10.77h1.75a.66.66,0,0,0,0-1.3H12.31a.66.66,0,0,0,0,1.3Z"/><path class="cls-1" d="M12.31,13.12h1.75a.66.66,0,0,0,0-1.3H12.31a.66.66,0,0,0,0,1.3Z"/><path class="cls-1" d="M12.31,15.54h1.75a.66.66,0,0,0,0-1.3H12.31a.66.66,0,0,0,0,1.3Z"/><path class="cls-1" d="M12.31,18.2h1.75a.66.66,0,0,0,0-1.3H12.31a.66.66,0,0,0,0,1.3Z"/><path class="cls-1" d="M17.67,18.2H18a.66.66,0,0,0,0-1.3h-.33a.66.66,0,0,0,0,1.3Z"/><path class="cls-1" d="M17.67,15.55H18a.62.62,0,0,0,.57-.65.62.62,0,0,0-.57-.65h-.33a.62.62,0,0,0-.56.65A.61.61,0,0,0,17.67,15.55Z"/><path class="cls-1" d="M9.47,23.17H20.56a.66.66,0,0,0,0-1.3H9.47a.66.66,0,0,0,0,1.3Z"/><path class="cls-1" d="M12.53,20.35l0,1.77h1.3l0-1.77a.61.61,0,0,0-.65-.56A.62.62,0,0,0,12.53,20.35Z"/><path class="cls-1" d="M17.18,20.35l0,1.77h1.3l0-1.77a.66.66,0,0,0-1.3,0Z"/></svg>