<svg id="Capa_1" data-name="Capa 1" xmlns="http://www.w3.org/2000/svg" viewBox="0 0 30 30"><defs><style>.cls-1{fill:#474747;}</style></defs><path class="cls-1" d="M21.27,13.91a1.54,1.54,0,0,0-.87-1.38V8.88a.67.67,0,0,0-.32-.56.64.64,0,0,0-.64,0l-4.62,2.5H11.71A3.1,3.1,0,0,0,11.2,17l1.28,3.79a1.59,1.59,0,0,0,3.17-.13.64.64,0,0,0,0-.2L14.46,17h.36l4.62,2.5a.55.55,0,0,0,.31.08.66.66,0,0,0,.33-.09.67.67,0,0,0,.32-.56V15.28A1.54,1.54,0,0,0,21.27,13.91Zm-11.36,0a1.81,1.81,0,0,1,1.8-1.81h2.41v3.61H11.71A1.81,1.81,0,0,1,9.91,13.91Zm3.87,6.71a.64.64,0,0,0,0-.2l-1.07-3.14h.5l1.16,3.42A.29.29,0,0,1,13.78,20.62Zm5.32-2.78-3.68-2V12l3.68-2Z"/></svg>