<svg id="Capa_1" data-name="Capa 1" xmlns="http://www.w3.org/2000/svg" viewBox="0 0 30 30"><defs><style>.cls-1{fill:#474747;}</style></defs><path class="cls-1" d="M20.92,7.87h-9a1.07,1.07,0,0,0-1.07,1.07v9.4a1.07,1.07,0,0,0,1.07,1.07H18v.74h1.33v-.74h1.56A1.07,1.07,0,0,0,22,18.34V8.94A1.07,1.07,0,0,0,20.92,7.87ZM20.59,18H12.26V9.27h8.33Z"/><rect class="cls-1" x="12.42" y="21.75" width="3.03" height="1.31"/><path class="cls-1" d="M8.79,13.27v1.08h1.33v-.77h.72V12.27h-1A1,1,0,0,0,8.79,13.27Z"/><path class="cls-1" d="M17.5,21.75h-.41v1.31h1.25a1,1,0,0,0,1-1v-.27H17.5Z"/><rect class="cls-1" x="8.79" y="15.98" width="1.33" height="3.13"/><path class="cls-1" d="M10.12,20.75H8.79v1.31a1,1,0,0,0,1,1h1V21.75h-.67Z"/></svg>