<svg id="Capa_1" data-name="Capa 1" xmlns="http://www.w3.org/2000/svg" viewBox="0 0 30 30"><defs><style>.cls-1{fill:#474747;}</style></defs><path class="cls-1" d="M14.93,7.36A7.64,7.64,0,1,0,22.57,15,7.64,7.64,0,0,0,14.93,7.36Zm6.16,6.8H19.36A7.6,7.6,0,0,0,16.44,9,6.22,6.22,0,0,1,21.09,14.16Zm-6.89-4v4H12A6.18,6.18,0,0,1,14.2,10.18Zm0,5.46v4.18a6.23,6.23,0,0,1-2.26-4.18Zm1.48,4.2v-4.2H18A6.25,6.25,0,0,1,15.68,19.84Zm0-5.68v-4a6.13,6.13,0,0,1,2.26,4ZM13.47,9a7.61,7.61,0,0,0-2.93,5.2H8.78A6.2,6.2,0,0,1,13.47,9ZM8.75,15.64h1.78A7.6,7.6,0,0,0,13.47,21,6.21,6.21,0,0,1,8.75,15.64ZM16.45,21a7.62,7.62,0,0,0,2.92-5.39h1.75A6.23,6.23,0,0,1,16.45,21Z"/></svg>