<svg id="Capa_1" data-name="Capa 1" xmlns="http://www.w3.org/2000/svg" viewBox="0 0 30 30"><defs><style>.cls-1{fill:#474747;}</style></defs><path class="cls-1" d="M22.22,8.87H7.71a.86.86,0,0,0-.87.86V20.24a.87.87,0,0,0,.87.87H22.22a.87.87,0,0,0,.86-.87V9.73A.86.86,0,0,0,22.22,8.87ZM8.58,10.4H21.34a.38.38,0,0,1,.39.39v2H8.19v-2A.39.39,0,0,1,8.58,10.4Zm12.76,9.18H8.58a.4.4,0,0,1-.39-.39v-5.1H21.73v5.1A.39.39,0,0,1,21.34,19.58Z"/><circle class="cls-1" cx="9.62" cy="11.55" r="0.71"/><path class="cls-1" d="M11.65,12.26a.72.72,0,1,0-.71-.71A.71.71,0,0,0,11.65,12.26Z"/><path class="cls-1" d="M13.56,12.26a.72.72,0,1,0-.71-.71A.71.71,0,0,0,13.56,12.26Z"/><path class="cls-1" d="M9.85,16.23H19.92a.66.66,0,0,0,0-1.3H9.85a.66.66,0,0,0,0,1.3Z"/><path class="cls-1" d="M20,17H9.92a.66.66,0,0,0,0,1.3H20A.66.66,0,0,0,20,17Z"/></svg>