<svg id="Capa_1" data-name="Capa 1" xmlns="http://www.w3.org/2000/svg" viewBox="0 0 30 30"><defs><style>.cls-1{fill:#474747;}</style></defs><path class="cls-1" d="M12.77,21.42a3.71,3.71,0,0,1-2.63-6.34l5.51-5.52a2.72,2.72,0,0,1,3.75,0,2.66,2.66,0,0,1,0,3.76l-4.91,4.91A1.59,1.59,0,0,1,12.24,16l3.55-3.56a.65.65,0,0,1,.92.92l-3.55,3.56a.28.28,0,0,0,0,.41.3.3,0,0,0,.41,0l4.91-4.92a1.36,1.36,0,0,0,0-1.92,1.38,1.38,0,0,0-1.91,0L11.06,16a2.37,2.37,0,0,0-.71,1.71,2.42,2.42,0,0,0,4.13,1.71l3.85-3.86a.65.65,0,1,1,.92.92L15.4,20.33A3.7,3.7,0,0,1,12.77,21.42Z"/></svg>