<svg id="Capa_1" data-name="Capa 1" xmlns="http://www.w3.org/2000/svg" viewBox="0 0 30 30"><defs><style>.cls-1{fill:#298bc1;}.cls-2{fill:#474747;}</style></defs><path class="cls-1" d="M15.42,16.33h0l-3.64.95h0a.76.76,0,0,0,.38,1.45h0l3.64-1h0a.71.71,0,0,0,.43-.89A.7.7,0,0,0,15.42,16.33Z"/><path class="cls-2" d="M22.62,10.36,15.85,7.49a.93.93,0,0,0-1-.42L7.58,9a1,1,0,0,0-.67,1.15l3.18,12a.93.93,0,0,0,1.14.67l3.38-.89L17.26,23a.94.94,0,0,0,1.23-.5l4.63-10.94A.94.94,0,0,0,22.62,10.36Zm-5.2,10.91a.19.19,0,0,1-.25.1L17,21.28l.51-.13Zm0-1.62-5.9,1.56a.2.2,0,0,1-.23-.14L8.49,10.45a.19.19,0,0,1,.13-.23l5.9-1.56a.18.18,0,0,1,.23.14l2.81,10.61A.19.19,0,0,1,17.43,19.65Zm4-8-2.74,6.48-.87-3.27.61.24h0a.76.76,0,0,0,.58-1.38h0l-1.65-.66-.26-1,2.27.95h0A.76.76,0,0,0,20,11.71h0l-3.32-1.39-.26-1,5,2.11A.19.19,0,0,1,21.47,11.69Z"/><path class="cls-2" d="M14.64,12.91a2.79,2.79,0,0,0-.07-.34.33.33,0,0,0-.23-.24.64.64,0,0,0-.36,0c-.15,0-.32.09-.34.2s0,.42.06.61.07.38.1.58.07.39.11.59.07.42.1.64h0l-.19-.33c-.06-.1-.13-.2-.19-.31s-.14-.21-.21-.33l-.23-.37a.31.31,0,0,0-.24-.14.89.89,0,0,0-.38.05.66.66,0,0,0-.24.11c-.08.05-.14.09-.15.13a3.68,3.68,0,0,0,0,.49c0,.15,0,.29,0,.42s0,.26,0,.38l0,.42h0l-.09-.19c0-.08-.09-.2-.16-.34s-.15-.33-.26-.56-.25-.51-.41-.86a.39.39,0,0,0-.25-.24.6.6,0,0,0-.35,0,.79.79,0,0,0-.27.15c-.21.14,0,.48,0,.65l.26.52c.09.18.18.35.28.52s.18.34.27.49l.24.39a2.58,2.58,0,0,0,.19.25.39.39,0,0,0,.31.11,1.14,1.14,0,0,0,.44-.06,1.52,1.52,0,0,0,.34-.15c.26-.16.19-.56.17-.79s0-.47,0-.71l.36.58.29.46a.35.35,0,0,0,.27.12,1.22,1.22,0,0,0,.44-.06,1.58,1.58,0,0,0,.35-.16.58.58,0,0,0,.25-.46,4.55,4.55,0,0,0,0-.61c0-.19,0-.38,0-.59s-.05-.39-.08-.58S14.67,13.05,14.64,12.91Z"/></svg>