<svg id="Capa_1" data-name="Capa 1" xmlns="http://www.w3.org/2000/svg" viewBox="0 0 30 30"><defs><style>.cls-1{fill:#474747;}</style></defs><path class="cls-1" d="M22.52,11.2,15.49,8a1.2,1.2,0,0,0-1,0l-7,3.14a1,1,0,0,0,0,1.78l7,3.25a1.22,1.22,0,0,0,1,0l7-3.2A1,1,0,0,0,22.52,11.2Zm-1.54,1L15.1,14.87a.23.23,0,0,1-.2,0L9,12.16A.12.12,0,0,1,9,12L14.9,9.33a.23.23,0,0,1,.2,0L21,12A.11.11,0,0,1,21,12.19Z"/><path class="cls-1" d="M15.12,17.7a.26.26,0,0,1-.21,0L9,15H9l-1.8-.83a1,1,0,0,0,.25,1.61l7,3.24a1.18,1.18,0,0,0,1,0l7-3.2a1,1,0,0,0,.26-1.61Z"/><path class="cls-1" d="M15.1,20.67a.23.23,0,0,1-.2,0L9,18H9l-1.81-.84a1,1,0,0,0,.26,1.62l7,3.24a1.22,1.22,0,0,0,1,0l7-3.2a1,1,0,0,0,.27-1.61Z"/></svg>