<svg id="Capa_1" data-name="Capa 1" xmlns="http://www.w3.org/2000/svg" viewBox="0 0 30 30"><defs><style>.cls-1{fill:#474747;}</style></defs><path class="cls-1" d="M22.87,12.65a9.22,9.22,0,0,0-5.28-5.53.65.65,0,0,0-.69.14L9.15,14.67a.64.64,0,0,0-.2.4l-.6,5.48a.67.67,0,0,0,.18.52.63.63,0,0,0,.47.2H9l5.51-.35a.64.64,0,0,0,.41-.18l7.75-7.41A.65.65,0,0,0,22.87,12.65Zm-13,6.26a3.3,3.3,0,0,1,.91.95l-1,.06Zm4.39.73-2.06.13-.05-.12a4.57,4.57,0,0,0-2-2.1h0l-.14.28.26-2.38.63-.61,4,4.2Zm1.58-1.51-.58-.6,4.38-4.18a.66.66,0,0,0,0-.92.65.65,0,0,0-.92,0l-4.37,4.18-1.09-1.14,4.37-4.18a.65.65,0,1,0-.9-.94l-4.37,4.18-.56-.58,5.69-5.44a7.93,7.93,0,0,1,4,4.2Z"/></svg>