<svg id="Capa_1" data-name="Capa 1" xmlns="http://www.w3.org/2000/svg" viewBox="0 0 30 30"><defs><style>.cls-1{fill:#474747;fill-rule:evenodd;}</style></defs><path class="cls-1" d="M15.07,12.44a.8.8,0,1,0,.8.79A.79.79,0,0,0,15.07,12.44Z"/><path class="cls-1" d="M12.88,12.44a.8.8,0,1,0,.8.79A.79.79,0,0,0,12.88,12.44Z"/><path class="cls-1" d="M10.75,12.44a.8.8,0,1,0,.8.79A.79.79,0,0,0,10.75,12.44Z"/><path class="cls-1" d="M21.83,14H19V10.9a2.14,2.14,0,0,0-2.14-2.14H9A2.14,2.14,0,0,0,6.82,10.9v4.7a2.14,2.14,0,0,0,1.56,2.06l0,1.89a.58.58,0,0,0,.35.53.53.53,0,0,0,.25.05A.58.58,0,0,0,9.4,20l2.73-2.26h3.43v.54a1.34,1.34,0,0,0,1.34,1.34h3L21.56,21a.41.41,0,0,0,.24.08.37.37,0,0,0,.15,0,.37.37,0,0,0,.22-.33l0-1.19a1.33,1.33,0,0,0,1-1.28V15.34A1.34,1.34,0,0,0,21.83,14Zm-6.27,1.33v1.2H11.91a.59.59,0,0,0-.38.14L9.59,18.29l0-1.16a.59.59,0,0,0-.6-.59A.94.94,0,0,1,8,15.6V10.9A1,1,0,0,1,9,10h7.9a1,1,0,0,1,.94,1V14h-.9A1.34,1.34,0,0,0,15.56,15.34Zm2.36,1.94a.49.49,0,0,1-.49-.5.5.5,0,1,1,.49.5Zm1.33,0a.5.5,0,0,1-.5-.5.51.51,0,0,1,.5-.5.5.5,0,0,1,.5.5A.5.5,0,0,1,19.25,17.28Zm1.37,0a.5.5,0,0,1-.5-.5.5.5,0,0,1,.5-.5.51.51,0,0,1,.5.5A.5.5,0,0,1,20.62,17.28Z"/></svg>