<svg id="Capa_1" data-name="Capa 1" xmlns="http://www.w3.org/2000/svg" viewBox="0 0 30 30"><defs><style>.cls-1{fill:#474747;}</style></defs><path class="cls-1" d="M20.85,11.1H9.31a.65.65,0,1,1,0-1.3H20.85a.65.65,0,1,1,0,1.3Z"/><path class="cls-1" d="M20.85,20.11H9.31a.65.65,0,0,1,0-1.3H20.85a.65.65,0,1,1,0,1.3Z"/><path class="cls-1" d="M20.85,15.52H9.31a.65.65,0,1,1,0-1.29H20.85a.65.65,0,1,1,0,1.29Z"/><circle class="cls-1" cx="10.62" cy="14.87" r="1.35"/><circle class="cls-1" cx="19.62" cy="10.35" r="1.35"/><circle class="cls-1" cx="19.62" cy="19.46" r="1.35"/></svg>