<svg id="Capa_1" data-name="Capa 1" xmlns="http://www.w3.org/2000/svg" viewBox="0 0 30 30"><defs><style>.cls-1{fill:#474747;}</style></defs><path class="cls-1" d="M21.94,17.38a.83.83,0,0,0-.6-.2.81.81,0,0,0-.57.29c-1.15,1.34-2.88,2.8-3.65,2.83-.1,0-.12,0-.13,0-.51-.52,1.14-2.63,2.13-3.88,1.46-1.87,2.84-3.62,2.64-5.15a2.09,2.09,0,0,0-.88-1.44c-1.85-1.36-4,1.27-6.3,4.07-1.29,1.57-3.06,3.72-3.88,3.77a.12.12,0,0,1-.11-.05c-.52-.51.75-2.25,1.68-3.52,1.47-2,3-4.06,1.52-5.52A1.81,1.81,0,0,0,12.38,8,4.32,4.32,0,0,0,9.84,9.62a.83.83,0,0,0,1.3,1,2.87,2.87,0,0,1,1.33-1s.08,0,.14.06c.45.45-.88,2.27-1.68,3.36-1.51,2.05-3.06,4.18-1.51,5.69a1.73,1.73,0,0,0,1.37.52c1.55-.08,3.18-2.07,5.08-4.38.94-1.15,3.45-4.2,4-3.78a.44.44,0,0,1,.21.32c.12.83-1.22,2.53-2.29,3.9-1.74,2.21-3.55,4.51-2,6.07a1.77,1.77,0,0,0,1.3.54h.07c1.94-.07,4.57-3.07,4.86-3.42a.79.79,0,0,0,.2-.6A.83.83,0,0,0,21.94,17.38Z"/><circle class="cls-1" cx="8.68" cy="11.35" r="0.91"/></svg>