<svg id="Capa_1" data-name="Capa 1" xmlns="http://www.w3.org/2000/svg" viewBox="0 0 30 30"><defs><style>.cls-1{fill:#474747;}</style></defs><path class="cls-1" d="M22.86,16V14.7a7.86,7.86,0,0,0-15.72,0V16a.42.42,0,0,0-.28.39v2.16a.41.41,0,0,0,.41.41H8.34a.37.37,0,0,0,.27-.11,2.92,2.92,0,0,0,2.1,1.43.38.38,0,0,0,.46-.36V15.15a.38.38,0,0,0-.46-.36,2.89,2.89,0,0,0-2.05,1.33.4.4,0,0,0-.12-.1V14.7a6.46,6.46,0,0,1,12.92,0V16a.46.46,0,0,0-.17.09,2.93,2.93,0,0,0-2-1.28.38.38,0,0,0-.45.36V19.9a.37.37,0,0,0,.41.36,1.6,1.6,0,0,1-.48.71,2.85,2.85,0,0,1-1.84.51,1.19,1.19,0,1,0-1.06,1.72,1.21,1.21,0,0,0,.82-.33H17A4.1,4.1,0,0,0,19.64,22a3.3,3.3,0,0,0,1.12-2.47,2.62,2.62,0,0,0,.59-.7.41.41,0,0,0,.22.07h1.08a.41.41,0,0,0,.41-.41V16.37A.41.41,0,0,0,22.86,16Z"/><path class="cls-1" d="M12.36,15.53a.65.65,0,0,0-.65.65V19A.65.65,0,0,0,13,19v-2.8A.65.65,0,0,0,12.36,15.53Z"/><path class="cls-1" d="M18.29,19v-2.8a.65.65,0,1,0-1.3,0V19a.65.65,0,0,0,1.3,0Z"/></svg>