<svg id="Capa_1" data-name="Capa 1" xmlns="http://www.w3.org/2000/svg" viewBox="0 0 30 30"><defs><style>.cls-1{fill:#474747;fill-rule:evenodd;}</style></defs><path class="cls-1" d="M12.42,17.3a.63.63,0,0,0-.41.15L9.92,19.18l0-1.25a.65.65,0,0,0-.65-.63,1,1,0,0,1-1-1V11.23a1,1,0,0,1,1-1h8.49a1,1,0,0,1,1,1V12L20,12.1l0-1a2.3,2.3,0,0,0-2.3-2.18H9.25A2.3,2.3,0,0,0,7,11.23v5.06A2.29,2.29,0,0,0,8.62,18.5l.05,2a.64.64,0,0,0,.37.57.66.66,0,0,0,.27.06A.61.61,0,0,0,9.72,21l2.94-2.43h1.75l-.58-1.29Z"/><path class="cls-1" d="M18.85,12.57a4.25,4.25,0,0,0-2.48.81.79.79,0,0,0-1.57.17.78.78,0,0,0,.63.76,4.26,4.26,0,1,0,3.42-1.74Zm0,7.25a3,3,0,1,1,3-3A3,3,0,0,1,18.85,19.82Z"/><path class="cls-1" d="M18.85,14.94a1.42,1.42,0,0,0-.36,0,.84.84,0,0,1,.18.52.89.89,0,0,1-1.57.58,2,2,0,0,0-.16.77,1.91,1.91,0,1,0,1.91-1.91Z"/><path class="cls-1" d="M12.61,13.55a.8.8,0,1,0,.8-.8A.8.8,0,0,0,12.61,13.55Z"/><path class="cls-1" d="M10.48,13.55a.8.8,0,1,0,.8-.8A.8.8,0,0,0,10.48,13.55Z"/></svg>