<svg id="Capa_1" data-name="Capa 1" xmlns="http://www.w3.org/2000/svg" viewBox="0 0 30 30"><defs><style>.cls-1{fill:#474747;fill-rule:evenodd;}</style></defs><path class="cls-1" d="M18.88,14.61c-2.42,0-4.38,1.45-4.38,3.24,0,0,0,.09,0,.13h1.53c0-1.15,1.27-2.09,2.83-2.09s2.83.94,2.83,2.09h1.53s0-.09,0-.13C23.26,16.06,21.3,14.61,18.88,14.61Z"/><path class="cls-1" d="M12.42,17.3a.63.63,0,0,0-.41.15L9.92,19.18l0-1.25a.65.65,0,0,0-.65-.63,1,1,0,0,1-1-1V11.23a1,1,0,0,1,1-1h8.49a1,1,0,0,1,1,1v3H20l0-3.11a2.3,2.3,0,0,0-2.3-2.18H9.25A2.3,2.3,0,0,0,7,11.23v5.06A2.29,2.29,0,0,0,8.62,18.5l.05,2a.64.64,0,0,0,.37.57.66.66,0,0,0,.27.06A.61.61,0,0,0,9.72,21l2.94-2.43H13.8l0-1.29Z"/><path class="cls-1" d="M18.85,16.54a1.42,1.42,0,0,0-.36,0,.84.84,0,0,1,.18.52.9.9,0,0,1-.9.9.92.92,0,0,1-.67-.31,1.91,1.91,0,1,0,1.75-1.15Z"/><path class="cls-1" d="M12.61,14.21a.8.8,0,1,0,.8-.8A.8.8,0,0,0,12.61,14.21Z"/><path class="cls-1" d="M10.48,14.21a.8.8,0,1,0,.8-.8A.8.8,0,0,0,10.48,14.21Z"/><path class="cls-1" d="M14.84,14.21a.8.8,0,1,0,.8-.8A.8.8,0,0,0,14.84,14.21Z"/></svg>