<svg id="Capa_1" data-name="Capa 1" xmlns="http://www.w3.org/2000/svg" viewBox="0 0 30 30"><defs><style>.cls-1{fill:#474747;}</style></defs><path class="cls-1" d="M21.12,7.84H8.84a1,1,0,0,0-1,1V21.17a1,1,0,0,0,1,1H21.12a1,1,0,0,0,1-1V8.83A1,1,0,0,0,21.12,7.84ZM9.6,9.32H20.36a.29.29,0,0,1,.28.28v9.1l-2.53-2.52a.51.51,0,0,0-.72,0L15,18.58,13.7,17.3a1,1,0,0,0-1.4,0l-3,3V9.6A.28.28,0,0,1,9.6,9.32Zm3.31,11.35H11l1.78-1.78a.27.27,0,0,1,.39,0l.74.74-1,1Z"/><path class="cls-1" d="M11.78,13.37a1,1,0,1,0-1-1A1,1,0,0,0,11.78,13.37Z"/></svg>