<svg id="Capa_1" data-name="Capa 1" xmlns="http://www.w3.org/2000/svg" viewBox="0 0 30 30"><defs><style>.cls-1{fill:none;}.cls-2{fill:#474747;}</style></defs><path class="cls-1" d="M18.69,9.81a.4.4,0,0,0-.4-.4H9.52a.39.39,0,0,0-.39.4v8.77a.38.38,0,0,0,.39.39h1.62V12.19a1,1,0,0,1,1-1h6.5Z"/><path class="cls-2" d="M21,11.14H20V9.81a1.7,1.7,0,0,0-1.7-1.7H9.52a1.7,1.7,0,0,0-1.69,1.7v8.77a1.69,1.69,0,0,0,1.69,1.69h1.62V21a1,1,0,0,0,1,1.05H21A1,1,0,0,0,22,21V12.19A1,1,0,0,0,21,11.14Zm-9.81,1V19H9.52a.38.38,0,0,1-.39-.39V9.81a.39.39,0,0,1,.39-.4h8.77a.4.4,0,0,1,.4.4v1.33h-6.5A1,1,0,0,0,11.14,12.19Zm8.54,3L16,18.66a.51.51,0,0,1-.67,0l-1.84-1.6a.5.5,0,0,1,.65-.76l1.51,1.31L19,14.48a.49.49,0,0,1,.7,0A.5.5,0,0,1,19.68,15.21Z"/></svg>