<svg id="Capa_1" data-name="Capa 1" xmlns="http://www.w3.org/2000/svg" viewBox="0 0 30 30"><defs><style>.cls-1{fill:#474747;}</style></defs><path class="cls-1" d="M15.35,21v1.74a.36.36,0,0,0,.36.36h1.74l4.45-4.43-2.13-2.13Z"/><path class="cls-1" d="M23,16.94l-1.49-1.47a.46.46,0,0,0-.65,0l-.71.71,2.14,2.11.71-.7A.46.46,0,0,0,23,16.94Z"/><path class="cls-1" d="M17.52,10.83h-6a.72.72,0,0,0-.78.65.72.72,0,0,0,.78.65h6a.73.73,0,0,0,.79-.65A.73.73,0,0,0,17.52,10.83Z"/><path class="cls-1" d="M15.63,14.83a.65.65,0,0,0,0-1.29H11.28a.65.65,0,0,0,0,1.29Z"/><path class="cls-1" d="M17.58,14.83a.65.65,0,0,0,0-1.29h-.45a.65.65,0,0,0,0,1.29Z"/><path class="cls-1" d="M11.49,17.54h5.9a.66.66,0,1,0,0-1.3h-5.9a.66.66,0,1,0,0,1.3Z"/><path class="cls-1" d="M14.73,18.52H11.49a.66.66,0,1,0,0,1.3h3.24a.66.66,0,1,0,0-1.3Z"/><path class="cls-1" d="M10.16,21.8V9.6l8.49,0v1.21l0,5.83,1.26-1.24V9.06a.66.66,0,0,0-.66-.65l-1.6,0V7.63A.75.75,0,0,0,17,6.87H11.76a.65.65,0,0,0-.65.65v.8l-1.6,0A.65.65,0,0,0,8.86,9v13.5a.65.65,0,0,0,.65.65h4.87a.1.1,0,0,0,.11-.11v-1.1c0-.05,0-.08-.1-.08ZM12.41,8.17l4,0v.24l-4-.05Z"/></svg>