<svg id="Capa_1" data-name="Capa 1" xmlns="http://www.w3.org/2000/svg" viewBox="0 0 30 30"><defs><style>.cls-1{fill:#474747;}</style></defs><path class="cls-1" d="M21.41,18.44H20.1V8.34a.66.66,0,0,0-.65-.65H10.38a.66.66,0,0,0-.65.65V19.13A2.87,2.87,0,0,0,12.4,22l.11,0h6.62a2.93,2.93,0,0,0,2.93-2.92A.65.65,0,0,0,21.41,18.44Zm-7.28.65a1.62,1.62,0,0,1-1.57,1.62A1.59,1.59,0,0,1,11,19.13V9H18.8v9.45h-4A.65.65,0,0,0,14.13,19.09Zm5,1.62H14.94a3,3,0,0,0,.42-1h5.26A1.62,1.62,0,0,1,19.13,20.71Z"/><path class="cls-1" d="M12.32,11.9h5a.65.65,0,0,0,0-1.3h-5a.65.65,0,0,0,0,1.3Z"/><path class="cls-1" d="M17.33,13.31h-5a.65.65,0,1,0,0,1.3h5a.65.65,0,0,0,0-1.3Z"/><path class="cls-1" d="M17.33,16h-5a.65.65,0,1,0,0,1.3h5a.65.65,0,1,0,0-1.3Z"/></svg>