<svg id="Capa_1" data-name="Capa 1" xmlns="http://www.w3.org/2000/svg" viewBox="0 0 30 30"><defs><style>.cls-1{fill:#474747;}</style></defs><path class="cls-1" d="M20.44,10.66h-.75l-.35-1.54a.57.57,0,0,0-.55-.44H14.26a.56.56,0,0,0-.53.38l-.54,1.6H12.08l-.28-.91H9.72l-.29.92A1.61,1.61,0,0,0,8,12.27V19.7a1.62,1.62,0,0,0,1.61,1.62H20.44a1.62,1.62,0,0,0,1.61-1.62V12.27A1.61,1.61,0,0,0,20.44,10.66Zm-5.77-.85h3.67l.2.85H14.38Zm6.26,9.89a.49.49,0,0,1-.49.49H9.56a.49.49,0,0,1-.49-.49V12.27a.49.49,0,0,1,.49-.49H20.44a.49.49,0,0,1,.49.49Z"/><path class="cls-1" d="M15.16,12.41a3.78,3.78,0,1,0,3.77,3.77A3.78,3.78,0,0,0,15.16,12.41Zm0,6.42a2.65,2.65,0,1,1,2.64-2.65A2.65,2.65,0,0,1,15.16,18.83Z"/><path class="cls-1" d="M15.16,14.36A1.83,1.83,0,1,0,17,16.18,1.83,1.83,0,0,0,15.16,14.36Zm0,2.53a.71.71,0,1,1,.7-.71A.71.71,0,0,1,15.16,16.89Z"/><path class="cls-1" d="M19,12.55a.6.6,0,1,0,.59.6A.59.59,0,0,0,19,12.55Z"/></svg>