<svg id="Capa_1" data-name="Capa 1" xmlns="http://www.w3.org/2000/svg" viewBox="0 0 30 30"><defs><style>.cls-1{fill:#474747;}</style></defs><path class="cls-1" d="M14.53,18.79h.64l.78-.05c2.33-.22,4.06-1.12,4.06-2.19,0-.73-.78-1.37-2-1.78V10.53c1.22-.35,2-.92,2-1.55,0-1.08-2.31-2-5.16-2S9.68,7.9,9.68,9c0,.62.75,1.17,1.91,1.53V14.8c-1.16.41-1.91,1-1.91,1.75,0,1.08,1.75,2,4.09,2.2Z"/><path class="cls-1" d="M15,23.17a.65.65,0,0,1-.63-.47l-1.9-6.52a.64.64,0,0,1,.62-.83h3.61a.67.67,0,0,1,.52.25.66.66,0,0,1,.11.56l-1.7,6.52a.65.65,0,0,1-.62.49Zm-1-6.52,1,3.43.9-3.43Z"/></svg>