<svg id="Capa_1" data-name="Capa 1" xmlns="http://www.w3.org/2000/svg" viewBox="0 0 30 30"><defs><style>.cls-1{fill:#474747;}.cls-2{fill:none;stroke:#474747;stroke-linecap:round;stroke-linejoin:round;stroke-width:1.3px;}</style></defs><path class="cls-1" d="M14.55,18.77h.64l.79-.05C18.3,18.5,20,17.6,20,16.53c0-.73-.79-1.37-2-1.78V10.51c1.22-.35,2-.92,2-1.55,0-1.08-2.32-2-5.17-2S9.7,7.88,9.7,9c0,.62.75,1.17,1.91,1.53v4.29c-1.16.41-1.91,1-1.91,1.75,0,1.08,1.75,2,4.09,2.2Z"/><polygon class="cls-2" points="14.97 22.5 13.06 15.98 16.67 15.98 14.97 22.5"/></svg>