<svg id="Capa_1" data-name="Capa 1" xmlns="http://www.w3.org/2000/svg" viewBox="0 0 30 30"><defs><style>.cls-1{fill:#474747;}</style></defs><path class="cls-1" d="M17,17.76l2.89-3c1.3.68,2.32.74,2.88.16,1.11-1.15-.47-3.68-2.4-5.53S15.88,6,14.77,7.19c-.53.56-.46,1.5.17,2.69L12,13c-1.1-.53-2.1-.66-2.68-.05-1,1,.11,3.05,1.68,4.78L9.43,19.66a.63.63,0,0,0,.9.87l1.87-1.59c1.85,1.61,4.09,2.75,5.1,1.7C17.92,20,17.69,18.91,17,17.76Zm-.9-7.34a.62.62,0,0,0,.11-.78c-.63-1-.6-1.52-.57-1.58.26-.16,1.83.27,3.86,2.22s2.52,3.5,2.37,3.76c-.07,0-.6.09-1.72-.57a.63.63,0,0,0-.3-.07.59.59,0,0,0-.56.17l-3,3.13a15.1,15.1,0,0,0-1.42-1.59,13.88,13.88,0,0,0-1.82-1.48l3-3.16Zm-3,7.69.31-.26.15-.15a1.06,1.06,0,0,0-.18-1.47,1,1,0,0,0-1.47.18l-.24.3C10.39,15.17,10,14,10.17,13.8S12,14.06,14,16s2.52,3.49,2.37,3.76S14.88,19.57,13.17,18.11Z"/></svg>