<svg id="Capa_1" data-name="Capa 1" xmlns="http://www.w3.org/2000/svg" viewBox="0 0 30 30"><defs><style>.cls-1{fill:#e8a725;}.cls-2{fill:#474747;}</style></defs><path class="cls-1" d="M15.49,16.22h0l-3.63,1h0a.76.76,0,0,0,.38,1.45h0l3.64-1h0a.76.76,0,0,0-.38-1.45Z"/><path class="cls-2" d="M13.53,11.72a2.2,2.2,0,0,0-1.43,0c-.18.05-.36.12-.54.19a3.14,3.14,0,0,0-.45.26.51.51,0,0,0-.16.17.3.3,0,0,0,0,.23l.88,3c.13.46.64.37.74.34s.47-.26.36-.63l-.21-.73.44-.13a2.38,2.38,0,0,0,.64-.3,1.22,1.22,0,0,0,.4-.42,1,1,0,0,0,.16-.51,1.47,1.47,0,0,0-.06-.58A1.3,1.3,0,0,0,13.53,11.72Zm-.39,1.61a.67.67,0,0,1-.36.25l-.34.1-.28-1a.31.31,0,0,1,.13-.06l.16-.05a.63.63,0,0,1,.47,0,.44.44,0,0,1,.25.32A.47.47,0,0,1,13.14,13.33Z"/><path class="cls-2" d="M22.62,10.36,15.85,7.49a.93.93,0,0,0-1-.42L7.58,9a1,1,0,0,0-.67,1.15l3.18,12a.93.93,0,0,0,1.14.67l3.38-.89L17.26,23a.94.94,0,0,0,1.23-.5l4.63-10.94A.94.94,0,0,0,22.62,10.36Zm-5.2,10.91a.19.19,0,0,1-.25.1L17,21.28l.51-.13Zm0-1.62-5.9,1.56a.2.2,0,0,1-.23-.14L8.49,10.45a.19.19,0,0,1,.13-.23l5.9-1.56a.18.18,0,0,1,.23.14l2.81,10.61A.19.19,0,0,1,17.43,19.65Zm4-8-2.74,6.48-.47-1.77a3.1,3.1,0,0,0,1.46-2,.17.17,0,0,0-.13-.21l-2-.45-.1-.35,0,0,1.92.38a.21.21,0,0,0,.25-.17A2.43,2.43,0,0,0,19,11.71a.33.33,0,0,0-.48,0l-1.13,1.34h0l-.12-.46,1.16-1.33a.22.22,0,0,0,0-.32,3.09,3.09,0,0,0-1.7-.51l-.3-1.14,5,2.11A.19.19,0,0,1,21.47,11.69Z"/></svg>