<svg id="Capa_1" data-name="Capa 1" xmlns="http://www.w3.org/2000/svg" viewBox="0 0 30 30"><defs><style>.cls-1{fill:#474747;}</style></defs><path class="cls-1" d="M11.63,16.68V8.78a.67.67,0,0,1,.67-.67h7.32a1.82,1.82,0,0,1,1.82,1.65L22,15.27A1.6,1.6,0,0,1,20.4,17H17l.42,3.75c.13.79-.89,1.73-1.57.76a19.44,19.44,0,0,0-2-2.64,14.74,14.74,0,0,0-1.94-1.68A.65.65,0,0,1,11.63,16.68Z"/><path class="cls-1" d="M9.86,8.11h.54a.55.55,0,0,1,.55.55v7.91a.55.55,0,0,1-.55.55H9.16A1.12,1.12,0,0,1,8,16l.7-6.75A1.14,1.14,0,0,1,9.86,8.11Z"/></svg>