<svg id="Capa_1" data-name="Capa 1" xmlns="http://www.w3.org/2000/svg" viewBox="0 0 30 30"><defs><style>.cls-1{fill:#474747;}</style></defs><path class="cls-1" d="M21.8,15.13l-.5-5A2.38,2.38,0,0,0,18.92,8H10.66A1.85,1.85,0,0,0,8.81,9.85l-.69,5.61A1.86,1.86,0,0,0,10,17.4H11.3l0,0A10.69,10.69,0,0,1,13.19,19a13.07,13.07,0,0,1,1.42,1.88l.27.41a1.39,1.39,0,0,0,1.73.58,1.71,1.71,0,0,0,1-1.81l-.29-2.53h2.28a2.17,2.17,0,0,0,1.62-.72A2.2,2.2,0,0,0,21.8,15.13ZM10.66,9.47H11v6.46H10a.38.38,0,0,1-.38-.38l.69-5.61A.41.41,0,0,1,10.66,9.47Zm9.68,5.8a.73.73,0,0,1-.19.56.69.69,0,0,1-.53.23h-3.1a.73.73,0,0,0-.55.25.77.77,0,0,0-.18.57l.39,3.38a.32.32,0,0,1-.12.26,1.37,1.37,0,0,0-.23-.45A13.66,13.66,0,0,0,14.24,18a14.07,14.07,0,0,0-1.81-1.57V9.47h6.49a.91.91,0,0,1,.92.82Z"/></svg>