<svg id="Capa_1" data-name="Capa 1" xmlns="http://www.w3.org/2000/svg" viewBox="0 0 30 30"><defs><style>.cls-1{fill:#474747;}</style></defs><path class="cls-1" d="M21.4,15.9H21V14.45a2,2,0,1,0-4.05,0V15.9h-.38a.66.66,0,0,0-.65.65v3.88a.65.65,0,0,0,.65.65H21.4a.65.65,0,0,0,.65-.65V16.55A.66.66,0,0,0,21.4,15.9Zm-3.13-1.45a.73.73,0,1,1,1.45,0V15.9H18.27Zm2.48,5.33H17.24V17.2h3.51Z"/><path class="cls-1" d="M13,7.91a3,3,0,0,0-3.15,3V12a3,3,0,0,0,1.89,2.78,6.29,6.29,0,0,0-4.83,5.5H7s0,.06,0,.08a.76.76,0,0,0,.73.77A.63.63,0,0,0,8,21.08h6.81a.65.65,0,1,0,0-1.3H8.54A4.68,4.68,0,0,1,13,16.21a4.47,4.47,0,0,1,1.64.31.74.74,0,0,0,1-.42.76.76,0,0,0-.41-1,5.92,5.92,0,0,0-1.18-.34A3,3,0,0,0,15.86,12v-1A3.11,3.11,0,0,0,13,7.91Zm1.76,4a1.92,1.92,0,1,1-3.84,0V11.2a1.92,1.92,0,1,1,3.84,0Z"/></svg>