<svg id="Capa_1" data-name="Capa 1" xmlns="http://www.w3.org/2000/svg" viewBox="0 0 30 30"><defs><style>.cls-1{fill:#474747;}</style></defs><path class="cls-1" d="M20,7.85H10A2.05,2.05,0,0,0,7.92,9.9V20a2.05,2.05,0,0,0,2.05,2H20A2.05,2.05,0,0,0,22,20V9.9A2.05,2.05,0,0,0,20,7.85Zm-8.42,1.3h6.86v2.77a.75.75,0,0,1-.75.75H12.28a.75.75,0,0,1-.75-.75ZM20.7,20a.76.76,0,0,1-.75.75H10A.75.75,0,0,1,9.22,20V9.9A.75.75,0,0,1,10,9.15h.26v2.77a2.05,2.05,0,0,0,2,2.05h5.36a2.05,2.05,0,0,0,2.05-2.05V9.15H20a.76.76,0,0,1,.75.75Z"/><path class="cls-1" d="M17.05,12.21a.65.65,0,0,0,.65-.65V10.44a.65.65,0,0,0-1.3,0v1.12A.65.65,0,0,0,17.05,12.21Z"/></svg>