<svg id="Capa_1" data-name="Capa 1" xmlns="http://www.w3.org/2000/svg" viewBox="0 0 30 30"><defs><style>.cls-1{fill:#474747;fill-rule:evenodd;}</style></defs><path class="cls-1" d="M8.87,7.61h0v5a.86.86,0,0,0,.86.86H20.26a.86.86,0,0,0,.86-.86v-5h0a.7.7,0,0,0-1.4,0h0v4.26a.23.23,0,0,1-.23.23h-9a.23.23,0,0,1-.23-.23V7.6h0a.7.7,0,0,0-1.39,0h0Z"/><path class="cls-1" d="M21.12,22.41V20.46h0a.69.69,0,0,0-.19-.46h0l-3.63-3.63a.9.9,0,0,0-.63-.25H9.73a.87.87,0,0,0-.86.86v5.48h0a.7.7,0,0,0,1.4,0h0V17.64a.17.17,0,0,1,.16-.17h5.21v3.15a.86.86,0,0,0,.86.86h3.23v.94h0a.7.7,0,0,0,.69.69.71.71,0,0,0,.7-.69h0ZM17,20V18.06l2.12,2.11H17.21A.17.17,0,0,1,17,20Z"/></svg>