<svg id="Capa_1" data-name="Capa 1" xmlns="http://www.w3.org/2000/svg" viewBox="0 0 30 30"><defs><style>.cls-1{fill:#474747;}</style></defs><path class="cls-1" d="M22.57,16.15,21.74,16a2.75,2.75,0,0,0-.15-.36L22.1,15a.5.5,0,0,0,0-.65l-.92-.92a.49.49,0,0,0-.64,0l-.67.51a2.75,2.75,0,0,0-.36-.15l-.11-.83a.5.5,0,0,0-.49-.43h-1.3a.49.49,0,0,0-.48.43l-.12.83-.36.15L16,13.4a.5.5,0,0,0-.65,0l-.92.92a.5.5,0,0,0,0,.65l.51.66a2.75,2.75,0,0,0-.15.36l-.83.12a.49.49,0,0,0-.43.48v1.3a.5.5,0,0,0,.43.49l.83.11a2.75,2.75,0,0,0,.15.36l-.51.67a.49.49,0,0,0,0,.64l.92.92a.5.5,0,0,0,.65,0l.66-.5.36.14.12.84a.49.49,0,0,0,.48.42h1.3a.5.5,0,0,0,.49-.42l.11-.84.36-.14.67.5a.49.49,0,0,0,.64,0l.92-.92a.49.49,0,0,0,0-.64l-.51-.67a2.75,2.75,0,0,0,.15-.36l.83-.11a.5.5,0,0,0,.43-.49v-1.3A.49.49,0,0,0,22.57,16.15ZM22,17.5l-.72.1a.49.49,0,0,0-.41.36,3.12,3.12,0,0,1-.3.73.48.48,0,0,0,0,.54l.44.58-.31.31-.58-.44a.5.5,0,0,0-.55,0,2.88,2.88,0,0,1-.72.3.49.49,0,0,0-.36.41l-.1.72H18l-.1-.72a.48.48,0,0,0-.36-.41,2.88,2.88,0,0,1-.72-.3.5.5,0,0,0-.55,0l-.58.44-.31-.31.44-.58a.5.5,0,0,0,0-.55,3,3,0,0,1-.3-.71.49.49,0,0,0-.41-.37l-.71-.1v-.44l.71-.1a.48.48,0,0,0,.41-.36,2.88,2.88,0,0,1,.3-.72.5.5,0,0,0,0-.55l-.44-.58.31-.31.58.44a.5.5,0,0,0,.55,0,2.88,2.88,0,0,1,.72-.3.48.48,0,0,0,.36-.41l.1-.71h.44l.1.71a.49.49,0,0,0,.36.41,2.88,2.88,0,0,1,.72.3.5.5,0,0,0,.55,0l.58-.44.31.31-.44.58a.5.5,0,0,0,0,.55,3,3,0,0,1,.3.72.48.48,0,0,0,.41.36l.72.1Z"/><path class="cls-1" d="M18.22,15.17a2.11,2.11,0,1,0,2.11,2.11A2.12,2.12,0,0,0,18.22,15.17Zm0,3.24a1.13,1.13,0,1,1,1.13-1.13A1.14,1.14,0,0,1,18.22,18.41Z"/><path class="cls-1" d="M13.73,14.42,13.39,14l.06-.15.55-.08a.49.49,0,0,0,.43-.48v-1a.49.49,0,0,0-.43-.48l-.55-.08-.06-.14.34-.45a.49.49,0,0,0-.05-.64L13,9.81a.49.49,0,0,0-.64,0l-.44.34-.15-.06-.08-.56a.49.49,0,0,0-.48-.42h-1a.5.5,0,0,0-.49.42L9.67,10l-.15.07-.45-.34a.49.49,0,0,0-.64,0l-.69.69a.49.49,0,0,0,0,.64l.34.45L8,11.73l-.56.08a.49.49,0,0,0-.42.48v1a.49.49,0,0,0,.42.48l.56.08L8,14l-.34.44a.49.49,0,0,0,0,.64l.69.69a.49.49,0,0,0,.64,0l.45-.34.15.07.07.55a.5.5,0,0,0,.49.42h1a.49.49,0,0,0,.48-.42l.08-.55.15-.07.44.34a.49.49,0,0,0,.64,0l.69-.69A.49.49,0,0,0,13.73,14.42Zm-1.12-1.15a2.28,2.28,0,0,1-.21.51.47.47,0,0,0,0,.54l.27.35-.09.09-.36-.27a.48.48,0,0,0-.54,0,1.92,1.92,0,0,1-.51.22.46.46,0,0,0-.36.4l-.06.44h-.13l-.06-.44a.47.47,0,0,0-.36-.4,1.92,1.92,0,0,1-.51-.22.5.5,0,0,0-.55,0l-.35.27-.09-.09L9,14.32a.48.48,0,0,0,0-.54,1.89,1.89,0,0,1-.21-.51.49.49,0,0,0-.41-.37L8,12.84v-.12l.44-.06a.49.49,0,0,0,.41-.36A1.83,1.83,0,0,1,9,11.78a.48.48,0,0,0,0-.54l-.27-.35.09-.09.35.27a.5.5,0,0,0,.55,0,1.62,1.62,0,0,1,.51-.21.49.49,0,0,0,.36-.41l.06-.44h.13l.06.44a.48.48,0,0,0,.36.41,1.62,1.62,0,0,1,.51.21.48.48,0,0,0,.54,0l.36-.27.09.09-.27.35a.47.47,0,0,0,0,.54,2.49,2.49,0,0,1,.21.51.49.49,0,0,0,.4.37l.44.06v.12L13,12.9A.49.49,0,0,0,12.61,13.27Z"/><path class="cls-1" d="M10.71,11.08a1.71,1.71,0,0,0,0,3.41,1.71,1.71,0,1,0,0-3.41Zm0,2.43a.73.73,0,1,1,.73-.73A.73.73,0,0,1,10.71,13.51Z"/></svg>