<?xml version="1.0" encoding="UTF-8"?>
<svg width="18px" height="17px" viewBox="0 0 18 17" version="1.1" xmlns="http://www.w3.org/2000/svg" xmlns:xlink="http://www.w3.org/1999/xlink">
    <title>Mask</title>
    <defs>
        <path d="M474.88516,867.110101 L485.103347,867.159787 C485.589961,867.162363 485.982494,867.576043 485.980039,868.08431 C485.977561,868.591105 485.583971,869 485.099119,869 L485.094891,869 L474.876703,868.950314 C474.390089,868.947738 473.997556,868.534058 474.000011,868.026159 C474.00249,867.519364 474.39608,867.110101 474.880932,867.110101 L474.88516,867.110101 Z M487.792761,852.015419 C487.906575,851.994441 488.023559,851.994809 488.137725,852.016891 L488.137725,852.016891 L488.215245,852.038974 C488.244139,852.047439 488.273385,852.053696 488.301222,852.064737 C488.332582,852.07725 488.360771,852.093812 488.390017,852.10927 C488.410807,852.120311 488.432653,852.129144 488.452738,852.141658 C488.501364,852.172573 488.546819,852.207537 488.587693,852.246918 L488.587693,852.246918 L491.74487,855.249042 C491.916118,855.412085 492.001038,855.624814 491.99999,855.837174 C491.999276,856.049535 491.912242,856.26116 491.739584,856.42273 C491.394268,856.745136 490.836829,856.742559 490.493979,856.416474 L490.493979,856.416474 L488.83329,854.837202 L488.774093,868.104037 C488.771979,868.562618 488.375923,868.932133 487.889309,868.92957 C487.403047,868.927348 487.010162,868.554153 487.012276,868.095204 L487.012276,868.095204 L487.071473,854.829105 L485.397042,856.391815 C485.051726,856.71422 484.494287,856.711644 484.151437,856.385558 C483.808588,856.059472 483.811054,855.534643 484.156723,855.212238 L484.156723,855.212238 L487.340327,852.240661 C487.381905,852.202017 487.42736,852.167421 487.476339,852.136873 C487.496424,852.12436 487.51827,852.115895 487.538707,852.105222 C487.568306,852.089764 487.596847,852.07357 487.628208,852.061424 C487.656044,852.050751 487.68529,852.044495 487.714184,852.036766 C487.740611,852.029405 487.765629,852.020204 487.792761,852.015419 Z M477.829156,862.325141 L485.103347,862.360841 C485.589961,862.363418 485.982494,862.777098 485.980039,863.285364 C485.977561,863.792159 485.583619,864.201055 485.099119,864.201055 L485.094891,864.201055 L477.821052,864.165355 C477.334438,864.162778 476.941905,863.749098 476.944011,863.241199 C476.946486,862.734405 477.340428,862.325141 477.824928,862.325141 L477.829156,862.325141 Z M479.642066,857.72446 L485.103347,857.750959 C485.589961,857.753536 485.982494,858.167216 485.980039,858.675483 C485.977561,859.182277 485.583619,859.591173 485.099119,859.591173 L485.094891,859.591173 L479.63361,859.564674 C479.146996,859.562098 478.754463,859.148418 478.756918,858.640151 C478.759044,858.131884 479.166023,857.735134 479.642066,857.72446 Z" id="path-1"></path>
    </defs>
    <g id="Pages" stroke="none" stroke-width="1" fill="none" fill-rule="evenodd">
        <g id="Project-Chat-Channels-open" transform="translate(-474.000000, -852.000000)">
            <mask id="mask-2" fill="white">
                <use xlink:href="#path-1"></use>
            </mask>
            <use id="Mask" fill="#000000" xlink:href="#path-1"></use>
        </g>
    </g>
</svg>