<svg id="Capa_1" data-name="Capa 1" xmlns="http://www.w3.org/2000/svg" viewBox="0 0 30 30"><defs><style>.cls-1{fill:#474747;}</style></defs><path class="cls-1" d="M16.34,19.63H8.91a.65.65,0,0,0,0,1.3h7.43a.65.65,0,1,0,0-1.3Z"/><path class="cls-1" d="M16.34,16.65H10.65a.65.65,0,1,0,0,1.3h5.69a.65.65,0,1,0,0-1.3Z"/><path class="cls-1" d="M16.34,13.5h-2.8a.65.65,0,0,0,0,1.3h2.8a.65.65,0,1,0,0-1.3Z"/><path class="cls-1" d="M21.08,11.29,18.79,9a.66.66,0,0,0-.92,0l-2.29,2.28a.66.66,0,0,0,0,.92.64.64,0,0,0,.92,0L17.68,11v9.32a.65.65,0,0,0,1.3,0V11l1.18,1.18a.62.62,0,0,0,.46.19.65.65,0,0,0,.46-.19A.66.66,0,0,0,21.08,11.29Z"/></svg>