<?xml version="1.0" encoding="UTF-8"?>
<svg width="20px" height="17px" viewBox="0 0 20 17" version="1.1" xmlns="http://www.w3.org/2000/svg" xmlns:xlink="http://www.w3.org/1999/xlink">
    <title>Mask</title>
    <defs>
        <path d="M581.181788,596 C581.683966,596 582.090872,596.372901 582.090872,596.833392 L582.090872,596.833392 L582.090872,610.155472 L583.81195,608.577755 C584.166857,608.252159 584.742126,608.252159 585.097396,608.577755 C585.452666,608.903351 585.452666,609.430735 585.097396,609.755961 L585.097396,609.755961 L581.825783,612.755434 C581.783238,612.794609 581.735966,612.829718 581.685784,612.860393 C581.665421,612.872959 581.642875,612.881828 581.621057,612.892546 C581.590876,612.908068 581.561421,612.924699 581.529422,612.936895 C581.500331,612.947613 581.470149,612.953895 581.440331,612.962026 C581.413422,612.969418 581.387968,612.978657 581.359968,612.984201 C581.242151,613.005266 581.121425,613.005266 581.003971,612.984201 L581.003971,612.984201 L580.923244,612.962026 C580.893426,612.953895 580.863245,612.947613 580.834518,612.936895 C580.802154,612.924699 580.773063,612.908068 580.742882,612.892546 C580.721427,612.881828 580.698882,612.872959 580.678155,612.860393 C580.627974,612.829718 580.580701,612.794609 580.538156,612.755434 L580.538156,612.755434 L577.266544,609.755961 C577.08909,609.593348 577,609.380103 577,609.166858 C577,608.953982 577.08909,608.740368 577.266544,608.577755 C577.62145,608.252159 578.196719,608.252159 578.551989,608.577755 L578.551989,608.577755 L580.272703,610.155472 L580.272703,596.833392 C580.272703,596.372901 580.679973,596 581.181788,596 Z M591.000044,605.60855 C591.502222,605.60855 591.909128,606.022105 591.909128,606.532488 C591.909128,607.042872 591.502222,607.456427 591.000044,607.456427 L591.000044,607.456427 L585.363721,607.456427 C584.861543,607.456427 584.454637,607.042872 584.454637,606.532488 C584.454637,606.022105 584.861543,605.60855 585.363721,605.60855 L585.363721,605.60855 Z M593.000029,600.988859 C593.502207,600.988859 593.909113,601.402414 593.909113,601.912798 C593.909113,602.423181 593.502207,602.836736 593.000029,602.836736 L593.000029,602.836736 L585.492811,602.836736 C584.990996,602.836736 584.583727,602.423181 584.583727,601.912798 C584.583727,601.402414 584.990996,600.988859 585.492811,600.988859 L585.492811,600.988859 Z M596.090916,596.184381 C596.593094,596.184381 597,596.597936 597,597.108319 C597,597.618703 596.593094,598.032257 596.090916,598.032257 L596.090916,598.032257 L585.545538,598.032257 C585.04336,598.032257 584.636454,597.618703 584.636454,597.108319 C584.636454,596.597936 585.04336,596.184381 585.545538,596.184381 L585.545538,596.184381 Z" id="path-1"></path>
    </defs>
    <g id="Pages" stroke="none" stroke-width="1" fill="none" fill-rule="evenodd">
        <g id="Project-Chat-Channels-open" transform="translate(-577.000000, -596.000000)">
            <mask id="mask-2" fill="white">
                <use xlink:href="#path-1"></use>
            </mask>
            <use id="Mask" fill="#646464" xlink:href="#path-1"></use>
        </g>
    </g>
</svg>