<svg id="Capa_1" data-name="Capa 1" xmlns="http://www.w3.org/2000/svg" viewBox="0 0 30 30"><defs><style>.cls-1{fill:#474747;}</style></defs><path class="cls-1" d="M20.35,9.07H12.92a.65.65,0,1,0,0,1.3h7.43a.65.65,0,1,0,0-1.3Z"/><path class="cls-1" d="M18.61,12.05H12.92a.65.65,0,1,0,0,1.3h5.69a.65.65,0,0,0,0-1.3Z"/><path class="cls-1" d="M15.72,15.2h-2.8a.65.65,0,0,0,0,1.3h2.8a.65.65,0,0,0,0-1.3Z"/><path class="cls-1" d="M12.76,17.79,11.58,19V9.65a.65.65,0,1,0-1.3,0V19L9.1,17.79a.65.65,0,0,0-.92.92L10.47,21a.65.65,0,0,0,.92,0l2.29-2.29a.65.65,0,0,0-.92-.92Z"/></svg>