<svg id="Capa_1" data-name="Capa 1" xmlns="http://www.w3.org/2000/svg" viewBox="0 0 30 30"><defs><style>.cls-1{fill:#474747;}</style></defs><path class="cls-1" d="M22.49,8.72H7.5a.65.65,0,0,0-.65.65v10.8a.65.65,0,0,0,.65.65h5.42a.65.65,0,0,0,0-1.3H8.15V13.65H18.4v-1.3H8.15V10H21.84v1.76a.65.65,0,0,0,1.3,0V9.37A.65.65,0,0,0,22.49,8.72Z"/><path class="cls-1" d="M14.31,18.42v1.93a.4.4,0,0,0,.4.4h1.94l4.95-4.93-2.38-2.37Z"/><path class="cls-1" d="M21.16,12.24a.52.52,0,0,0-.73,0l-.78.79L22,15.38l.78-.78a.52.52,0,0,0,0-.73Z"/><circle class="cls-1" cx="9.38" cy="11.19" r="0.72"/><circle class="cls-1" cx="11.44" cy="11.19" r="0.72"/><circle class="cls-1" cx="13.46" cy="11.19" r="0.72"/></svg>