<svg id="Capa_1" data-name="Capa 1" xmlns="http://www.w3.org/2000/svg" viewBox="0 0 30 30"><defs><style>.cls-1{fill:#474747;}</style></defs><path class="cls-1" d="M20.28,10.09h-2.2l-.56-1.63a.76.76,0,0,0-.71-.5H13.19a.76.76,0,0,0-.71.5l-.56,1.63H9.72a.75.75,0,0,0,0,1.5h.14v9A1.48,1.48,0,0,0,11.34,22h7.32a1.48,1.48,0,0,0,1.48-1.48v-9h.14a.75.75,0,0,0,0-1.5Zm-6.56-.64h2.56l.22.64h-3Zm4.94,11.1h-7.3v-9h7.28Z"/><path class="cls-1" d="M13.36,13.05a.75.75,0,0,0-.75.74v4.78a.75.75,0,0,0,1.5,0V13.79A.75.75,0,0,0,13.36,13.05Z"/><path class="cls-1" d="M16.51,13.05a.74.74,0,0,0-.74.74v4.78a.75.75,0,0,0,1.49,0V13.79A.74.74,0,0,0,16.51,13.05Z"/></svg>