<svg id="Capa_1" data-name="Capa 1" xmlns="http://www.w3.org/2000/svg" viewBox="0 0 30 30"><defs><style>.cls-1{fill:#474747;}.cls-2{fill:#b31110;}.cls-3{fill:#fff;}</style></defs><path class="cls-1" d="M21.22,9H9A1.94,1.94,0,0,0,7,10.94v7.49A1.94,1.94,0,0,0,9,20.36h3.17v1.29a.48.48,0,0,0,.49.48h5a.48.48,0,0,0,.49-.48V20.36h3.07a1.94,1.94,0,0,0,1.93-1.93V10.94A1.94,1.94,0,0,0,21.22,9Zm.63,9.43a.63.63,0,0,1-.63.63H9a.63.63,0,0,1-.63-.63V10.94A.64.64,0,0,1,9,10.3H21.22a.64.64,0,0,1,.63.64Z"/><path class="cls-1" d="M19.73,17.41a.43.43,0,0,0,.38-.29.45.45,0,0,0-.27-.57l-1.26-.45a.47.47,0,0,0-.43.07h0a.41.41,0,0,0-.15.4l.18,1.34a.44.44,0,0,0,.5.38A.43.43,0,0,0,19,18l.65.78a.43.43,0,0,0,.62.06.45.45,0,0,0,.06-.63Z"/><rect class="cls-2" x="6.89" y="11.92" width="16.26" height="3.3" rx="0.72"/><path class="cls-3" d="M11.66,12.6h1.2v.34h-.71v.27h.61v.32h-.61v.64h-.49Z"/><path class="cls-3" d="M13.43,13.4l-.41,0a.47.47,0,0,1,.06-.17.35.35,0,0,1,.13-.11.38.38,0,0,1,.17-.05.78.78,0,0,1,.22,0,1.47,1.47,0,0,1,.32,0,.31.31,0,0,1,.19.09.28.28,0,0,1,.09.14.53.53,0,0,1,0,.17v.62l0,.12h-.41a.13.13,0,0,1,0-.07s0,0,0-.07a.66.66,0,0,1-.17.12.68.68,0,0,1-.26,0,.46.46,0,0,1-.31-.09.3.3,0,0,1-.11-.23.29.29,0,0,1,.08-.21.49.49,0,0,1,.28-.13l.32-.07.15-.05a.16.16,0,0,0,0-.11.19.19,0,0,0-.12,0,.35.35,0,0,0-.16,0A.2.2,0,0,0,13.43,13.4Zm.38.23-.19.06a.34.34,0,0,0-.17.07.12.12,0,0,0,0,.16.18.18,0,0,0,.11,0,.35.35,0,0,0,.14,0,.22.22,0,0,0,.08-.09.25.25,0,0,0,0-.13Z"/><path class="cls-3" d="M14.51,12.6H15v.3h-.44Zm0,.43H15v1.14h-.44Z"/><path class="cls-3" d="M15.24,12.6h.43v1.57h-.43Z"/><path class="cls-3" d="M17.21,13.71h-.87a.26.26,0,0,0,.06.15.19.19,0,0,0,.16.08l.12,0a.3.3,0,0,0,.08-.08l.43,0a.64.64,0,0,1-.24.25.87.87,0,0,1-.4.07.82.82,0,0,1-.35-.06.53.53,0,0,1-.22-.2.67.67,0,0,1-.08-.33.56.56,0,0,1,.17-.43.64.64,0,0,1,.47-.16.81.81,0,0,1,.38.07.47.47,0,0,1,.22.22.74.74,0,0,1,.07.36Zm-.44-.21a.3.3,0,0,0-.07-.18.18.18,0,0,0-.14-.06.2.2,0,0,0-.17.09.26.26,0,0,0-.05.15Z"/><path class="cls-3" d="M18.61,12.6v1.57H18.2V14a.48.48,0,0,1-.16.14.36.36,0,0,1-.21,0,.41.41,0,0,1-.35-.17.75.75,0,0,1-.12-.43.61.61,0,0,1,.13-.43.45.45,0,0,1,.35-.15A.52.52,0,0,1,18,13a.49.49,0,0,1,.15.1V12.6Zm-.44,1a.28.28,0,0,0-.06-.2.15.15,0,0,0-.14-.07.16.16,0,0,0-.13.07.36.36,0,0,0-.05.21.28.28,0,0,0,.06.2.16.16,0,0,0,.13.07.17.17,0,0,0,.13-.07A.29.29,0,0,0,18.17,13.6Z"/></svg>