<svg id="Capa_1" data-name="Capa 1" xmlns="http://www.w3.org/2000/svg" viewBox="0 0 30 30"><defs><style>.cls-1{fill:#474747;}.cls-2{fill:#55bd88;}.cls-3{fill:#fff;}</style></defs><path class="cls-1" d="M21.22,9H9A1.94,1.94,0,0,0,7,10.94v7.49A1.94,1.94,0,0,0,9,20.36h3.17v1.29a.48.48,0,0,0,.49.48h5a.48.48,0,0,0,.49-.48V20.36h3.07a1.94,1.94,0,0,0,1.93-1.93V10.94A1.94,1.94,0,0,0,21.22,9Zm.63,9.43a.63.63,0,0,1-.63.63H9a.63.63,0,0,1-.63-.63V10.94A.64.64,0,0,1,9,10.3H21.22a.64.64,0,0,1,.63.64Z"/><path class="cls-1" d="M19.73,17.41a.43.43,0,0,0,.38-.29.45.45,0,0,0-.27-.57l-1.26-.45a.47.47,0,0,0-.43.07h0a.41.41,0,0,0-.15.4l.18,1.34a.44.44,0,0,0,.5.38A.43.43,0,0,0,19,18l.65.78a.43.43,0,0,0,.62.06.45.45,0,0,0,.06-.63Z"/><rect class="cls-2" x="6.85" y="11.92" width="16.47" height="3.3" rx="0.72"/><path class="cls-3" d="M8.59,13.83l.46,0a.38.38,0,0,0,.06.17.27.27,0,0,0,.22.09A.21.21,0,0,0,9.49,14a.16.16,0,0,0,0-.11.13.13,0,0,0,0-.11.73.73,0,0,0-.25-.09,1.06,1.06,0,0,1-.45-.19.39.39,0,0,1-.14-.3A.48.48,0,0,1,8.72,13a.51.51,0,0,1,.21-.17,1,1,0,0,1,.39-.06.78.78,0,0,1,.45.11.49.49,0,0,1,.19.36l-.45,0a.27.27,0,0,0-.08-.15A.25.25,0,0,0,9.27,13a.17.17,0,0,0-.13,0,.1.1,0,0,0,0,.09.09.09,0,0,0,0,.06.52.52,0,0,0,.17.06,2,2,0,0,1,.45.14.49.49,0,0,1,.2.17.46.46,0,0,1,.06.23.46.46,0,0,1-.08.28.48.48,0,0,1-.23.19.86.86,0,0,1-.38.07.77.77,0,0,1-.55-.15A.64.64,0,0,1,8.59,13.83Z"/><path class="cls-3" d="M11.42,14.34H11v-.18a.47.47,0,0,1-.19.16.48.48,0,0,1-.22,0,.36.36,0,0,1-.28-.11.45.45,0,0,1-.11-.33v-.72h.44v.62a.21.21,0,0,0,0,.15.14.14,0,0,0,.11,0,.16.16,0,0,0,.13-.06.36.36,0,0,0,.05-.21v-.55h.43Z"/><path class="cls-3" d="M14.1,13.9l.41,0a.46.46,0,0,1-.11.22.62.62,0,0,1-.2.15.85.85,0,0,1-.3,0,1.35,1.35,0,0,1-.31,0,.64.64,0,0,1-.2-.11.62.62,0,0,1-.14-.18.68.68,0,0,1-.05-.27.62.62,0,0,1,.06-.29.44.44,0,0,1,.12-.15.47.47,0,0,1,.16-.1.73.73,0,0,1,.32-.06.83.83,0,0,1,.43.1.61.61,0,0,1,.2.29l-.41.06a.14.14,0,0,0-.07-.11.18.18,0,0,0-.13,0,.25.25,0,0,0-.18.08.37.37,0,0,0-.06.23.34.34,0,0,0,.06.22.26.26,0,0,0,.17.07A.2.2,0,0,0,14,14,.25.25,0,0,0,14.1,13.9Z"/><path class="cls-3" d="M12.54,13.9,13,14a.57.57,0,0,1-.11.22.75.75,0,0,1-.2.15.91.91,0,0,1-.31,0,1.26,1.26,0,0,1-.3,0,.7.7,0,0,1-.21-.11.46.46,0,0,1-.13-.18.54.54,0,0,1,0-.27.62.62,0,0,1,.06-.29.44.44,0,0,1,.12-.15.44.44,0,0,1,.15-.1.78.78,0,0,1,.33-.06.81.81,0,0,1,.42.1.56.56,0,0,1,.21.29l-.41.06a.23.23,0,0,0-.07-.11.24.24,0,0,0-.31,0,.32.32,0,0,0-.07.23.29.29,0,0,0,.07.22.24.24,0,0,0,.16.07.25.25,0,0,0,.15-.05A.2.2,0,0,0,12.54,13.9Z"/><path class="cls-3" d="M16,13.88H15.1a.3.3,0,0,0,.06.16.2.2,0,0,0,.16.07.28.28,0,0,0,.13,0,.45.45,0,0,0,.07-.07l.43,0a.61.61,0,0,1-.24.24.83.83,0,0,1-.4.08.82.82,0,0,1-.35-.06.47.47,0,0,1-.21-.21.57.57,0,0,1-.09-.32.58.58,0,0,1,.17-.43.64.64,0,0,1,.47-.17.87.87,0,0,1,.39.08.53.53,0,0,1,.21.21.79.79,0,0,1,.07.37Zm-.44-.2a.25.25,0,0,0-.07-.18.17.17,0,0,0-.14-.06.21.21,0,0,0-.17.08.5.5,0,0,0-.05.16Z"/><path class="cls-3" d="M16.1,14l.43,0a.23.23,0,0,0,.07.11.25.25,0,0,0,.13,0,.21.21,0,0,0,.14,0,.09.09,0,0,0,0-.07s0,0,0-.07a.59.59,0,0,0-.18,0,1.6,1.6,0,0,1-.32-.08.3.3,0,0,1-.14-.11.29.29,0,0,1-.07-.18.35.35,0,0,1,.07-.2.41.41,0,0,1,.18-.12,1.23,1.23,0,0,1,.31,0,1.15,1.15,0,0,1,.3,0l.16.1a.39.39,0,0,1,.1.18l-.41,0a.12.12,0,0,0-.05-.08.2.2,0,0,0-.13,0,.13.13,0,0,0-.1,0,.07.07,0,0,0,0,.06s0,.05,0,.07l.18,0a1.3,1.3,0,0,1,.32.07.33.33,0,0,1,.17.13.35.35,0,0,1,.05.18.38.38,0,0,1-.06.19.37.37,0,0,1-.18.14.85.85,0,0,1-.35.06.78.78,0,0,1-.44-.09A.37.37,0,0,1,16.1,14Z"/><path class="cls-3" d="M17.43,14l.44,0a.18.18,0,0,0,.07.11.23.23,0,0,0,.13,0,.17.17,0,0,0,.13,0,.08.08,0,0,0,0-.07s0,0,0-.07a.6.6,0,0,0-.19,0,1.46,1.46,0,0,1-.31-.08.33.33,0,0,1-.15-.11.28.28,0,0,1-.06-.18.29.29,0,0,1,.07-.2.41.41,0,0,1,.18-.12,1.08,1.08,0,0,1,.3,0,1.05,1.05,0,0,1,.3,0,.49.49,0,0,1,.16.1.4.4,0,0,1,.11.18l-.41,0a.1.1,0,0,0-.06-.08.16.16,0,0,0-.12,0,.18.18,0,0,0-.11,0,.09.09,0,0,0,0,.06.08.08,0,0,0,0,.07l.19,0a1.42,1.42,0,0,1,.32.07.3.3,0,0,1,.16.13.28.28,0,0,1,.06.18.38.38,0,0,1-.06.19.35.35,0,0,1-.19.14.8.8,0,0,1-.34.06.84.84,0,0,1-.45-.09A.41.41,0,0,1,17.43,14Z"/><path class="cls-3" d="M19.33,13.21h.21v.32h-.21v.81h-.44v-.81h-.16v-.32h.16v-.05a.77.77,0,0,1,0-.15.26.26,0,0,1,.06-.14.2.2,0,0,1,.11-.09.61.61,0,0,1,.22,0l.33,0-.05.26h-.12s-.07,0-.09,0a.06.06,0,0,0,0,.06A.25.25,0,0,0,19.33,13.21Z"/><path class="cls-3" d="M20.89,14.34h-.4v-.18a.47.47,0,0,1-.19.16.48.48,0,0,1-.22,0,.36.36,0,0,1-.28-.11.45.45,0,0,1-.11-.33v-.72h.44v.62a.21.21,0,0,0,0,.15.14.14,0,0,0,.11,0,.16.16,0,0,0,.13-.06.36.36,0,0,0,.05-.21v-.55h.43Z"/><path class="cls-3" d="M21.17,12.78h.44v1.56h-.44Z"/></svg>