<svg id="Capa_1" data-name="Capa 1" xmlns="http://www.w3.org/2000/svg" viewBox="0 0 30 30"><defs><style>.cls-1{fill:#474747;}.cls-2{fill:#338de1;}.cls-3{fill:#fff;}</style></defs><path class="cls-1" d="M21.22,9H9A1.94,1.94,0,0,0,7,10.94v7.49A1.94,1.94,0,0,0,9,20.36h3.17v1.29a.48.48,0,0,0,.49.48h5a.48.48,0,0,0,.49-.48V20.36h3.07a1.94,1.94,0,0,0,1.93-1.93V10.94A1.94,1.94,0,0,0,21.22,9Zm.63,9.43a.63.63,0,0,1-.63.63H9a.63.63,0,0,1-.63-.63V10.94A.64.64,0,0,1,9,10.3H21.22a.64.64,0,0,1,.63.64Z"/><path class="cls-1" d="M19.73,17.41a.43.43,0,0,0,.38-.29.45.45,0,0,0-.27-.57l-1.26-.45a.47.47,0,0,0-.43.07h0a.41.41,0,0,0-.15.4l.18,1.34a.44.44,0,0,0,.5.38A.43.43,0,0,0,19,18l.65.78a.43.43,0,0,0,.62.06.45.45,0,0,0,.06-.63Z"/><rect class="cls-2" x="6.86" y="11.92" width="16.47" height="3.3" rx="0.72"/><path class="cls-3" d="M8.41,12.6H8.9v1.57H8.41Z"/><path class="cls-3" d="M9.22,13h.4v.19a.47.47,0,0,1,.19-.16A.38.38,0,0,1,10,13a.36.36,0,0,1,.28.1.5.5,0,0,1,.11.34v.72H10v-.63a.21.21,0,0,0,0-.15.14.14,0,0,0-.11,0,.16.16,0,0,0-.13.06.36.36,0,0,0,0,.21v.55H9.22Z"/><path class="cls-3" d="M11.43,12.6h.81a.53.53,0,0,1,.39.13.45.45,0,0,1,.13.35.5.5,0,0,1-.14.37.63.63,0,0,1-.44.14h-.26v.58h-.49Zm.49.67H12a.29.29,0,0,0,.19,0,.14.14,0,0,0,.06-.12.21.21,0,0,0,0-.13.26.26,0,0,0-.18-.05h-.14Z"/><path class="cls-3" d="M13,13h.41v.19a.5.5,0,0,1,.12-.17.24.24,0,0,1,.15,0,.42.42,0,0,1,.21.06l-.13.31-.12,0a.17.17,0,0,0-.14.08.77.77,0,0,0-.06.37v.38H13Z"/><path class="cls-3" d="M13.94,13.6a.57.57,0,0,1,.17-.42.64.64,0,0,1,.48-.17.62.62,0,0,1,.51.2.52.52,0,0,1,.14.39.61.61,0,0,1-.17.43.68.68,0,0,1-.48.16.61.61,0,0,1-.44-.14A.54.54,0,0,1,13.94,13.6Zm.43,0a.32.32,0,0,0,.07.23.2.2,0,0,0,.3,0,.37.37,0,0,0,.06-.23.34.34,0,0,0-.06-.22.2.2,0,0,0-.3,0A.29.29,0,0,0,14.37,13.6Z"/><path class="cls-3" d="M16.24,13h.41v1.13a.49.49,0,0,1,0,.2.44.44,0,0,1-.12.15.48.48,0,0,1-.19.09,1,1,0,0,1-.26,0,.84.84,0,0,1-.47-.1.33.33,0,0,1-.13-.28v-.06l.42.05a.12.12,0,0,0,.05.08.21.21,0,0,0,.12,0,.18.18,0,0,0,.14,0,.3.3,0,0,0,.05-.18V14a.42.42,0,0,1-.13.11.54.54,0,0,1-.22,0,.4.4,0,0,1-.36-.2.6.6,0,0,1-.1-.37.54.54,0,0,1,.13-.4.39.39,0,0,1,.33-.14.48.48,0,0,1,.22,0,.45.45,0,0,1,.16.15Zm-.41.55a.31.31,0,0,0,.05.19.22.22,0,0,0,.14.05.18.18,0,0,0,.14-.06.24.24,0,0,0,.05-.18.27.27,0,0,0-.06-.19.15.15,0,0,0-.14-.07.16.16,0,0,0-.13.06A.34.34,0,0,0,15.83,13.58Z"/><path class="cls-3" d="M17,13h.41v.19a.5.5,0,0,1,.12-.17.25.25,0,0,1,.16,0,.48.48,0,0,1,.21.06l-.14.31-.12,0a.14.14,0,0,0-.13.08.65.65,0,0,0-.07.37v.38H17Z"/><path class="cls-3" d="M19.22,13.71h-.88a.26.26,0,0,0,.06.15.21.21,0,0,0,.17.08l.12,0a.29.29,0,0,0,.07-.08l.43,0a.53.53,0,0,1-.24.25.82.82,0,0,1-.39.07.87.87,0,0,1-.36-.06.45.45,0,0,1-.21-.2.58.58,0,0,1-.09-.33.6.6,0,0,1,.17-.43.65.65,0,0,1,.47-.16.88.88,0,0,1,.39.07.5.5,0,0,1,.21.22.74.74,0,0,1,.08.36Zm-.45-.21a.3.3,0,0,0-.06-.18.2.2,0,0,0-.15-.06.18.18,0,0,0-.16.09.21.21,0,0,0,0,.15Z"/><path class="cls-3" d="M19.34,13.85l.43,0a.23.23,0,0,0,.07.11A.28.28,0,0,0,20,14a.26.26,0,0,0,.14,0,.1.1,0,0,0,0-.07.08.08,0,0,0,0-.07.68.68,0,0,0-.19,0l-.31-.07a.29.29,0,0,1-.15-.12.28.28,0,0,1-.06-.18.31.31,0,0,1,.06-.19.29.29,0,0,1,.18-.12.9.9,0,0,1,.31,0,1.15,1.15,0,0,1,.3,0,.42.42,0,0,1,.16.09.78.78,0,0,1,.11.18l-.42,0a.14.14,0,0,0-.05-.08.24.24,0,0,0-.12,0l-.11,0a.09.09,0,0,0,0,.07.06.06,0,0,0,0,.06l.18,0a1,1,0,0,1,.33.07.4.4,0,0,1,.16.12.29.29,0,0,1,.05.18.34.34,0,0,1-.05.19.49.49,0,0,1-.19.15.86.86,0,0,1-.35,0,.8.8,0,0,1-.44-.09A.35.35,0,0,1,19.34,13.85Z"/><path class="cls-3" d="M20.67,13.85l.44,0a.18.18,0,0,0,.07.11.25.25,0,0,0,.13,0,.22.22,0,0,0,.13,0,.08.08,0,0,0,0-.07.06.06,0,0,0-.05-.07.5.5,0,0,0-.18,0l-.32-.07a.29.29,0,0,1-.15-.12.28.28,0,0,1-.06-.18.26.26,0,0,1,.07-.19.29.29,0,0,1,.18-.12.84.84,0,0,1,.3,0,1.05,1.05,0,0,1,.3,0,.35.35,0,0,1,.16.09.54.54,0,0,1,.11.18l-.41,0a.22.22,0,0,0-.05-.08.28.28,0,0,0-.13,0l-.1,0a.08.08,0,0,0,0,.07.08.08,0,0,0,0,.06.81.81,0,0,0,.19,0,1,1,0,0,1,.32.07.34.34,0,0,1,.16.12.3.3,0,0,1,.06.18.35.35,0,0,1-.06.19.42.42,0,0,1-.19.15.81.81,0,0,1-.34,0,.84.84,0,0,1-.45-.09A.42.42,0,0,1,20.67,13.85Z"/></svg>