<svg id="Capa_1" data-name="Capa 1" xmlns="http://www.w3.org/2000/svg" viewBox="0 0 30 30"><defs><style>.cls-1{fill:#474747;}</style></defs><path class="cls-1" d="M21.22,9H9A1.94,1.94,0,0,0,7,10.94v7.49A1.94,1.94,0,0,0,9,20.36h3.17v1.29a.48.48,0,0,0,.49.48h5a.48.48,0,0,0,.49-.48V20.36h3.07a1.94,1.94,0,0,0,1.93-1.93V10.94A1.94,1.94,0,0,0,21.22,9Zm.63,9.43a.63.63,0,0,1-.63.63H9a.63.63,0,0,1-.63-.63V10.94A.64.64,0,0,1,9,10.3H21.22a.64.64,0,0,1,.63.64Z"/><path class="cls-1" d="M16.19,13.35H16v1.11h.16a.66.66,0,0,0,.28,0,.32.32,0,0,0,.13-.15,1,1,0,0,0,0-.36.67.67,0,0,0-.11-.44A.45.45,0,0,0,16.19,13.35Z"/><path class="cls-1" d="M19.78,12.12H10.59a1,1,0,0,0-1,1v1.61a1,1,0,0,0,1,1h9.19a1,1,0,0,0,1-1V13.14A1,1,0,0,0,19.78,12.12Zm-5.25,2.81-.11-.34h-.71l-.1.34H13l.77-2h.69l.77,2Zm2.68-.52a.81.81,0,0,1-.21.3.62.62,0,0,1-.28.16,1.42,1.42,0,0,1-.38.06H15.4v-2h.94a1.17,1.17,0,0,1,.45.08.74.74,0,0,1,.28.21.84.84,0,0,1,.16.33,1.33,1.33,0,0,1,.05.4A1.39,1.39,0,0,1,17.21,14.41Z"/><polygon class="cls-1" points="13.84 14.15 14.29 14.15 14.07 13.41 13.84 14.15"/><path class="cls-1" d="M19.73,17.41a.43.43,0,0,0,.38-.29.45.45,0,0,0-.27-.57l-1.26-.45a.47.47,0,0,0-.43.07h0a.41.41,0,0,0-.15.4l.18,1.34a.44.44,0,0,0,.5.38A.43.43,0,0,0,19,18l.65.78a.43.43,0,0,0,.62.06.45.45,0,0,0,.06-.63Z"/></svg>