<svg id="Capa_1" data-name="Capa 1" xmlns="http://www.w3.org/2000/svg" viewBox="0 0 30 30"><defs><style>.cls-1{fill:#474747;}</style></defs><path class="cls-1" d="M23.08,20.42v-1.3a4.63,4.63,0,0,0-3.73-4.63l-.42,0a2.09,2.09,0,0,0,1.54-2V11a2.11,2.11,0,1,0-4.21,0v1.44a2.11,2.11,0,0,0,1.65,2.06A4.53,4.53,0,0,0,15,16.26a4.44,4.44,0,0,0-3.09-1.8,2.11,2.11,0,0,0,1.56-2V11a2.11,2.11,0,0,0-4.22,0v1.44a2.11,2.11,0,0,0,1.63,2.05,4.49,4.49,0,0,0-4,4.45v1.51h0a.66.66,0,0,0,1.32,0v0h0V19a3.18,3.18,0,0,1,6.36,0v1.49a.66.66,0,0,0,1.32,0h0V18.88c0-.32,0-.63,0-.95a1.78,1.78,0,0,1,.45-1.23,3.17,3.17,0,0,1,2.46-.95A3.24,3.24,0,0,1,21.71,19v1.42h0a.69.69,0,0,0,.69.67.69.69,0,0,0,.68-.67h0a0,0,0,0,1,0,0S23.08,20.43,23.08,20.42ZM10.25,12v-.78a1.08,1.08,0,1,1,2.16,0V12a1.08,1.08,0,1,1-2.16,0Zm7,0v-.78a1.08,1.08,0,1,1,2.16,0V12a1.08,1.08,0,1,1-2.16,0Z"/></svg>