<svg id="Capa_1" data-name="Capa 1" xmlns="http://www.w3.org/2000/svg" viewBox="0 0 30 30"><defs><style>.cls-1{fill:#474747;}</style></defs><path class="cls-1" d="M21.06,20.26v0h0a6.29,6.29,0,0,0-5-5.48A3,3,0,0,0,17.84,12V10.86a3,3,0,0,0-6,0V12a3,3,0,0,0,1.9,2.78,6.29,6.29,0,0,0-4.83,5.5h0v.09a.75.75,0,0,0,.73.76.72.72,0,0,0,.7-.65h0A4.73,4.73,0,0,1,15,16.17a4.75,4.75,0,0,1,4.63,4.29h0v.06a.74.74,0,0,0,.86.6.76.76,0,0,0,.58-.79h0S21.06,20.29,21.06,20.26Zm-8.13-8.37v-.73a1.92,1.92,0,1,1,3.83,0v.73a1.92,1.92,0,1,1-3.83,0Z"/></svg>