<svg id="Capa_1" data-name="Capa 1" xmlns="http://www.w3.org/2000/svg" viewBox="0 0 30 30"><defs><style>.cls-1{fill:#474747;}</style></defs><path class="cls-1" d="M23,15A7.83,7.83,0,0,0,7.59,13l-.46-1.37a.84.84,0,1,0-1.6.53l1,3.05a.86.86,0,0,0,.8.58.75.75,0,0,0,.26-.05l3.06-1a.84.84,0,0,0-.53-1.6l-.94.32A6.16,6.16,0,0,1,21.32,15,6.18,6.18,0,0,1,9.4,17.31l-.31-.78-1.56.61.31.78A7.85,7.85,0,0,0,23,15Z"/><path class="cls-1" d="M15.08,18.34h0a.86.86,0,0,0,.77-.5l2.06-4.57a.84.84,0,0,0-.42-1.11.83.83,0,0,0-1.11.42l-1.3,2.89-1.34-2.92a.84.84,0,0,0-1.52.7l2.1,4.6A.84.84,0,0,0,15.08,18.34Z"/></svg>