<svg id="Capa_1" data-name="Capa 1" xmlns="http://www.w3.org/2000/svg" viewBox="0 0 30 30"><defs><style>.cls-1{fill:#474747;}</style></defs><path class="cls-1" d="M22,15a7,7,0,0,0-7-6.95,6.88,6.88,0,0,0-6.69,5.17L7.94,12a.74.74,0,1,0-1.41.47l.9,2.71a.75.75,0,0,0,.71.51.66.66,0,0,0,.23,0l2.71-.9a.74.74,0,0,0-.47-1.41l-.83.27A5.41,5.41,0,0,1,15,9.58,5.47,5.47,0,1,1,10,17.05l-.28-.69L8.3,16.9l.27.69A7,7,0,0,0,22,15Z"/><path class="cls-1" d="M15,18h0a.73.73,0,0,0,.67-.44l1.83-4a.74.74,0,0,0-.37-1,.73.73,0,0,0-1,.37L15,15.42,13.8,12.84a.74.74,0,0,0-1.35.61l1.86,4.08A.75.75,0,0,0,15,18Z"/></svg>