<svg id="Capa_1" data-name="Capa 1" xmlns="http://www.w3.org/2000/svg" viewBox="0 0 30 30"><defs><style>.cls-1{fill:#474747;}</style></defs><rect class="cls-1" x="9.84" y="9.64" width="1.5" height="10.85"/><path class="cls-1" d="M13.87,12.73c-.13-.05-.27,0-.27.11v3.9c0,.09.18.14.3.08l3.26-1.9a.21.21,0,0,0,0-.28Z"/><path class="cls-1" d="M22.34,8.88H7.66a.8.8,0,0,0-.79.8V20.34a.8.8,0,0,0,.79.8H22.34a.8.8,0,0,0,.79-.8V9.68A.8.8,0,0,0,22.34,8.88ZM9.79,19.6a.2.2,0,0,1-.2.2h-1a.2.2,0,0,1-.2-.2v-1a.2.2,0,0,1,.2-.2h1a.2.2,0,0,1,.2.2Zm0-2.72a.2.2,0,0,1-.2.2h-1a.2.2,0,0,1-.2-.2v-1a.2.2,0,0,1,.2-.2h1a.2.2,0,0,1,.2.2Zm0-2.74a.2.2,0,0,1-.2.2h-1a.2.2,0,0,1-.2-.2v-1a.2.2,0,0,1,.2-.2h1a.2.2,0,0,1,.2.2Zm0-2.74a.2.2,0,0,1-.2.2h-1a.2.2,0,0,1-.2-.2v-1a.2.2,0,0,1,.2-.19h1a.2.2,0,0,1,.2.19Zm8.82,8.44a.16.16,0,0,1-.17.17h-7a.16.16,0,0,1-.16-.17V10.18a.16.16,0,0,1,.16-.17h7a.16.16,0,0,1,.17.17Zm3-.21a.2.2,0,0,1-.2.2h-1a.2.2,0,0,1-.19-.2v-1a.2.2,0,0,1,.19-.19h1a.2.2,0,0,1,.2.19Zm0-2.73a.2.2,0,0,1-.2.2h-1a.2.2,0,0,1-.19-.2v-1a.2.2,0,0,1,.19-.2h1a.2.2,0,0,1,.2.2Zm0-2.74a.2.2,0,0,1-.2.2h-1a.2.2,0,0,1-.19-.2v-1a.2.2,0,0,1,.19-.2h1a.2.2,0,0,1,.2.2Zm0-2.74a.2.2,0,0,1-.2.2h-1a.2.2,0,0,1-.19-.2v-1a.2.2,0,0,1,.19-.2h1a.2.2,0,0,1,.2.2Z"/></svg>