<svg id="Capa_1" data-name="Capa 1" xmlns="http://www.w3.org/2000/svg" viewBox="0 0 30 30"><defs><style>.cls-1{fill:#474747;}</style></defs><path class="cls-1" d="M22.88,19.23,16.1,7.48a1.26,1.26,0,0,0-2.11,0L7.21,19.23a1.22,1.22,0,0,0,1.06,1.83H21.82a1.22,1.22,0,0,0,1.06-1.83Zm-14.31.43L15.05,8.45l6.47,11.21Z"/><path class="cls-1" d="M15.14,13.56a.76.76,0,0,0-.76.76v4.1a.76.76,0,1,0,1.51,0v-4.1A.76.76,0,0,0,15.14,13.56Z"/><path class="cls-1" d="M14.39,12.33a.76.76,0,0,0,.75.75.75.75,0,0,0,.74-.75.74.74,0,0,0-.74-.74A.75.75,0,0,0,14.39,12.33Z"/></svg>