<svg id="Capa_1" data-name="Capa 1" xmlns="http://www.w3.org/2000/svg" viewBox="0 0 30 30"><defs><style>.cls-1{fill:#2bbf67;}.cls-2{fill:#474747;}</style></defs><path class="cls-1" d="M15.49,16.22h0l-3.63,1h0a.76.76,0,0,0,.38,1.45h0l3.64-1h0a.76.76,0,0,0-.38-1.45Z"/><path class="cls-2" d="M22.62,10.36,15.85,7.49a.93.93,0,0,0-1-.42L7.58,9a1,1,0,0,0-.67,1.15l3.18,12a.93.93,0,0,0,1.14.67l3.38-.89L17.26,23a.94.94,0,0,0,1.23-.5l4.63-10.94A.94.94,0,0,0,22.62,10.36Zm-5.2,10.91a.19.19,0,0,1-.25.1L17,21.28l.51-.13Zm0-1.62-5.9,1.56a.2.2,0,0,1-.23-.14L8.49,10.45a.19.19,0,0,1,.13-.23l5.9-1.56a.18.18,0,0,1,.23.14l2.81,10.61A.19.19,0,0,1,17.43,19.65Zm4-8-2.74,6.48-.19-.71,1.74-4.09h0a.76.76,0,0,0-1.38-.58h0l-1,2.41-.22-.85,1.14-2.73h0a.76.76,0,0,0-1.39-.58h0L17.1,12l-.71-2.67,5,2.11A.19.19,0,0,1,21.47,11.69Z"/><path class="cls-2" d="M13.83,14.41l-1.26.36-.18-.61,1.08-.32c.21-.06.34-.11.22-.51s-.21-.35-.39-.3l-1.14.33L12,12.82l1.23-.36c.25-.08.34-.17.23-.52s-.16-.38-.31-.33l-1.84.54a.57.57,0,0,0-.35.26.55.55,0,0,0,0,.44l.73,2.48a.52.52,0,0,0,.26.36.6.6,0,0,0,.44,0l1.71-.5c.2-.06.31-.23.23-.52A.35.35,0,0,0,13.83,14.41Z"/></svg>