<svg id="Capa_1" data-name="Capa 1" xmlns="http://www.w3.org/2000/svg" viewBox="0 0 30 30"><defs><style>.cls-1{fill:#338de1;}.cls-2{fill:#fff;}.cls-3{fill:#474747;fill-rule:evenodd;}</style></defs><rect class="cls-1" x="6.77" y="19.85" width="16.47" height="3.3" rx="0.72"/><path class="cls-2" d="M8.32,20.53H8.8V22.1H8.32Z"/><path class="cls-2" d="M9.12,21h.41v.19A.52.52,0,0,1,9.71,21a.41.41,0,0,1,.23,0,.34.34,0,0,1,.28.11.45.45,0,0,1,.1.33v.72H9.88v-.63a.21.21,0,0,0,0-.15.12.12,0,0,0-.11,0,.14.14,0,0,0-.12.06.3.3,0,0,0,0,.21v.55H9.12Z"/><path class="cls-2" d="M11.34,20.53h.8a.54.54,0,0,1,.4.13.48.48,0,0,1,.13.35.45.45,0,0,1-.15.37.6.6,0,0,1-.43.14h-.27v.58h-.48Zm.48.67h.12a.32.32,0,0,0,.2-.05.13.13,0,0,0,0-.12.2.2,0,0,0,0-.13.31.31,0,0,0-.19,0h-.14Z"/><path class="cls-2" d="M12.89,21h.41v.19a.5.5,0,0,1,.12-.17.27.27,0,0,1,.16,0,.48.48,0,0,1,.21.06l-.14.31-.12,0a.14.14,0,0,0-.13.07.65.65,0,0,0-.07.37v.38h-.44Z"/><path class="cls-2" d="M13.84,21.53a.54.54,0,0,1,.18-.42.61.61,0,0,1,.47-.17.64.64,0,0,1,.52.2A.61.61,0,0,1,15,22a.65.65,0,0,1-.48.16.68.68,0,0,1-.44-.13A.57.57,0,0,1,13.84,21.53Zm.44,0a.37.37,0,0,0,.06.23.18.18,0,0,0,.15.07.19.19,0,0,0,.16-.07.37.37,0,0,0,.06-.23.34.34,0,0,0-.06-.22.18.18,0,0,0-.15-.07.19.19,0,0,0-.16.07A.34.34,0,0,0,14.28,21.53Z"/><path class="cls-2" d="M16.15,21h.4v1.13a.46.46,0,0,1-.16.36.54.54,0,0,1-.19.08,1.12,1.12,0,0,1-.27,0,.78.78,0,0,1-.47-.1.36.36,0,0,1-.13-.28.18.18,0,0,1,0-.06l.42.05a.12.12,0,0,0,.05.08.16.16,0,0,0,.12,0,.2.2,0,0,0,.14-.05.3.3,0,0,0,0-.18v-.17A.4.4,0,0,1,16,22a.54.54,0,0,1-.22.05.43.43,0,0,1-.37-.2.65.65,0,0,1-.1-.37.58.58,0,0,1,.13-.4.42.42,0,0,1,.34-.14A.44.44,0,0,1,16,21a.47.47,0,0,1,.17.15Zm-.41.55a.26.26,0,0,0,0,.19.17.17,0,0,0,.14.06.15.15,0,0,0,.13-.07.24.24,0,0,0,.06-.18.27.27,0,0,0-.06-.19.21.21,0,0,0-.14-.07.15.15,0,0,0-.13.06A.28.28,0,0,0,15.74,21.51Z"/><path class="cls-2" d="M16.86,21h.41v.19a.32.32,0,0,1,.12-.17.24.24,0,0,1,.15,0,.45.45,0,0,1,.21.06l-.13.31-.12,0a.15.15,0,0,0-.14.07.77.77,0,0,0-.06.37v.38h-.44Z"/><path class="cls-2" d="M19.12,21.64h-.87a.34.34,0,0,0,.06.16.22.22,0,0,0,.16.07.27.27,0,0,0,.12,0l.08-.07.43,0a.64.64,0,0,1-.24.25.87.87,0,0,1-.4.07.82.82,0,0,1-.35-.06.53.53,0,0,1-.22-.2.67.67,0,0,1-.08-.33A.56.56,0,0,1,18,21.1a.64.64,0,0,1,.47-.16.81.81,0,0,1,.38.07.47.47,0,0,1,.22.22.74.74,0,0,1,.07.36Zm-.44-.21a.3.3,0,0,0-.07-.18.17.17,0,0,0-.14-.05.19.19,0,0,0-.17.08.26.26,0,0,0-.05.15Z"/><path class="cls-2" d="M19.24,21.78l.43,0a.24.24,0,0,0,.08.11.17.17,0,0,0,.13,0,.22.22,0,0,0,.13,0,.08.08,0,0,0,0-.14.51.51,0,0,0-.19-.05,1.63,1.63,0,0,1-.31-.07.31.31,0,0,1-.21-.3.26.26,0,0,1,.07-.19.41.41,0,0,1,.18-.12.8.8,0,0,1,.3,0,1.05,1.05,0,0,1,.3,0,.29.29,0,0,1,.16.1.42.42,0,0,1,.11.17l-.41,0a.16.16,0,0,0-.06-.08.21.21,0,0,0-.12,0l-.11,0a.09.09,0,0,0,0,.07.05.05,0,0,0,0,.06.49.49,0,0,0,.19,0,1.42,1.42,0,0,1,.32.07.34.34,0,0,1,.16.12.32.32,0,0,1,.06.18.33.33,0,0,1-.06.19.42.42,0,0,1-.19.15.81.81,0,0,1-.34.05,1,1,0,0,1-.45-.08A.43.43,0,0,1,19.24,21.78Z"/><path class="cls-2" d="M20.58,21.78l.43,0a.19.19,0,0,0,.08.11.16.16,0,0,0,.12,0,.26.26,0,0,0,.14,0,.1.1,0,0,0,0-.07.08.08,0,0,0-.05-.07.68.68,0,0,0-.19-.05,1.45,1.45,0,0,1-.31-.07.31.31,0,0,1-.21-.3.31.31,0,0,1,.06-.19.57.57,0,0,1,.18-.12.9.9,0,0,1,.31,0,1.15,1.15,0,0,1,.3,0,.34.34,0,0,1,.16.1.56.56,0,0,1,.11.17l-.42,0a.14.14,0,0,0,0-.08.21.21,0,0,0-.12,0l-.11,0a.09.09,0,0,0,0,.07.05.05,0,0,0,0,.06.48.48,0,0,0,.18,0,1.4,1.4,0,0,1,.33.07.4.4,0,0,1,.16.12.32.32,0,0,1,.06.18.33.33,0,0,1-.06.19.49.49,0,0,1-.19.15.86.86,0,0,1-.35.05.93.93,0,0,1-.44-.08A.39.39,0,0,1,20.58,21.78Z"/><path class="cls-3" d="M19.17,10.58a.14.14,0,0,0,0-.07L17.73,9.06,16.57,7.87a.56.56,0,0,0-.4-.17h-4a1.44,1.44,0,0,0-1.45,1.44v8.6a1.44,1.44,0,0,0,1.45,1.44h5.56a1.44,1.44,0,0,0,1.45-1.44V10.82A.5.5,0,0,0,19.17,10.58Zm-6,5,.12-.36H14l.12.36a.54.54,0,0,1-.07.46.51.51,0,0,1-.81,0A.53.53,0,0,1,13.15,15.62Zm4.63,2.44H12.22a.32.32,0,0,1-.33-.32V9.14a.32.32,0,0,1,.33-.32h.89V10h-.48a.56.56,0,1,0,0,1.12h.48V12h-.48a.56.56,0,0,0,0,1.12h.43v1.13l-.35,1.08a1,1,0,0,0,.13.9.95.95,0,0,0,1.56,0,1,1,0,0,0,.13-.9l-.36-1.08V14h.4a.56.56,0,0,0,0-1.12h-.34v-.66h.34a.56.56,0,1,0,0-1.12h-.34v-1h.34a.56.56,0,0,0,0-1.12h-.34V8.82h1.6v1.69a.73.73,0,0,0,.73.72h1.55v6.51A.32.32,0,0,1,17.78,18.06Z"/></svg>