<svg id="Capa_1" data-name="Capa 1" xmlns="http://www.w3.org/2000/svg" viewBox="0 0 30 30"><defs><style>.cls-1{fill:#b31110;}.cls-2{fill:#fff;}.cls-3{fill:#474747;fill-rule:evenodd;}</style></defs><rect class="cls-1" x="6.74" y="19.85" width="16.47" height="3.3" rx="0.72"/><path class="cls-2" d="M11.52,20.53h1.19v.34H12v.27h.61v.32H12v.64h-.48Z"/><path class="cls-2" d="M13.28,21.33l-.41,0a.38.38,0,0,1,.07-.17.32.32,0,0,1,.12-.11.58.58,0,0,1,.17-.05.78.78,0,0,1,.22,0l.32,0a.61.61,0,0,1,.2.09.37.37,0,0,1,.08.14.35.35,0,0,1,0,.17v.5a.52.52,0,0,0,.05.24h-.41s0-.05,0-.07a.56.56,0,0,1,0-.07l-.17.12a.77.77,0,0,1-.27,0,.46.46,0,0,1-.31-.09.3.3,0,0,1-.11-.23.29.29,0,0,1,.08-.21.49.49,0,0,1,.28-.13l.32-.07.15-.05a.16.16,0,0,0,0-.11.17.17,0,0,0-.12,0,.35.35,0,0,0-.16,0A.2.2,0,0,0,13.28,21.33Zm.38.23-.19.06a.3.3,0,0,0-.16.07.1.1,0,0,0,0,.16.13.13,0,0,0,.1,0,.35.35,0,0,0,.14,0s.07-.05.08-.09a.25.25,0,0,0,0-.13Z"/><path class="cls-2" d="M14.36,20.53h.44v.3h-.44Zm0,.43h.44V22.1h-.44Z"/><path class="cls-2" d="M15.09,20.53h.44V22.1h-.44Z"/><path class="cls-2" d="M17.06,21.64h-.87a.34.34,0,0,0,.06.16.22.22,0,0,0,.16.07.27.27,0,0,0,.12,0l.08-.07.43,0a.64.64,0,0,1-.24.25.84.84,0,0,1-.4.07.82.82,0,0,1-.35-.06.53.53,0,0,1-.22-.2.67.67,0,0,1-.08-.33.6.6,0,0,1,.17-.43.64.64,0,0,1,.47-.16.81.81,0,0,1,.38.07.47.47,0,0,1,.22.22.74.74,0,0,1,.07.36Zm-.44-.21a.3.3,0,0,0-.07-.18.16.16,0,0,0-.14-.05.19.19,0,0,0-.17.08.37.37,0,0,0,0,.15Z"/><path class="cls-2" d="M18.46,20.53V22.1h-.41v-.17a.71.71,0,0,1-.16.15.45.45,0,0,1-.2,0,.4.4,0,0,1-.36-.17.75.75,0,0,1-.12-.43.61.61,0,0,1,.13-.43.45.45,0,0,1,.35-.15.52.52,0,0,1,.18,0,.42.42,0,0,1,.15.11v-.55Zm-.44,1a.28.28,0,0,0-.06-.2.17.17,0,0,0-.14-.07.16.16,0,0,0-.13.07.36.36,0,0,0-.05.21.28.28,0,0,0,.06.2.17.17,0,0,0,.13.07.21.21,0,0,0,.14-.07A.36.36,0,0,0,18,21.53Z"/><path class="cls-3" d="M19.17,10.58a.14.14,0,0,0,0-.07L17.73,9.06,16.57,7.87a.56.56,0,0,0-.4-.17h-4a1.44,1.44,0,0,0-1.45,1.44v8.6a1.44,1.44,0,0,0,1.45,1.44h5.56a1.44,1.44,0,0,0,1.45-1.44V10.82A.5.5,0,0,0,19.17,10.58Zm-6,5,.12-.36H14l.12.36a.54.54,0,0,1-.07.46.51.51,0,0,1-.81,0A.53.53,0,0,1,13.15,15.62Zm4.63,2.44H12.22a.32.32,0,0,1-.33-.32V9.14a.32.32,0,0,1,.33-.32h.89V10h-.48a.56.56,0,1,0,0,1.12h.48V12h-.48a.56.56,0,0,0,0,1.12h.43v1.13l-.35,1.08a1,1,0,0,0,.13.9.95.95,0,0,0,1.56,0,1,1,0,0,0,.13-.9l-.36-1.08V14h.4a.56.56,0,0,0,0-1.12h-.34v-.66h.34a.56.56,0,1,0,0-1.12h-.34v-1h.34a.56.56,0,0,0,0-1.12h-.34V8.82h1.6v1.69a.73.73,0,0,0,.73.72h1.55v6.51A.32.32,0,0,1,17.78,18.06Z"/></svg>