<svg id="Capa_1" data-name="Capa 1" xmlns="http://www.w3.org/2000/svg" viewBox="0 0 30 30"><defs><style>.cls-1{fill:#55bd88;}.cls-2{fill:#fff;}.cls-3{fill:#474747;fill-rule:evenodd;}</style></defs><rect class="cls-1" x="6.77" y="19.85" width="16.47" height="3.3" rx="0.72"/><path class="cls-2" d="M8.52,21.58l.46,0a.34.34,0,0,0,.06.17.25.25,0,0,0,.22.1.25.25,0,0,0,.16-.05.16.16,0,0,0,.05-.11.13.13,0,0,0-.05-.11.73.73,0,0,0-.25-.09,1.06,1.06,0,0,1-.45-.19A.4.4,0,0,1,8.58,21a.44.44,0,0,1,.28-.39,1,1,0,0,1,.39-.06.71.71,0,0,1,.45.11.45.45,0,0,1,.19.35l-.45,0a.27.27,0,0,0-.08-.15.21.21,0,0,0-.16-.05.23.23,0,0,0-.13,0,.12.12,0,0,0,0,.09.09.09,0,0,0,0,.07.52.52,0,0,0,.17.06,2.13,2.13,0,0,1,.45.13.51.51,0,0,1,.2.18.44.44,0,0,1,.06.23.48.48,0,0,1-.08.28.54.54,0,0,1-.23.19,1,1,0,0,1-.38.07A.77.77,0,0,1,8.7,22,.6.6,0,0,1,8.52,21.58Z"/><path class="cls-2" d="M11.35,22.1H11v-.18a.7.7,0,0,1-.19.16.48.48,0,0,1-.22,0,.36.36,0,0,1-.28-.1.45.45,0,0,1-.11-.33V21h.44v.63a.21.21,0,0,0,0,.15.14.14,0,0,0,.11,0,.16.16,0,0,0,.13-.06.34.34,0,0,0,.05-.21V21h.43Z"/><path class="cls-2" d="M14,21.65l.41.05a.51.51,0,0,1-.11.22.43.43,0,0,1-.2.15.67.67,0,0,1-.3.05,1.35,1.35,0,0,1-.31,0,.49.49,0,0,1-.2-.11.75.75,0,0,1-.14-.17.68.68,0,0,1,0-.27.67.67,0,0,1,.06-.3.79.79,0,0,1,.12-.15.7.7,0,0,1,.16-.1.93.93,0,0,1,.32,0,.74.74,0,0,1,.43.1.52.52,0,0,1,.2.29l-.41.05a.16.16,0,0,0-.07-.11.25.25,0,0,0-.13,0,.24.24,0,0,0-.18.07.4.4,0,0,0-.06.24.33.33,0,0,0,.06.21.22.22,0,0,0,.17.07.2.2,0,0,0,.14,0A.28.28,0,0,0,14,21.65Z"/><path class="cls-2" d="M12.47,21.65l.42.05a.51.51,0,0,1-.11.22.48.48,0,0,1-.2.15.72.72,0,0,1-.31.05,1.26,1.26,0,0,1-.3,0,.53.53,0,0,1-.21-.11.52.52,0,0,1-.13-.17.54.54,0,0,1-.05-.27.67.67,0,0,1,.06-.3.79.79,0,0,1,.12-.15.65.65,0,0,1,.15-.1,1,1,0,0,1,.33,0,.73.73,0,0,1,.42.1.49.49,0,0,1,.21.29l-.41.05a.3.3,0,0,0-.07-.11.29.29,0,0,0-.14,0,.21.21,0,0,0-.17.07.34.34,0,0,0-.07.24.28.28,0,0,0,.07.21.2.2,0,0,0,.16.07.24.24,0,0,0,.15,0A.22.22,0,0,0,12.47,21.65Z"/><path class="cls-2" d="M15.9,21.64H15a.34.34,0,0,0,.06.16.24.24,0,0,0,.16.07.28.28,0,0,0,.13,0l.07-.07.43,0a.64.64,0,0,1-.24.25.84.84,0,0,1-.4.07.82.82,0,0,1-.35-.06.45.45,0,0,1-.21-.2.58.58,0,0,1-.09-.33.6.6,0,0,1,.17-.43.64.64,0,0,1,.47-.16.88.88,0,0,1,.39.07.5.5,0,0,1,.21.22.74.74,0,0,1,.07.36Zm-.44-.21a.3.3,0,0,0-.07-.18.16.16,0,0,0-.14-.05.19.19,0,0,0-.17.08.37.37,0,0,0-.05.15Z"/><path class="cls-2" d="M16,21.78l.43,0a.23.23,0,0,0,.07.11.18.18,0,0,0,.13,0,.29.29,0,0,0,.14,0,.09.09,0,0,0,0-.07.06.06,0,0,0,0-.07.5.5,0,0,0-.18-.05,1.79,1.79,0,0,1-.32-.07.39.39,0,0,1-.15-.11.33.33,0,0,1-.06-.19.32.32,0,0,1,.07-.19.41.41,0,0,1,.18-.12.9.9,0,0,1,.31,0,1.15,1.15,0,0,1,.3,0,.39.39,0,0,1,.16.1.4.4,0,0,1,.1.17l-.41,0a.22.22,0,0,0-.05-.08.28.28,0,0,0-.13,0l-.1,0a.08.08,0,0,0,0,.07.06.06,0,0,0,.05.06.43.43,0,0,0,.18,0,1.3,1.3,0,0,1,.32.07.37.37,0,0,1,.17.12.41.41,0,0,1,.05.18.33.33,0,0,1-.06.19.45.45,0,0,1-.18.15.86.86,0,0,1-.35.05A.9.9,0,0,1,16.2,22,.39.39,0,0,1,16,21.78Z"/><path class="cls-2" d="M17.36,21.78l.44,0a.18.18,0,0,0,.07.11.17.17,0,0,0,.13,0,.22.22,0,0,0,.13,0,.08.08,0,0,0,0-.14.51.51,0,0,0-.19-.05,1.63,1.63,0,0,1-.31-.07.31.31,0,0,1-.21-.3.26.26,0,0,1,.07-.19.41.41,0,0,1,.18-.12.8.8,0,0,1,.3,0,1.05,1.05,0,0,1,.3,0,.29.29,0,0,1,.16.1.42.42,0,0,1,.11.17l-.41,0a.16.16,0,0,0-.06-.08.21.21,0,0,0-.12,0l-.11,0a.09.09,0,0,0,0,.07.05.05,0,0,0,0,.06.49.49,0,0,0,.19,0,1.42,1.42,0,0,1,.32.07.34.34,0,0,1,.16.12.32.32,0,0,1,.06.18.33.33,0,0,1-.06.19.42.42,0,0,1-.19.15.81.81,0,0,1-.34.05,1,1,0,0,1-.45-.08A.43.43,0,0,1,17.36,21.78Z"/><path class="cls-2" d="M19.26,21h.21v.32h-.21v.82h-.44v-.82h-.16V21h.16v-.05a1,1,0,0,1,0-.15.3.3,0,0,1,.06-.14.24.24,0,0,1,.11-.08.61.61,0,0,1,.22,0,2.26,2.26,0,0,1,.33,0l0,.27-.12,0-.09,0a.09.09,0,0,0,0,.06A.25.25,0,0,0,19.26,21Z"/><path class="cls-2" d="M20.82,22.1h-.4v-.18a.7.7,0,0,1-.19.16.48.48,0,0,1-.22,0,.36.36,0,0,1-.28-.1.45.45,0,0,1-.11-.33V21h.44v.63a.21.21,0,0,0,0,.15.14.14,0,0,0,.11,0,.16.16,0,0,0,.13-.06.34.34,0,0,0,.05-.21V21h.43Z"/><path class="cls-2" d="M21.1,20.53h.44V22.1H21.1Z"/><path class="cls-3" d="M19.17,10.58a.14.14,0,0,0,0-.07L17.73,9.06,16.57,7.87a.56.56,0,0,0-.4-.17h-4a1.44,1.44,0,0,0-1.45,1.44v8.6a1.44,1.44,0,0,0,1.45,1.44h5.56a1.44,1.44,0,0,0,1.45-1.44V10.82A.5.5,0,0,0,19.17,10.58Zm-6,5,.12-.36H14l.12.36a.54.54,0,0,1-.07.46.51.51,0,0,1-.81,0A.53.53,0,0,1,13.15,15.62Zm4.63,2.44H12.22a.32.32,0,0,1-.33-.32V9.14a.32.32,0,0,1,.33-.32h.89V10h-.48a.56.56,0,1,0,0,1.12h.48V12h-.48a.56.56,0,0,0,0,1.12h.43v1.13l-.35,1.08a1,1,0,0,0,.13.9.95.95,0,0,0,1.56,0,1,1,0,0,0,.13-.9l-.36-1.08V14h.4a.56.56,0,0,0,0-1.12h-.34v-.66h.34a.56.56,0,1,0,0-1.12h-.34v-1h.34a.56.56,0,0,0,0-1.12h-.34V8.82h1.6v1.69a.73.73,0,0,0,.73.72h1.55v6.51A.32.32,0,0,1,17.78,18.06Z"/></svg>